G04 #@! TF.GenerationSoftware,KiCad,Pcbnew,(5.1.5)-3*
G04 #@! TF.CreationDate,2020-08-18T12:44:29+01:00*
G04 #@! TF.ProjectId,modulepcb,6d6f6475-6c65-4706-9362-2e6b69636164,rev?*
G04 #@! TF.SameCoordinates,Original*
G04 #@! TF.FileFunction,Copper,L1,Top*
G04 #@! TF.FilePolarity,Positive*
%FSLAX46Y46*%
G04 Gerber Fmt 4.6, Leading zero omitted, Abs format (unit mm)*
G04 Created by KiCad (PCBNEW (5.1.5)-3) date 2020-08-18 12:44:29*
%MOMM*%
%LPD*%
G04 APERTURE LIST*
%ADD10O,1.700000X1.700000*%
%ADD11R,1.700000X1.700000*%
%ADD12C,1.400000*%
%ADD13C,3.653000*%
%ADD14O,3.000000X2.500000*%
%ADD15C,1.800000*%
%ADD16C,4.000000*%
%ADD17O,1.400000X1.400000*%
%ADD18R,1.800000X1.800000*%
%ADD19O,1.600000X1.600000*%
%ADD20R,1.600000X1.600000*%
%ADD21C,0.250000*%
%ADD22C,0.254000*%
G04 APERTURE END LIST*
D10*
X132080000Y-160020000D03*
X134620000Y-160020000D03*
X137160000Y-160020000D03*
X139700000Y-160020000D03*
X142240000Y-160020000D03*
X144780000Y-160020000D03*
X147320000Y-160020000D03*
D11*
X149860000Y-160020000D03*
D12*
X120650000Y-115570000D03*
X120650000Y-112570000D03*
X120650000Y-109570000D03*
D13*
X120650000Y-118820000D03*
X120650000Y-106320000D03*
D14*
X132080000Y-112950000D03*
X132080000Y-107950000D03*
X144580000Y-112950000D03*
X144580000Y-107950000D03*
D15*
X134700000Y-97790000D03*
X137200000Y-97790000D03*
X139700000Y-97790000D03*
D16*
X132800000Y-90805000D03*
X141600000Y-90790000D03*
D15*
X120730000Y-97790000D03*
X123230000Y-97790000D03*
X125730000Y-97790000D03*
D16*
X118830000Y-90805000D03*
X127630000Y-90790000D03*
D15*
X134700000Y-78740000D03*
X137200000Y-78740000D03*
X139700000Y-78740000D03*
D16*
X132800000Y-71755000D03*
X141600000Y-71740000D03*
D15*
X120730000Y-78740000D03*
X123230000Y-78740000D03*
X125730000Y-78740000D03*
D16*
X118830000Y-71755000D03*
X127630000Y-71740000D03*
D15*
X134700000Y-59690000D03*
X137200000Y-59690000D03*
X139700000Y-59690000D03*
D16*
X132800000Y-52705000D03*
X141600000Y-52690000D03*
D15*
X120730000Y-59690000D03*
X123230000Y-59690000D03*
X125730000Y-59690000D03*
D16*
X118830000Y-52705000D03*
X127630000Y-52690000D03*
D17*
X146050000Y-74930000D03*
D12*
X146050000Y-67310000D03*
D17*
X146050000Y-55880000D03*
D12*
X146050000Y-48260000D03*
D10*
X118110000Y-127000000D03*
X118110000Y-129540000D03*
X118110000Y-132080000D03*
D11*
X118110000Y-134620000D03*
D10*
X118110000Y-142240000D03*
X118110000Y-144780000D03*
X118110000Y-147320000D03*
D11*
X118110000Y-149860000D03*
D10*
X132080000Y-162560000D03*
X134620000Y-162560000D03*
X137160000Y-162560000D03*
X139700000Y-162560000D03*
X142240000Y-162560000D03*
X144780000Y-162560000D03*
X147320000Y-162560000D03*
D11*
X149860000Y-162560000D03*
D10*
X152400000Y-118110000D03*
X152400000Y-120650000D03*
X152400000Y-123190000D03*
X152400000Y-125730000D03*
X152400000Y-128270000D03*
X152400000Y-130810000D03*
X152400000Y-133350000D03*
X152400000Y-135890000D03*
X152400000Y-138430000D03*
X152400000Y-140970000D03*
X152400000Y-143510000D03*
X152400000Y-146050000D03*
X152400000Y-148590000D03*
X152400000Y-151130000D03*
D11*
X152400000Y-153670000D03*
X124460000Y-121920000D03*
X148590000Y-107950000D03*
D10*
X132080000Y-118110000D03*
X132080000Y-120650000D03*
X132080000Y-123190000D03*
X132080000Y-125730000D03*
X132080000Y-128270000D03*
X132080000Y-130810000D03*
X132080000Y-133350000D03*
X132080000Y-135890000D03*
X132080000Y-138430000D03*
X132080000Y-140970000D03*
X132080000Y-143510000D03*
X132080000Y-146050000D03*
X132080000Y-148590000D03*
X132080000Y-151130000D03*
D11*
X132080000Y-153670000D03*
D15*
X151130000Y-71120000D03*
D18*
X148590000Y-71120000D03*
D15*
X151130000Y-52070000D03*
D18*
X148590000Y-52070000D03*
D19*
X149860000Y-118110000D03*
X134620000Y-118110000D03*
X149860000Y-153670000D03*
X134620000Y-120650000D03*
X149860000Y-151130000D03*
X134620000Y-123190000D03*
X149860000Y-148590000D03*
X134620000Y-125730000D03*
X149860000Y-146050000D03*
X134620000Y-128270000D03*
X149860000Y-143510000D03*
X134620000Y-130810000D03*
X149860000Y-140970000D03*
X134620000Y-133350000D03*
X149860000Y-138430000D03*
X134620000Y-135890000D03*
X149860000Y-135890000D03*
X134620000Y-138430000D03*
X149860000Y-133350000D03*
X134620000Y-140970000D03*
X149860000Y-130810000D03*
X134620000Y-143510000D03*
X149860000Y-128270000D03*
X134620000Y-146050000D03*
X149860000Y-125730000D03*
X134620000Y-148590000D03*
X149860000Y-123190000D03*
X134620000Y-151130000D03*
X149860000Y-120650000D03*
D20*
X134620000Y-153670000D03*
D21*
X149860000Y-118110000D02*
X152400000Y-118110000D01*
X132080000Y-118110000D02*
X134620000Y-118110000D01*
X149860000Y-153670000D02*
X152400000Y-153670000D01*
X134620000Y-120650000D02*
X132080000Y-120650000D01*
X149860000Y-151130000D02*
X152400000Y-151130000D01*
X134620000Y-146050000D02*
X132080000Y-146050000D01*
X139700000Y-162560000D02*
X139700000Y-160020000D01*
X132080000Y-123190000D02*
X134620000Y-123190000D01*
X149860000Y-162560000D02*
X149860000Y-160020000D01*
X149860000Y-148590000D02*
X152400000Y-148590000D01*
X132080000Y-148590000D02*
X134620000Y-148590000D01*
X149860000Y-148590000D02*
X134620000Y-148590000D01*
X134620000Y-125730000D02*
X132080000Y-125730000D01*
X130810000Y-127000000D02*
X132080000Y-125730000D01*
X118110000Y-127000000D02*
X130810000Y-127000000D01*
X138800001Y-58790001D02*
X139700000Y-59690000D01*
X138474999Y-58464999D02*
X138800001Y-58790001D01*
X126955001Y-58464999D02*
X138474999Y-58464999D01*
X125730000Y-59690000D02*
X126955001Y-58464999D01*
X124830001Y-96890001D02*
X125730000Y-97790000D01*
X124504999Y-96564999D02*
X124830001Y-96890001D01*
X120141999Y-96564999D02*
X124504999Y-96564999D01*
X119504999Y-98378001D02*
X119504999Y-97201999D01*
X119504999Y-97201999D02*
X120141999Y-96564999D01*
X122801501Y-101674503D02*
X119504999Y-98378001D01*
X131515999Y-121825001D02*
X122801501Y-113110503D01*
X134920003Y-121825001D02*
X131515999Y-121825001D01*
X135745001Y-122649999D02*
X134920003Y-121825001D01*
X122801501Y-113110503D02*
X122801501Y-101674503D01*
X135745001Y-131935001D02*
X135745001Y-122649999D01*
X149860000Y-146050000D02*
X135745001Y-131935001D01*
X124504999Y-77514999D02*
X124830001Y-77840001D01*
X124830001Y-77840001D02*
X125730000Y-78740000D01*
X122641999Y-77514999D02*
X124504999Y-77514999D01*
X121955001Y-78201997D02*
X122641999Y-77514999D01*
X121955001Y-94015001D02*
X121955001Y-78201997D01*
X125730000Y-97790000D02*
X121955001Y-94015001D01*
X124830001Y-58790001D02*
X125730000Y-59690000D01*
X124504999Y-58464999D02*
X124830001Y-58790001D01*
X122004999Y-59101999D02*
X122641999Y-58464999D01*
X122641999Y-58464999D02*
X124504999Y-58464999D01*
X122004999Y-75014999D02*
X122004999Y-59101999D01*
X125730000Y-78740000D02*
X122004999Y-75014999D01*
X149860000Y-146050000D02*
X152400000Y-146050000D01*
X144780000Y-162560000D02*
X144780000Y-160020000D01*
X132080000Y-128270000D02*
X134620000Y-128270000D01*
X130810000Y-129540000D02*
X132080000Y-128270000D01*
X118110000Y-129540000D02*
X130810000Y-129540000D01*
X154755010Y-141154990D02*
X152400000Y-143510000D01*
X143212823Y-99015001D02*
X154755010Y-110557188D01*
X137200000Y-97790000D02*
X138425001Y-99015001D01*
X154755010Y-110557188D02*
X154755010Y-141154990D01*
X138425001Y-99015001D02*
X143212823Y-99015001D01*
X149860000Y-143510000D02*
X152400000Y-143510000D01*
X134620000Y-130810000D02*
X132080000Y-130810000D01*
X130810000Y-132080000D02*
X132080000Y-130810000D01*
X118110000Y-132080000D02*
X130810000Y-132080000D01*
X149060001Y-140170001D02*
X149860000Y-140970000D01*
X148734999Y-139844999D02*
X149060001Y-140170001D01*
X148734999Y-130559997D02*
X148734999Y-139844999D01*
X135015002Y-116840000D02*
X148734999Y-130559997D01*
X124129999Y-107477399D02*
X133492600Y-116840000D01*
X124129999Y-98689999D02*
X124129999Y-107477399D01*
X133492600Y-116840000D02*
X135015002Y-116840000D01*
X123230000Y-97790000D02*
X124129999Y-98689999D01*
X149860000Y-140970000D02*
X152400000Y-140970000D01*
X132080000Y-133350000D02*
X134620000Y-133350000D01*
X130810000Y-134620000D02*
X132080000Y-133350000D01*
X118110000Y-134620000D02*
X130810000Y-134620000D01*
X149860000Y-138430000D02*
X152400000Y-138430000D01*
X134620000Y-161357919D02*
X134620000Y-160020000D01*
X134620000Y-162560000D02*
X134620000Y-161357919D01*
X134620000Y-135890000D02*
X132080000Y-135890000D01*
X124460000Y-135890000D02*
X132080000Y-135890000D01*
X118110000Y-142240000D02*
X124460000Y-135890000D01*
X149860000Y-135890000D02*
X152400000Y-135890000D01*
X137160000Y-160020000D02*
X137160000Y-162560000D01*
X132080000Y-138430000D02*
X134620000Y-138430000D01*
X125730000Y-144780000D02*
X132080000Y-138430000D01*
X118110000Y-144780000D02*
X125730000Y-144780000D01*
X135925001Y-80014999D02*
X135925001Y-99730001D01*
X137200000Y-78740000D02*
X135925001Y-80014999D01*
X148336412Y-104775000D02*
X154305000Y-110743588D01*
X135925001Y-99730001D02*
X140970000Y-104775000D01*
X140970000Y-104775000D02*
X148336412Y-104775000D01*
X154305000Y-131445000D02*
X152400000Y-133350000D01*
X154305000Y-110743588D02*
X154305000Y-131445000D01*
X149860000Y-133350000D02*
X152400000Y-133350000D01*
X134620000Y-140970000D02*
X132080000Y-140970000D01*
X125730000Y-147320000D02*
X132080000Y-140970000D01*
X118110000Y-147320000D02*
X125730000Y-147320000D01*
X148734999Y-129684999D02*
X149060001Y-130010001D01*
X130024989Y-108372389D02*
X148734999Y-127082399D01*
X130024989Y-96625991D02*
X130024989Y-108372389D01*
X123230000Y-89831002D02*
X130024989Y-96625991D01*
X149060001Y-130010001D02*
X149860000Y-130810000D01*
X148734999Y-127082399D02*
X148734999Y-129684999D01*
X123230000Y-78740000D02*
X123230000Y-89831002D01*
X150991370Y-130810000D02*
X152400000Y-130810000D01*
X149860000Y-130810000D02*
X150991370Y-130810000D01*
X132080000Y-143510000D02*
X134620000Y-143510000D01*
X125730000Y-149860000D02*
X132080000Y-143510000D01*
X118110000Y-149860000D02*
X125730000Y-149860000D01*
X153249999Y-127420001D02*
X152400000Y-128270000D01*
X153575001Y-110649999D02*
X153575001Y-127094999D01*
X149299992Y-106374990D02*
X153575001Y-110649999D01*
X141471988Y-106374990D02*
X149299992Y-106374990D01*
X135125001Y-89688999D02*
X135125001Y-95551997D01*
X153575001Y-127094999D02*
X153249999Y-127420001D01*
X135125001Y-95551997D02*
X133474999Y-97201999D01*
X133474999Y-88038997D02*
X135125001Y-89688999D01*
X133474999Y-98378001D02*
X141471988Y-106374990D01*
X133474999Y-78151999D02*
X133474999Y-88038997D01*
X133474999Y-97201999D02*
X133474999Y-98378001D01*
X137200000Y-74426998D02*
X133474999Y-78151999D01*
X137200000Y-59690000D02*
X137200000Y-74426998D01*
X150991370Y-128270000D02*
X152400000Y-128270000D01*
X149860000Y-128270000D02*
X150991370Y-128270000D01*
X149060001Y-124930001D02*
X149860000Y-125730000D01*
X148734999Y-122127599D02*
X148734999Y-124604999D01*
X130474999Y-103867599D02*
X148734999Y-122127599D01*
X130474999Y-81671997D02*
X130474999Y-103867599D01*
X123230000Y-74426998D02*
X130474999Y-81671997D01*
X148734999Y-124604999D02*
X149060001Y-124930001D01*
X123230000Y-59690000D02*
X123230000Y-74426998D01*
X150991370Y-125730000D02*
X152400000Y-125730000D01*
X149860000Y-125730000D02*
X150991370Y-125730000D01*
X149860000Y-123190000D02*
X152400000Y-123190000D01*
X133488630Y-151130000D02*
X132080000Y-151130000D01*
X134620000Y-151130000D02*
X133488630Y-151130000D01*
X149860000Y-120650000D02*
X152400000Y-120650000D01*
X133180000Y-153670000D02*
X134620000Y-153670000D01*
X132080000Y-153670000D02*
X133180000Y-153670000D01*
X144580000Y-107950000D02*
X148590000Y-107950000D01*
X124460000Y-120820000D02*
X124460000Y-121920000D01*
X120650000Y-113559949D02*
X124460000Y-117369949D01*
X124460000Y-117369949D02*
X124460000Y-120820000D01*
X120650000Y-112570000D02*
X120650000Y-113559949D01*
X132080000Y-160020000D02*
X132080000Y-162560000D01*
X142240000Y-161222081D02*
X142240000Y-162560000D01*
X142240000Y-160020000D02*
X142240000Y-161222081D01*
X147320000Y-160020000D02*
X147320000Y-162560000D01*
D22*
G36*
X155115001Y-109842376D02*
G01*
X143776627Y-98504004D01*
X143752824Y-98475000D01*
X143637099Y-98380027D01*
X143505070Y-98309455D01*
X143361809Y-98265998D01*
X143250156Y-98255001D01*
X143250145Y-98255001D01*
X143212823Y-98251325D01*
X143175501Y-98255001D01*
X141168862Y-98255001D01*
X141176011Y-98237743D01*
X141235000Y-97941184D01*
X141235000Y-97638816D01*
X141176011Y-97342257D01*
X141060299Y-97062905D01*
X140892312Y-96811495D01*
X140678505Y-96597688D01*
X140427095Y-96429701D01*
X140147743Y-96313989D01*
X139851184Y-96255000D01*
X139548816Y-96255000D01*
X139252257Y-96313989D01*
X138972905Y-96429701D01*
X138721495Y-96597688D01*
X138507688Y-96811495D01*
X138450000Y-96897831D01*
X138392312Y-96811495D01*
X138178505Y-96597688D01*
X137927095Y-96429701D01*
X137647743Y-96313989D01*
X137351184Y-96255000D01*
X137048816Y-96255000D01*
X136752257Y-96313989D01*
X136685001Y-96341847D01*
X136685001Y-90530475D01*
X138965000Y-90530475D01*
X138965000Y-91049525D01*
X139066261Y-91558601D01*
X139264893Y-92038141D01*
X139553262Y-92469715D01*
X139920285Y-92836738D01*
X140351859Y-93125107D01*
X140831399Y-93323739D01*
X141340475Y-93425000D01*
X141859525Y-93425000D01*
X142368601Y-93323739D01*
X142848141Y-93125107D01*
X143279715Y-92836738D01*
X143646738Y-92469715D01*
X143935107Y-92038141D01*
X144133739Y-91558601D01*
X144235000Y-91049525D01*
X144235000Y-90530475D01*
X144133739Y-90021399D01*
X143935107Y-89541859D01*
X143646738Y-89110285D01*
X143279715Y-88743262D01*
X142848141Y-88454893D01*
X142368601Y-88256261D01*
X141859525Y-88155000D01*
X141340475Y-88155000D01*
X140831399Y-88256261D01*
X140351859Y-88454893D01*
X139920285Y-88743262D01*
X139553262Y-89110285D01*
X139264893Y-89541859D01*
X139066261Y-90021399D01*
X138965000Y-90530475D01*
X136685001Y-90530475D01*
X136685001Y-80329800D01*
X136791070Y-80223731D01*
X137048816Y-80275000D01*
X137351184Y-80275000D01*
X137647743Y-80216011D01*
X137927095Y-80100299D01*
X138178505Y-79932312D01*
X138392312Y-79718505D01*
X138450000Y-79632169D01*
X138507688Y-79718505D01*
X138721495Y-79932312D01*
X138972905Y-80100299D01*
X139252257Y-80216011D01*
X139548816Y-80275000D01*
X139851184Y-80275000D01*
X140147743Y-80216011D01*
X140427095Y-80100299D01*
X140678505Y-79932312D01*
X140892312Y-79718505D01*
X141060299Y-79467095D01*
X141176011Y-79187743D01*
X141235000Y-78891184D01*
X141235000Y-78588816D01*
X141176011Y-78292257D01*
X141060299Y-78012905D01*
X140892312Y-77761495D01*
X140678505Y-77547688D01*
X140427095Y-77379701D01*
X140147743Y-77263989D01*
X139851184Y-77205000D01*
X139548816Y-77205000D01*
X139252257Y-77263989D01*
X138972905Y-77379701D01*
X138721495Y-77547688D01*
X138507688Y-77761495D01*
X138450000Y-77847831D01*
X138392312Y-77761495D01*
X138178505Y-77547688D01*
X137927095Y-77379701D01*
X137647743Y-77263989D01*
X137351184Y-77205000D01*
X137048816Y-77205000D01*
X136752257Y-77263989D01*
X136472905Y-77379701D01*
X136221495Y-77547688D01*
X136007688Y-77761495D01*
X135912262Y-77904310D01*
X135764080Y-77855525D01*
X134879605Y-78740000D01*
X134893748Y-78754143D01*
X134714143Y-78933748D01*
X134700000Y-78919605D01*
X134685858Y-78933748D01*
X134506253Y-78754143D01*
X134520395Y-78740000D01*
X134506253Y-78725858D01*
X134685858Y-78546253D01*
X134700000Y-78560395D01*
X135584475Y-77675920D01*
X135500792Y-77421739D01*
X135351673Y-77350126D01*
X137711003Y-74990797D01*
X137740001Y-74966999D01*
X137766332Y-74934915D01*
X137834974Y-74851275D01*
X137863175Y-74798514D01*
X144715000Y-74798514D01*
X144715000Y-75061486D01*
X144766304Y-75319405D01*
X144866939Y-75562359D01*
X145013038Y-75781013D01*
X145198987Y-75966962D01*
X145417641Y-76113061D01*
X145660595Y-76213696D01*
X145918514Y-76265000D01*
X146181486Y-76265000D01*
X146439405Y-76213696D01*
X146682359Y-76113061D01*
X146901013Y-75966962D01*
X147086962Y-75781013D01*
X147233061Y-75562359D01*
X147333696Y-75319405D01*
X147385000Y-75061486D01*
X147385000Y-74798514D01*
X147333696Y-74540595D01*
X147233061Y-74297641D01*
X147086962Y-74078987D01*
X146901013Y-73893038D01*
X146682359Y-73746939D01*
X146439405Y-73646304D01*
X146181486Y-73595000D01*
X145918514Y-73595000D01*
X145660595Y-73646304D01*
X145417641Y-73746939D01*
X145198987Y-73893038D01*
X145013038Y-74078987D01*
X144866939Y-74297641D01*
X144766304Y-74540595D01*
X144715000Y-74798514D01*
X137863175Y-74798514D01*
X137905546Y-74719245D01*
X137905546Y-74719244D01*
X137949003Y-74575984D01*
X137960000Y-74464331D01*
X137960000Y-74464321D01*
X137963676Y-74426998D01*
X137960000Y-74389675D01*
X137960000Y-71480475D01*
X138965000Y-71480475D01*
X138965000Y-71999525D01*
X139066261Y-72508601D01*
X139264893Y-72988141D01*
X139553262Y-73419715D01*
X139920285Y-73786738D01*
X140351859Y-74075107D01*
X140831399Y-74273739D01*
X141340475Y-74375000D01*
X141859525Y-74375000D01*
X142368601Y-74273739D01*
X142848141Y-74075107D01*
X143279715Y-73786738D01*
X143646738Y-73419715D01*
X143935107Y-72988141D01*
X144133739Y-72508601D01*
X144230927Y-72020000D01*
X147051928Y-72020000D01*
X147064188Y-72144482D01*
X147100498Y-72264180D01*
X147159463Y-72374494D01*
X147238815Y-72471185D01*
X147335506Y-72550537D01*
X147445820Y-72609502D01*
X147565518Y-72645812D01*
X147690000Y-72658072D01*
X148304250Y-72655000D01*
X148463000Y-72496250D01*
X148463000Y-71247000D01*
X147213750Y-71247000D01*
X147055000Y-71405750D01*
X147051928Y-72020000D01*
X144230927Y-72020000D01*
X144235000Y-71999525D01*
X144235000Y-71480475D01*
X144133739Y-70971399D01*
X143935107Y-70491859D01*
X143753457Y-70220000D01*
X147051928Y-70220000D01*
X147055000Y-70834250D01*
X147213750Y-70993000D01*
X148463000Y-70993000D01*
X148463000Y-69743750D01*
X148717000Y-69743750D01*
X148717000Y-70993000D01*
X148737000Y-70993000D01*
X148737000Y-71247000D01*
X148717000Y-71247000D01*
X148717000Y-72496250D01*
X148875750Y-72655000D01*
X149490000Y-72658072D01*
X149614482Y-72645812D01*
X149734180Y-72609502D01*
X149844494Y-72550537D01*
X149941185Y-72471185D01*
X150020537Y-72374494D01*
X150079502Y-72264180D01*
X150085056Y-72245873D01*
X150151495Y-72312312D01*
X150402905Y-72480299D01*
X150682257Y-72596011D01*
X150978816Y-72655000D01*
X151281184Y-72655000D01*
X151577743Y-72596011D01*
X151857095Y-72480299D01*
X152108505Y-72312312D01*
X152322312Y-72098505D01*
X152490299Y-71847095D01*
X152606011Y-71567743D01*
X152665000Y-71271184D01*
X152665000Y-70968816D01*
X152606011Y-70672257D01*
X152490299Y-70392905D01*
X152322312Y-70141495D01*
X152108505Y-69927688D01*
X151857095Y-69759701D01*
X151577743Y-69643989D01*
X151281184Y-69585000D01*
X150978816Y-69585000D01*
X150682257Y-69643989D01*
X150402905Y-69759701D01*
X150151495Y-69927688D01*
X150085056Y-69994127D01*
X150079502Y-69975820D01*
X150020537Y-69865506D01*
X149941185Y-69768815D01*
X149844494Y-69689463D01*
X149734180Y-69630498D01*
X149614482Y-69594188D01*
X149490000Y-69581928D01*
X148875750Y-69585000D01*
X148717000Y-69743750D01*
X148463000Y-69743750D01*
X148304250Y-69585000D01*
X147690000Y-69581928D01*
X147565518Y-69594188D01*
X147445820Y-69630498D01*
X147335506Y-69689463D01*
X147238815Y-69768815D01*
X147159463Y-69865506D01*
X147100498Y-69975820D01*
X147064188Y-70095518D01*
X147051928Y-70220000D01*
X143753457Y-70220000D01*
X143646738Y-70060285D01*
X143279715Y-69693262D01*
X142848141Y-69404893D01*
X142368601Y-69206261D01*
X141859525Y-69105000D01*
X141340475Y-69105000D01*
X140831399Y-69206261D01*
X140351859Y-69404893D01*
X139920285Y-69693262D01*
X139553262Y-70060285D01*
X139264893Y-70491859D01*
X139066261Y-70971399D01*
X138965000Y-71480475D01*
X137960000Y-71480475D01*
X137960000Y-67178514D01*
X144715000Y-67178514D01*
X144715000Y-67441486D01*
X144766304Y-67699405D01*
X144866939Y-67942359D01*
X145013038Y-68161013D01*
X145198987Y-68346962D01*
X145417641Y-68493061D01*
X145660595Y-68593696D01*
X145918514Y-68645000D01*
X146181486Y-68645000D01*
X146439405Y-68593696D01*
X146682359Y-68493061D01*
X146901013Y-68346962D01*
X147086962Y-68161013D01*
X147233061Y-67942359D01*
X147333696Y-67699405D01*
X147385000Y-67441486D01*
X147385000Y-67178514D01*
X147333696Y-66920595D01*
X147233061Y-66677641D01*
X147086962Y-66458987D01*
X146901013Y-66273038D01*
X146682359Y-66126939D01*
X146439405Y-66026304D01*
X146181486Y-65975000D01*
X145918514Y-65975000D01*
X145660595Y-66026304D01*
X145417641Y-66126939D01*
X145198987Y-66273038D01*
X145013038Y-66458987D01*
X144866939Y-66677641D01*
X144766304Y-66920595D01*
X144715000Y-67178514D01*
X137960000Y-67178514D01*
X137960000Y-61028313D01*
X138178505Y-60882312D01*
X138392312Y-60668505D01*
X138450000Y-60582169D01*
X138507688Y-60668505D01*
X138721495Y-60882312D01*
X138972905Y-61050299D01*
X139252257Y-61166011D01*
X139548816Y-61225000D01*
X139851184Y-61225000D01*
X140147743Y-61166011D01*
X140427095Y-61050299D01*
X140678505Y-60882312D01*
X140892312Y-60668505D01*
X141060299Y-60417095D01*
X141176011Y-60137743D01*
X141235000Y-59841184D01*
X141235000Y-59538816D01*
X141176011Y-59242257D01*
X141060299Y-58962905D01*
X140892312Y-58711495D01*
X140678505Y-58497688D01*
X140427095Y-58329701D01*
X140147743Y-58213989D01*
X139851184Y-58155000D01*
X139548816Y-58155000D01*
X139291070Y-58206269D01*
X139038803Y-57954002D01*
X139015000Y-57924998D01*
X138899275Y-57830025D01*
X138767246Y-57759453D01*
X138623985Y-57715996D01*
X138512332Y-57704999D01*
X138512321Y-57704999D01*
X138474999Y-57701323D01*
X138437677Y-57704999D01*
X126992323Y-57704999D01*
X126955000Y-57701323D01*
X126917677Y-57704999D01*
X126917668Y-57704999D01*
X126806015Y-57715996D01*
X126662754Y-57759453D01*
X126530724Y-57830025D01*
X126447084Y-57898667D01*
X126415000Y-57924998D01*
X126391202Y-57953996D01*
X126138930Y-58206269D01*
X125881184Y-58155000D01*
X125578816Y-58155000D01*
X125321070Y-58206269D01*
X125068803Y-57954002D01*
X125045000Y-57924998D01*
X124929275Y-57830025D01*
X124797246Y-57759453D01*
X124653985Y-57715996D01*
X124542332Y-57704999D01*
X124542321Y-57704999D01*
X124504999Y-57701323D01*
X124467677Y-57704999D01*
X122679321Y-57704999D01*
X122641998Y-57701323D01*
X122604675Y-57704999D01*
X122604666Y-57704999D01*
X122493013Y-57715996D01*
X122349752Y-57759453D01*
X122217722Y-57830025D01*
X122134082Y-57898667D01*
X122101998Y-57924998D01*
X122078199Y-57953997D01*
X121562908Y-58469289D01*
X121530792Y-58371739D01*
X121258225Y-58240842D01*
X120965358Y-58165635D01*
X120663447Y-58149009D01*
X120364093Y-58191603D01*
X120078801Y-58291778D01*
X119929208Y-58371739D01*
X119845525Y-58625920D01*
X120730000Y-59510395D01*
X120744143Y-59496253D01*
X120923748Y-59675858D01*
X120909605Y-59690000D01*
X120923748Y-59704143D01*
X120744143Y-59883748D01*
X120730000Y-59869605D01*
X119845525Y-60754080D01*
X119929208Y-61008261D01*
X120201775Y-61139158D01*
X120494642Y-61214365D01*
X120796553Y-61230991D01*
X121095907Y-61188397D01*
X121245000Y-61136046D01*
X121244999Y-70699736D01*
X121165107Y-70506859D01*
X120876738Y-70075285D01*
X120509715Y-69708262D01*
X120078141Y-69419893D01*
X119598601Y-69221261D01*
X119089525Y-69120000D01*
X118570475Y-69120000D01*
X118061399Y-69221261D01*
X117581859Y-69419893D01*
X117150285Y-69708262D01*
X116783262Y-70075285D01*
X116494893Y-70506859D01*
X116296261Y-70986399D01*
X116195000Y-71495475D01*
X116195000Y-72014525D01*
X116296261Y-72523601D01*
X116494893Y-73003141D01*
X116783262Y-73434715D01*
X117150285Y-73801738D01*
X117581859Y-74090107D01*
X118061399Y-74288739D01*
X118570475Y-74390000D01*
X119089525Y-74390000D01*
X119598601Y-74288739D01*
X120078141Y-74090107D01*
X120509715Y-73801738D01*
X120876738Y-73434715D01*
X121165107Y-73003141D01*
X121244999Y-72810264D01*
X121244999Y-74977677D01*
X121241323Y-75014999D01*
X121244999Y-75052321D01*
X121244999Y-75052331D01*
X121255996Y-75163984D01*
X121299453Y-75307245D01*
X121370025Y-75439275D01*
X121409870Y-75487825D01*
X121464998Y-75555000D01*
X121494002Y-75578803D01*
X122669201Y-76754002D01*
X122641999Y-76751323D01*
X122604676Y-76754999D01*
X122604666Y-76754999D01*
X122493013Y-76765996D01*
X122349752Y-76809453D01*
X122217722Y-76880025D01*
X122134082Y-76948667D01*
X122101998Y-76974998D01*
X122078200Y-77003997D01*
X121562908Y-77519289D01*
X121530792Y-77421739D01*
X121258225Y-77290842D01*
X120965358Y-77215635D01*
X120663447Y-77199009D01*
X120364093Y-77241603D01*
X120078801Y-77341778D01*
X119929208Y-77421739D01*
X119845525Y-77675920D01*
X120730000Y-78560395D01*
X120744143Y-78546253D01*
X120923748Y-78725858D01*
X120909605Y-78740000D01*
X120923748Y-78754143D01*
X120744143Y-78933748D01*
X120730000Y-78919605D01*
X119845525Y-79804080D01*
X119929208Y-80058261D01*
X120201775Y-80189158D01*
X120494642Y-80264365D01*
X120796553Y-80280991D01*
X121095907Y-80238397D01*
X121195002Y-80203602D01*
X121195001Y-89629030D01*
X121165107Y-89556859D01*
X120876738Y-89125285D01*
X120509715Y-88758262D01*
X120078141Y-88469893D01*
X119598601Y-88271261D01*
X119089525Y-88170000D01*
X118570475Y-88170000D01*
X118061399Y-88271261D01*
X117581859Y-88469893D01*
X117150285Y-88758262D01*
X116783262Y-89125285D01*
X116494893Y-89556859D01*
X116296261Y-90036399D01*
X116195000Y-90545475D01*
X116195000Y-91064525D01*
X116296261Y-91573601D01*
X116494893Y-92053141D01*
X116783262Y-92484715D01*
X117150285Y-92851738D01*
X117581859Y-93140107D01*
X118061399Y-93338739D01*
X118570475Y-93440000D01*
X119089525Y-93440000D01*
X119598601Y-93338739D01*
X120078141Y-93140107D01*
X120509715Y-92851738D01*
X120876738Y-92484715D01*
X121165107Y-92053141D01*
X121195001Y-91980970D01*
X121195001Y-93977679D01*
X121191325Y-94015001D01*
X121195001Y-94052323D01*
X121195001Y-94052333D01*
X121205998Y-94163986D01*
X121249455Y-94307247D01*
X121320027Y-94439277D01*
X121359872Y-94487827D01*
X121415000Y-94555002D01*
X121444004Y-94578805D01*
X122670198Y-95804999D01*
X120179321Y-95804999D01*
X120141998Y-95801323D01*
X120104675Y-95804999D01*
X120104666Y-95804999D01*
X119993013Y-95815996D01*
X119849752Y-95859453D01*
X119717722Y-95930025D01*
X119661368Y-95976274D01*
X119601998Y-96024998D01*
X119578199Y-96053997D01*
X118993997Y-96638200D01*
X118964999Y-96661998D01*
X118941201Y-96690996D01*
X118941200Y-96690997D01*
X118870025Y-96777723D01*
X118799453Y-96909753D01*
X118796880Y-96918237D01*
X118755997Y-97053013D01*
X118745000Y-97164666D01*
X118741323Y-97201999D01*
X118745000Y-97239331D01*
X118744999Y-98340678D01*
X118741323Y-98378001D01*
X118744999Y-98415323D01*
X118744999Y-98415333D01*
X118755996Y-98526986D01*
X118794120Y-98652666D01*
X118799453Y-98670247D01*
X118870025Y-98802277D01*
X118900151Y-98838985D01*
X118964998Y-98918002D01*
X118994002Y-98941805D01*
X122041502Y-101989306D01*
X122041502Y-104289351D01*
X121815957Y-104138647D01*
X121367993Y-103953094D01*
X120892437Y-103858500D01*
X120407563Y-103858500D01*
X119932007Y-103953094D01*
X119484043Y-104138647D01*
X119080885Y-104408028D01*
X118738028Y-104750885D01*
X118468647Y-105154043D01*
X118283094Y-105602007D01*
X118188500Y-106077563D01*
X118188500Y-106562437D01*
X118283094Y-107037993D01*
X118468647Y-107485957D01*
X118738028Y-107889115D01*
X119080885Y-108231972D01*
X119484043Y-108501353D01*
X119932007Y-108686906D01*
X119950112Y-108690507D01*
X120650000Y-109390395D01*
X121349888Y-108690507D01*
X121367993Y-108686906D01*
X121815957Y-108501353D01*
X122041501Y-108350649D01*
X122041501Y-113073181D01*
X122037825Y-113110503D01*
X122041501Y-113147825D01*
X122041501Y-113147835D01*
X122052498Y-113259488D01*
X122085913Y-113369645D01*
X122095955Y-113402749D01*
X122166527Y-113534779D01*
X122187184Y-113559949D01*
X122261500Y-113650504D01*
X122290504Y-113674307D01*
X130899704Y-122283508D01*
X130764010Y-122486589D01*
X130652068Y-122756842D01*
X130595000Y-123043740D01*
X130595000Y-123336260D01*
X130652068Y-123623158D01*
X130764010Y-123893411D01*
X130926525Y-124136632D01*
X131133368Y-124343475D01*
X131307760Y-124460000D01*
X131133368Y-124576525D01*
X130926525Y-124783368D01*
X130764010Y-125026589D01*
X130652068Y-125296842D01*
X130595000Y-125583740D01*
X130595000Y-125876260D01*
X130638791Y-126096408D01*
X130495199Y-126240000D01*
X119388178Y-126240000D01*
X119263475Y-126053368D01*
X119056632Y-125846525D01*
X118813411Y-125684010D01*
X118543158Y-125572068D01*
X118256260Y-125515000D01*
X117963740Y-125515000D01*
X117676842Y-125572068D01*
X117406589Y-125684010D01*
X117163368Y-125846525D01*
X116956525Y-126053368D01*
X116794010Y-126296589D01*
X116682068Y-126566842D01*
X116625000Y-126853740D01*
X116625000Y-127146260D01*
X116682068Y-127433158D01*
X116794010Y-127703411D01*
X116956525Y-127946632D01*
X117163368Y-128153475D01*
X117337760Y-128270000D01*
X117163368Y-128386525D01*
X116956525Y-128593368D01*
X116794010Y-128836589D01*
X116682068Y-129106842D01*
X116625000Y-129393740D01*
X116625000Y-129686260D01*
X116682068Y-129973158D01*
X116794010Y-130243411D01*
X116956525Y-130486632D01*
X117163368Y-130693475D01*
X117337760Y-130810000D01*
X117163368Y-130926525D01*
X116956525Y-131133368D01*
X116794010Y-131376589D01*
X116682068Y-131646842D01*
X116625000Y-131933740D01*
X116625000Y-132226260D01*
X116682068Y-132513158D01*
X116794010Y-132783411D01*
X116956525Y-133026632D01*
X117088380Y-133158487D01*
X117015820Y-133180498D01*
X116905506Y-133239463D01*
X116808815Y-133318815D01*
X116729463Y-133415506D01*
X116670498Y-133525820D01*
X116634188Y-133645518D01*
X116621928Y-133770000D01*
X116621928Y-135470000D01*
X116634188Y-135594482D01*
X116670498Y-135714180D01*
X116729463Y-135824494D01*
X116808815Y-135921185D01*
X116905506Y-136000537D01*
X117015820Y-136059502D01*
X117135518Y-136095812D01*
X117260000Y-136108072D01*
X118960000Y-136108072D01*
X119084482Y-136095812D01*
X119204180Y-136059502D01*
X119314494Y-136000537D01*
X119411185Y-135921185D01*
X119490537Y-135824494D01*
X119549502Y-135714180D01*
X119585812Y-135594482D01*
X119598072Y-135470000D01*
X119598072Y-135380000D01*
X123895198Y-135380000D01*
X118476408Y-140798791D01*
X118256260Y-140755000D01*
X117963740Y-140755000D01*
X117676842Y-140812068D01*
X117406589Y-140924010D01*
X117163368Y-141086525D01*
X116956525Y-141293368D01*
X116794010Y-141536589D01*
X116682068Y-141806842D01*
X116625000Y-142093740D01*
X116625000Y-142386260D01*
X116682068Y-142673158D01*
X116794010Y-142943411D01*
X116956525Y-143186632D01*
X117163368Y-143393475D01*
X117337760Y-143510000D01*
X117163368Y-143626525D01*
X116956525Y-143833368D01*
X116794010Y-144076589D01*
X116682068Y-144346842D01*
X116625000Y-144633740D01*
X116625000Y-144926260D01*
X116682068Y-145213158D01*
X116794010Y-145483411D01*
X116956525Y-145726632D01*
X117163368Y-145933475D01*
X117337760Y-146050000D01*
X117163368Y-146166525D01*
X116956525Y-146373368D01*
X116794010Y-146616589D01*
X116682068Y-146886842D01*
X116625000Y-147173740D01*
X116625000Y-147466260D01*
X116682068Y-147753158D01*
X116794010Y-148023411D01*
X116956525Y-148266632D01*
X117088380Y-148398487D01*
X117015820Y-148420498D01*
X116905506Y-148479463D01*
X116808815Y-148558815D01*
X116729463Y-148655506D01*
X116670498Y-148765820D01*
X116634188Y-148885518D01*
X116621928Y-149010000D01*
X116621928Y-150710000D01*
X116634188Y-150834482D01*
X116670498Y-150954180D01*
X116729463Y-151064494D01*
X116808815Y-151161185D01*
X116905506Y-151240537D01*
X117015820Y-151299502D01*
X117135518Y-151335812D01*
X117260000Y-151348072D01*
X118960000Y-151348072D01*
X119084482Y-151335812D01*
X119204180Y-151299502D01*
X119314494Y-151240537D01*
X119411185Y-151161185D01*
X119490537Y-151064494D01*
X119549502Y-150954180D01*
X119585812Y-150834482D01*
X119598072Y-150710000D01*
X119598072Y-150620000D01*
X125692678Y-150620000D01*
X125730000Y-150623676D01*
X125767322Y-150620000D01*
X125767333Y-150620000D01*
X125878986Y-150609003D01*
X126022247Y-150565546D01*
X126154276Y-150494974D01*
X126270001Y-150400001D01*
X126293804Y-150370997D01*
X130595000Y-146069802D01*
X130595000Y-146177002D01*
X130759844Y-146177002D01*
X130638524Y-146406890D01*
X130683175Y-146554099D01*
X130808359Y-146816920D01*
X130982412Y-147050269D01*
X131198645Y-147245178D01*
X131315534Y-147314805D01*
X131133368Y-147436525D01*
X130926525Y-147643368D01*
X130764010Y-147886589D01*
X130652068Y-148156842D01*
X130595000Y-148443740D01*
X130595000Y-148736260D01*
X130652068Y-149023158D01*
X130764010Y-149293411D01*
X130926525Y-149536632D01*
X131133368Y-149743475D01*
X131307760Y-149860000D01*
X131133368Y-149976525D01*
X130926525Y-150183368D01*
X130764010Y-150426589D01*
X130652068Y-150696842D01*
X130595000Y-150983740D01*
X130595000Y-151276260D01*
X130652068Y-151563158D01*
X130764010Y-151833411D01*
X130926525Y-152076632D01*
X131058380Y-152208487D01*
X130985820Y-152230498D01*
X130875506Y-152289463D01*
X130778815Y-152368815D01*
X130699463Y-152465506D01*
X130640498Y-152575820D01*
X130604188Y-152695518D01*
X130591928Y-152820000D01*
X130591928Y-154520000D01*
X130604188Y-154644482D01*
X130640498Y-154764180D01*
X130699463Y-154874494D01*
X130778815Y-154971185D01*
X130875506Y-155050537D01*
X130985820Y-155109502D01*
X131105518Y-155145812D01*
X131230000Y-155158072D01*
X132930000Y-155158072D01*
X133054482Y-155145812D01*
X133174180Y-155109502D01*
X133284494Y-155050537D01*
X133381185Y-154971185D01*
X133400726Y-154947374D01*
X133465506Y-155000537D01*
X133575820Y-155059502D01*
X133695518Y-155095812D01*
X133820000Y-155108072D01*
X135420000Y-155108072D01*
X135544482Y-155095812D01*
X135664180Y-155059502D01*
X135774494Y-155000537D01*
X135871185Y-154921185D01*
X135950537Y-154824494D01*
X136009502Y-154714180D01*
X136045812Y-154594482D01*
X136058072Y-154470000D01*
X136058072Y-153528665D01*
X148425000Y-153528665D01*
X148425000Y-153811335D01*
X148480147Y-154088574D01*
X148588320Y-154349727D01*
X148745363Y-154584759D01*
X148945241Y-154784637D01*
X149180273Y-154941680D01*
X149441426Y-155049853D01*
X149718665Y-155105000D01*
X150001335Y-155105000D01*
X150278574Y-155049853D01*
X150539727Y-154941680D01*
X150774759Y-154784637D01*
X150923357Y-154636039D01*
X150924188Y-154644482D01*
X150960498Y-154764180D01*
X151019463Y-154874494D01*
X151098815Y-154971185D01*
X151195506Y-155050537D01*
X151305820Y-155109502D01*
X151425518Y-155145812D01*
X151550000Y-155158072D01*
X153250000Y-155158072D01*
X153374482Y-155145812D01*
X153494180Y-155109502D01*
X153604494Y-155050537D01*
X153701185Y-154971185D01*
X153780537Y-154874494D01*
X153839502Y-154764180D01*
X153875812Y-154644482D01*
X153888072Y-154520000D01*
X153888072Y-152820000D01*
X153875812Y-152695518D01*
X153839502Y-152575820D01*
X153780537Y-152465506D01*
X153701185Y-152368815D01*
X153604494Y-152289463D01*
X153494180Y-152230498D01*
X153413534Y-152206034D01*
X153497588Y-152130269D01*
X153671641Y-151896920D01*
X153796825Y-151634099D01*
X153841476Y-151486890D01*
X153720155Y-151257000D01*
X152527000Y-151257000D01*
X152527000Y-151277000D01*
X152273000Y-151277000D01*
X152273000Y-151257000D01*
X149987000Y-151257000D01*
X149987000Y-151277000D01*
X149733000Y-151277000D01*
X149733000Y-151257000D01*
X148590085Y-151257000D01*
X148468096Y-151479039D01*
X148508754Y-151613087D01*
X148628963Y-151867420D01*
X148796481Y-152093414D01*
X149004869Y-152282385D01*
X149190865Y-152393933D01*
X149180273Y-152398320D01*
X148945241Y-152555363D01*
X148745363Y-152755241D01*
X148588320Y-152990273D01*
X148480147Y-153251426D01*
X148425000Y-153528665D01*
X136058072Y-153528665D01*
X136058072Y-152870000D01*
X136045812Y-152745518D01*
X136009502Y-152625820D01*
X135950537Y-152515506D01*
X135871185Y-152418815D01*
X135774494Y-152339463D01*
X135664180Y-152280498D01*
X135544482Y-152244188D01*
X135536039Y-152243357D01*
X135734637Y-152044759D01*
X135891680Y-151809727D01*
X135999853Y-151548574D01*
X136055000Y-151271335D01*
X136055000Y-150988665D01*
X135999853Y-150711426D01*
X135891680Y-150450273D01*
X135734637Y-150215241D01*
X135534759Y-150015363D01*
X135302241Y-149860000D01*
X135534759Y-149704637D01*
X135734637Y-149504759D01*
X135838043Y-149350000D01*
X148641957Y-149350000D01*
X148745363Y-149504759D01*
X148945241Y-149704637D01*
X149180273Y-149861680D01*
X149190865Y-149866067D01*
X149004869Y-149977615D01*
X148796481Y-150166586D01*
X148628963Y-150392580D01*
X148508754Y-150646913D01*
X148468096Y-150780961D01*
X148590085Y-151003000D01*
X149733000Y-151003000D01*
X149733000Y-150983000D01*
X149987000Y-150983000D01*
X149987000Y-151003000D01*
X152273000Y-151003000D01*
X152273000Y-150983000D01*
X152527000Y-150983000D01*
X152527000Y-151003000D01*
X153720155Y-151003000D01*
X153841476Y-150773110D01*
X153796825Y-150625901D01*
X153671641Y-150363080D01*
X153497588Y-150129731D01*
X153281355Y-149934822D01*
X153164466Y-149865195D01*
X153346632Y-149743475D01*
X153553475Y-149536632D01*
X153715990Y-149293411D01*
X153827932Y-149023158D01*
X153885000Y-148736260D01*
X153885000Y-148443740D01*
X153827932Y-148156842D01*
X153715990Y-147886589D01*
X153553475Y-147643368D01*
X153346632Y-147436525D01*
X153172240Y-147320000D01*
X153346632Y-147203475D01*
X153553475Y-146996632D01*
X153715990Y-146753411D01*
X153827932Y-146483158D01*
X153885000Y-146196260D01*
X153885000Y-145903740D01*
X153827932Y-145616842D01*
X153715990Y-145346589D01*
X153553475Y-145103368D01*
X153346632Y-144896525D01*
X153172240Y-144780000D01*
X153346632Y-144663475D01*
X153553475Y-144456632D01*
X153715990Y-144213411D01*
X153827932Y-143943158D01*
X153885000Y-143656260D01*
X153885000Y-143363740D01*
X153841209Y-143143592D01*
X155115001Y-141869801D01*
X155115001Y-165315000D01*
X116185000Y-165315000D01*
X116185000Y-162779872D01*
X120765000Y-162779872D01*
X120765000Y-163220128D01*
X120850890Y-163651925D01*
X121019369Y-164058669D01*
X121263962Y-164424729D01*
X121575271Y-164736038D01*
X121941331Y-164980631D01*
X122348075Y-165149110D01*
X122779872Y-165235000D01*
X123220128Y-165235000D01*
X123651925Y-165149110D01*
X124058669Y-164980631D01*
X124424729Y-164736038D01*
X124736038Y-164424729D01*
X124980631Y-164058669D01*
X125149110Y-163651925D01*
X125235000Y-163220128D01*
X125235000Y-162779872D01*
X125149110Y-162348075D01*
X124980631Y-161941331D01*
X124736038Y-161575271D01*
X124424729Y-161263962D01*
X124058669Y-161019369D01*
X123651925Y-160850890D01*
X123220128Y-160765000D01*
X122779872Y-160765000D01*
X122348075Y-160850890D01*
X121941331Y-161019369D01*
X121575271Y-161263962D01*
X121263962Y-161575271D01*
X121019369Y-161941331D01*
X120850890Y-162348075D01*
X120765000Y-162779872D01*
X116185000Y-162779872D01*
X116185000Y-159873740D01*
X130595000Y-159873740D01*
X130595000Y-160166260D01*
X130652068Y-160453158D01*
X130764010Y-160723411D01*
X130926525Y-160966632D01*
X131133368Y-161173475D01*
X131307760Y-161290000D01*
X131133368Y-161406525D01*
X130926525Y-161613368D01*
X130764010Y-161856589D01*
X130652068Y-162126842D01*
X130595000Y-162413740D01*
X130595000Y-162706260D01*
X130652068Y-162993158D01*
X130764010Y-163263411D01*
X130926525Y-163506632D01*
X131133368Y-163713475D01*
X131376589Y-163875990D01*
X131646842Y-163987932D01*
X131933740Y-164045000D01*
X132226260Y-164045000D01*
X132513158Y-163987932D01*
X132783411Y-163875990D01*
X133026632Y-163713475D01*
X133233475Y-163506632D01*
X133350000Y-163332240D01*
X133466525Y-163506632D01*
X133673368Y-163713475D01*
X133916589Y-163875990D01*
X134186842Y-163987932D01*
X134473740Y-164045000D01*
X134766260Y-164045000D01*
X135053158Y-163987932D01*
X135323411Y-163875990D01*
X135566632Y-163713475D01*
X135773475Y-163506632D01*
X135890000Y-163332240D01*
X136006525Y-163506632D01*
X136213368Y-163713475D01*
X136456589Y-163875990D01*
X136726842Y-163987932D01*
X137013740Y-164045000D01*
X137306260Y-164045000D01*
X137593158Y-163987932D01*
X137863411Y-163875990D01*
X138106632Y-163713475D01*
X138313475Y-163506632D01*
X138435195Y-163324466D01*
X138504822Y-163441355D01*
X138699731Y-163657588D01*
X138933080Y-163831641D01*
X139195901Y-163956825D01*
X139343110Y-164001476D01*
X139573000Y-163880155D01*
X139573000Y-162687000D01*
X139553000Y-162687000D01*
X139553000Y-162433000D01*
X139573000Y-162433000D01*
X139573000Y-160147000D01*
X139553000Y-160147000D01*
X139553000Y-159893000D01*
X139573000Y-159893000D01*
X139573000Y-158699845D01*
X139827000Y-158699845D01*
X139827000Y-159893000D01*
X139847000Y-159893000D01*
X139847000Y-160147000D01*
X139827000Y-160147000D01*
X139827000Y-162433000D01*
X139847000Y-162433000D01*
X139847000Y-162687000D01*
X139827000Y-162687000D01*
X139827000Y-163880155D01*
X140056890Y-164001476D01*
X140204099Y-163956825D01*
X140466920Y-163831641D01*
X140700269Y-163657588D01*
X140895178Y-163441355D01*
X140964805Y-163324466D01*
X141086525Y-163506632D01*
X141293368Y-163713475D01*
X141536589Y-163875990D01*
X141806842Y-163987932D01*
X142093740Y-164045000D01*
X142386260Y-164045000D01*
X142673158Y-163987932D01*
X142943411Y-163875990D01*
X143186632Y-163713475D01*
X143393475Y-163506632D01*
X143510000Y-163332240D01*
X143626525Y-163506632D01*
X143833368Y-163713475D01*
X144076589Y-163875990D01*
X144346842Y-163987932D01*
X144633740Y-164045000D01*
X144926260Y-164045000D01*
X145213158Y-163987932D01*
X145483411Y-163875990D01*
X145726632Y-163713475D01*
X145933475Y-163506632D01*
X146050000Y-163332240D01*
X146166525Y-163506632D01*
X146373368Y-163713475D01*
X146616589Y-163875990D01*
X146886842Y-163987932D01*
X147173740Y-164045000D01*
X147466260Y-164045000D01*
X147753158Y-163987932D01*
X148023411Y-163875990D01*
X148266632Y-163713475D01*
X148398487Y-163581620D01*
X148420498Y-163654180D01*
X148479463Y-163764494D01*
X148558815Y-163861185D01*
X148655506Y-163940537D01*
X148765820Y-163999502D01*
X148885518Y-164035812D01*
X149010000Y-164048072D01*
X150710000Y-164048072D01*
X150834482Y-164035812D01*
X150954180Y-163999502D01*
X151064494Y-163940537D01*
X151161185Y-163861185D01*
X151240537Y-163764494D01*
X151299502Y-163654180D01*
X151335812Y-163534482D01*
X151348072Y-163410000D01*
X151348072Y-161710000D01*
X151335812Y-161585518D01*
X151299502Y-161465820D01*
X151240537Y-161355506D01*
X151186778Y-161290000D01*
X151240537Y-161224494D01*
X151299502Y-161114180D01*
X151335812Y-160994482D01*
X151348072Y-160870000D01*
X151348072Y-159170000D01*
X151335812Y-159045518D01*
X151299502Y-158925820D01*
X151240537Y-158815506D01*
X151161185Y-158718815D01*
X151064494Y-158639463D01*
X150954180Y-158580498D01*
X150834482Y-158544188D01*
X150710000Y-158531928D01*
X149010000Y-158531928D01*
X148885518Y-158544188D01*
X148765820Y-158580498D01*
X148655506Y-158639463D01*
X148558815Y-158718815D01*
X148479463Y-158815506D01*
X148420498Y-158925820D01*
X148398487Y-158998380D01*
X148266632Y-158866525D01*
X148023411Y-158704010D01*
X147753158Y-158592068D01*
X147466260Y-158535000D01*
X147173740Y-158535000D01*
X146886842Y-158592068D01*
X146616589Y-158704010D01*
X146373368Y-158866525D01*
X146166525Y-159073368D01*
X146050000Y-159247760D01*
X145933475Y-159073368D01*
X145726632Y-158866525D01*
X145483411Y-158704010D01*
X145213158Y-158592068D01*
X144926260Y-158535000D01*
X144633740Y-158535000D01*
X144346842Y-158592068D01*
X144076589Y-158704010D01*
X143833368Y-158866525D01*
X143626525Y-159073368D01*
X143510000Y-159247760D01*
X143393475Y-159073368D01*
X143186632Y-158866525D01*
X142943411Y-158704010D01*
X142673158Y-158592068D01*
X142386260Y-158535000D01*
X142093740Y-158535000D01*
X141806842Y-158592068D01*
X141536589Y-158704010D01*
X141293368Y-158866525D01*
X141086525Y-159073368D01*
X140964805Y-159255534D01*
X140895178Y-159138645D01*
X140700269Y-158922412D01*
X140466920Y-158748359D01*
X140204099Y-158623175D01*
X140056890Y-158578524D01*
X139827000Y-158699845D01*
X139573000Y-158699845D01*
X139343110Y-158578524D01*
X139195901Y-158623175D01*
X138933080Y-158748359D01*
X138699731Y-158922412D01*
X138504822Y-159138645D01*
X138435195Y-159255534D01*
X138313475Y-159073368D01*
X138106632Y-158866525D01*
X137863411Y-158704010D01*
X137593158Y-158592068D01*
X137306260Y-158535000D01*
X137013740Y-158535000D01*
X136726842Y-158592068D01*
X136456589Y-158704010D01*
X136213368Y-158866525D01*
X136006525Y-159073368D01*
X135890000Y-159247760D01*
X135773475Y-159073368D01*
X135566632Y-158866525D01*
X135323411Y-158704010D01*
X135053158Y-158592068D01*
X134766260Y-158535000D01*
X134473740Y-158535000D01*
X134186842Y-158592068D01*
X133916589Y-158704010D01*
X133673368Y-158866525D01*
X133466525Y-159073368D01*
X133350000Y-159247760D01*
X133233475Y-159073368D01*
X133026632Y-158866525D01*
X132783411Y-158704010D01*
X132513158Y-158592068D01*
X132226260Y-158535000D01*
X131933740Y-158535000D01*
X131646842Y-158592068D01*
X131376589Y-158704010D01*
X131133368Y-158866525D01*
X130926525Y-159073368D01*
X130764010Y-159316589D01*
X130652068Y-159586842D01*
X130595000Y-159873740D01*
X116185000Y-159873740D01*
X116185000Y-118577563D01*
X118188500Y-118577563D01*
X118188500Y-119062437D01*
X118283094Y-119537993D01*
X118468647Y-119985957D01*
X118738028Y-120389115D01*
X119080885Y-120731972D01*
X119484043Y-121001353D01*
X119932007Y-121186906D01*
X120407563Y-121281500D01*
X120892437Y-121281500D01*
X121367993Y-121186906D01*
X121815957Y-121001353D01*
X122219115Y-120731972D01*
X122561972Y-120389115D01*
X122831353Y-119985957D01*
X123016906Y-119537993D01*
X123111500Y-119062437D01*
X123111500Y-118577563D01*
X123016906Y-118102007D01*
X122831353Y-117654043D01*
X122561972Y-117250885D01*
X122219115Y-116908028D01*
X121815957Y-116638647D01*
X121570853Y-116537122D01*
X121686962Y-116421013D01*
X121833061Y-116202359D01*
X121933696Y-115959405D01*
X121940492Y-115925242D01*
X123700000Y-117684751D01*
X123700001Y-120431928D01*
X123610000Y-120431928D01*
X123485518Y-120444188D01*
X123365820Y-120480498D01*
X123255506Y-120539463D01*
X123158815Y-120618815D01*
X123079463Y-120715506D01*
X123020498Y-120825820D01*
X122984188Y-120945518D01*
X122971928Y-121070000D01*
X122971928Y-122770000D01*
X122984188Y-122894482D01*
X123020498Y-123014180D01*
X123079463Y-123124494D01*
X123158815Y-123221185D01*
X123255506Y-123300537D01*
X123365820Y-123359502D01*
X123485518Y-123395812D01*
X123610000Y-123408072D01*
X125310000Y-123408072D01*
X125434482Y-123395812D01*
X125554180Y-123359502D01*
X125664494Y-123300537D01*
X125761185Y-123221185D01*
X125840537Y-123124494D01*
X125899502Y-123014180D01*
X125935812Y-122894482D01*
X125948072Y-122770000D01*
X125948072Y-121070000D01*
X125935812Y-120945518D01*
X125899502Y-120825820D01*
X125840537Y-120715506D01*
X125761185Y-120618815D01*
X125664494Y-120539463D01*
X125554180Y-120480498D01*
X125434482Y-120444188D01*
X125310000Y-120431928D01*
X125220000Y-120431928D01*
X125220000Y-117407274D01*
X125223676Y-117369949D01*
X125220000Y-117332624D01*
X125220000Y-117332616D01*
X125209003Y-117220963D01*
X125165546Y-117077702D01*
X125094974Y-116945673D01*
X125000001Y-116829948D01*
X124971004Y-116806151D01*
X121636414Y-113471561D01*
X121686962Y-113421013D01*
X121833061Y-113202359D01*
X121933696Y-112959405D01*
X121985000Y-112701486D01*
X121985000Y-112438514D01*
X121933696Y-112180595D01*
X121833061Y-111937641D01*
X121686962Y-111718987D01*
X121501013Y-111533038D01*
X121282359Y-111386939D01*
X121039405Y-111286304D01*
X120781486Y-111235000D01*
X120518514Y-111235000D01*
X120260595Y-111286304D01*
X120017641Y-111386939D01*
X119798987Y-111533038D01*
X119613038Y-111718987D01*
X119466939Y-111937641D01*
X119366304Y-112180595D01*
X119315000Y-112438514D01*
X119315000Y-112701486D01*
X119366304Y-112959405D01*
X119466939Y-113202359D01*
X119613038Y-113421013D01*
X119798987Y-113606962D01*
X119897433Y-113672741D01*
X119900998Y-113708934D01*
X119944454Y-113852195D01*
X120015026Y-113984225D01*
X120086201Y-114070951D01*
X120110000Y-114099950D01*
X120138998Y-114123748D01*
X120294758Y-114279508D01*
X120260595Y-114286304D01*
X120017641Y-114386939D01*
X119798987Y-114533038D01*
X119613038Y-114718987D01*
X119466939Y-114937641D01*
X119366304Y-115180595D01*
X119315000Y-115438514D01*
X119315000Y-115701486D01*
X119366304Y-115959405D01*
X119466939Y-116202359D01*
X119613038Y-116421013D01*
X119729147Y-116537122D01*
X119484043Y-116638647D01*
X119080885Y-116908028D01*
X118738028Y-117250885D01*
X118468647Y-117654043D01*
X118283094Y-118102007D01*
X118188500Y-118577563D01*
X116185000Y-118577563D01*
X116185000Y-110491269D01*
X119908336Y-110491269D01*
X119967797Y-110725037D01*
X120206242Y-110835934D01*
X120461740Y-110898183D01*
X120724473Y-110909390D01*
X120984344Y-110869125D01*
X121231366Y-110778935D01*
X121332203Y-110725037D01*
X121391664Y-110491269D01*
X120650000Y-109749605D01*
X119908336Y-110491269D01*
X116185000Y-110491269D01*
X116185000Y-109644473D01*
X119310610Y-109644473D01*
X119350875Y-109904344D01*
X119441065Y-110151366D01*
X119494963Y-110252203D01*
X119728731Y-110311664D01*
X120470395Y-109570000D01*
X120829605Y-109570000D01*
X121571269Y-110311664D01*
X121805037Y-110252203D01*
X121915934Y-110013758D01*
X121978183Y-109758260D01*
X121989390Y-109495527D01*
X121949125Y-109235656D01*
X121858935Y-108988634D01*
X121805037Y-108887797D01*
X121571269Y-108828336D01*
X120829605Y-109570000D01*
X120470395Y-109570000D01*
X119728731Y-108828336D01*
X119494963Y-108887797D01*
X119384066Y-109126242D01*
X119321817Y-109381740D01*
X119310610Y-109644473D01*
X116185000Y-109644473D01*
X116185000Y-78806553D01*
X119189009Y-78806553D01*
X119231603Y-79105907D01*
X119331778Y-79391199D01*
X119411739Y-79540792D01*
X119665920Y-79624475D01*
X120550395Y-78740000D01*
X119665920Y-77855525D01*
X119411739Y-77939208D01*
X119280842Y-78211775D01*
X119205635Y-78504642D01*
X119189009Y-78806553D01*
X116185000Y-78806553D01*
X116185000Y-59756553D01*
X119189009Y-59756553D01*
X119231603Y-60055907D01*
X119331778Y-60341199D01*
X119411739Y-60490792D01*
X119665920Y-60574475D01*
X120550395Y-59690000D01*
X119665920Y-58805525D01*
X119411739Y-58889208D01*
X119280842Y-59161775D01*
X119205635Y-59454642D01*
X119189009Y-59756553D01*
X116185000Y-59756553D01*
X116185000Y-55748514D01*
X144715000Y-55748514D01*
X144715000Y-56011486D01*
X144766304Y-56269405D01*
X144866939Y-56512359D01*
X145013038Y-56731013D01*
X145198987Y-56916962D01*
X145417641Y-57063061D01*
X145660595Y-57163696D01*
X145918514Y-57215000D01*
X146181486Y-57215000D01*
X146439405Y-57163696D01*
X146682359Y-57063061D01*
X146901013Y-56916962D01*
X147086962Y-56731013D01*
X147233061Y-56512359D01*
X147333696Y-56269405D01*
X147385000Y-56011486D01*
X147385000Y-55748514D01*
X147333696Y-55490595D01*
X147233061Y-55247641D01*
X147086962Y-55028987D01*
X146901013Y-54843038D01*
X146682359Y-54696939D01*
X146439405Y-54596304D01*
X146181486Y-54545000D01*
X145918514Y-54545000D01*
X145660595Y-54596304D01*
X145417641Y-54696939D01*
X145198987Y-54843038D01*
X145013038Y-55028987D01*
X144866939Y-55247641D01*
X144766304Y-55490595D01*
X144715000Y-55748514D01*
X116185000Y-55748514D01*
X116185000Y-52445475D01*
X116195000Y-52445475D01*
X116195000Y-52964525D01*
X116296261Y-53473601D01*
X116494893Y-53953141D01*
X116783262Y-54384715D01*
X117150285Y-54751738D01*
X117581859Y-55040107D01*
X118061399Y-55238739D01*
X118570475Y-55340000D01*
X119089525Y-55340000D01*
X119598601Y-55238739D01*
X120078141Y-55040107D01*
X120509715Y-54751738D01*
X120876738Y-54384715D01*
X121165107Y-53953141D01*
X121363739Y-53473601D01*
X121465000Y-52964525D01*
X121465000Y-52445475D01*
X121462017Y-52430475D01*
X124995000Y-52430475D01*
X124995000Y-52949525D01*
X125096261Y-53458601D01*
X125294893Y-53938141D01*
X125583262Y-54369715D01*
X125950285Y-54736738D01*
X126381859Y-55025107D01*
X126861399Y-55223739D01*
X127370475Y-55325000D01*
X127889525Y-55325000D01*
X128398601Y-55223739D01*
X128878141Y-55025107D01*
X129309715Y-54736738D01*
X129676738Y-54369715D01*
X129965107Y-53938141D01*
X130163739Y-53458601D01*
X130213508Y-53208393D01*
X130266261Y-53473601D01*
X130464893Y-53953141D01*
X130753262Y-54384715D01*
X131120285Y-54751738D01*
X131551859Y-55040107D01*
X132031399Y-55238739D01*
X132540475Y-55340000D01*
X133059525Y-55340000D01*
X133568601Y-55238739D01*
X134048141Y-55040107D01*
X134479715Y-54751738D01*
X134846738Y-54384715D01*
X135135107Y-53953141D01*
X135333739Y-53473601D01*
X135435000Y-52964525D01*
X135435000Y-52445475D01*
X135432017Y-52430475D01*
X138965000Y-52430475D01*
X138965000Y-52949525D01*
X139066261Y-53458601D01*
X139264893Y-53938141D01*
X139553262Y-54369715D01*
X139920285Y-54736738D01*
X140351859Y-55025107D01*
X140831399Y-55223739D01*
X141340475Y-55325000D01*
X141859525Y-55325000D01*
X142368601Y-55223739D01*
X142848141Y-55025107D01*
X143279715Y-54736738D01*
X143646738Y-54369715D01*
X143935107Y-53938141D01*
X144133739Y-53458601D01*
X144230927Y-52970000D01*
X147051928Y-52970000D01*
X147064188Y-53094482D01*
X147100498Y-53214180D01*
X147159463Y-53324494D01*
X147238815Y-53421185D01*
X147335506Y-53500537D01*
X147445820Y-53559502D01*
X147565518Y-53595812D01*
X147690000Y-53608072D01*
X148304250Y-53605000D01*
X148463000Y-53446250D01*
X148463000Y-52197000D01*
X147213750Y-52197000D01*
X147055000Y-52355750D01*
X147051928Y-52970000D01*
X144230927Y-52970000D01*
X144235000Y-52949525D01*
X144235000Y-52430475D01*
X144133739Y-51921399D01*
X143935107Y-51441859D01*
X143753457Y-51170000D01*
X147051928Y-51170000D01*
X147055000Y-51784250D01*
X147213750Y-51943000D01*
X148463000Y-51943000D01*
X148463000Y-50693750D01*
X148717000Y-50693750D01*
X148717000Y-51943000D01*
X148737000Y-51943000D01*
X148737000Y-52197000D01*
X148717000Y-52197000D01*
X148717000Y-53446250D01*
X148875750Y-53605000D01*
X149490000Y-53608072D01*
X149614482Y-53595812D01*
X149734180Y-53559502D01*
X149844494Y-53500537D01*
X149941185Y-53421185D01*
X150020537Y-53324494D01*
X150079502Y-53214180D01*
X150085056Y-53195873D01*
X150151495Y-53262312D01*
X150402905Y-53430299D01*
X150682257Y-53546011D01*
X150978816Y-53605000D01*
X151281184Y-53605000D01*
X151577743Y-53546011D01*
X151857095Y-53430299D01*
X152108505Y-53262312D01*
X152322312Y-53048505D01*
X152490299Y-52797095D01*
X152606011Y-52517743D01*
X152665000Y-52221184D01*
X152665000Y-51918816D01*
X152606011Y-51622257D01*
X152490299Y-51342905D01*
X152322312Y-51091495D01*
X152108505Y-50877688D01*
X151857095Y-50709701D01*
X151577743Y-50593989D01*
X151281184Y-50535000D01*
X150978816Y-50535000D01*
X150682257Y-50593989D01*
X150402905Y-50709701D01*
X150151495Y-50877688D01*
X150085056Y-50944127D01*
X150079502Y-50925820D01*
X150020537Y-50815506D01*
X149941185Y-50718815D01*
X149844494Y-50639463D01*
X149734180Y-50580498D01*
X149614482Y-50544188D01*
X149490000Y-50531928D01*
X148875750Y-50535000D01*
X148717000Y-50693750D01*
X148463000Y-50693750D01*
X148304250Y-50535000D01*
X147690000Y-50531928D01*
X147565518Y-50544188D01*
X147445820Y-50580498D01*
X147335506Y-50639463D01*
X147238815Y-50718815D01*
X147159463Y-50815506D01*
X147100498Y-50925820D01*
X147064188Y-51045518D01*
X147051928Y-51170000D01*
X143753457Y-51170000D01*
X143646738Y-51010285D01*
X143279715Y-50643262D01*
X142848141Y-50354893D01*
X142368601Y-50156261D01*
X141859525Y-50055000D01*
X141340475Y-50055000D01*
X140831399Y-50156261D01*
X140351859Y-50354893D01*
X139920285Y-50643262D01*
X139553262Y-51010285D01*
X139264893Y-51441859D01*
X139066261Y-51921399D01*
X138965000Y-52430475D01*
X135432017Y-52430475D01*
X135333739Y-51936399D01*
X135135107Y-51456859D01*
X134846738Y-51025285D01*
X134479715Y-50658262D01*
X134048141Y-50369893D01*
X133568601Y-50171261D01*
X133059525Y-50070000D01*
X132540475Y-50070000D01*
X132031399Y-50171261D01*
X131551859Y-50369893D01*
X131120285Y-50658262D01*
X130753262Y-51025285D01*
X130464893Y-51456859D01*
X130266261Y-51936399D01*
X130216492Y-52186607D01*
X130163739Y-51921399D01*
X129965107Y-51441859D01*
X129676738Y-51010285D01*
X129309715Y-50643262D01*
X128878141Y-50354893D01*
X128398601Y-50156261D01*
X127889525Y-50055000D01*
X127370475Y-50055000D01*
X126861399Y-50156261D01*
X126381859Y-50354893D01*
X125950285Y-50643262D01*
X125583262Y-51010285D01*
X125294893Y-51441859D01*
X125096261Y-51921399D01*
X124995000Y-52430475D01*
X121462017Y-52430475D01*
X121363739Y-51936399D01*
X121165107Y-51456859D01*
X120876738Y-51025285D01*
X120509715Y-50658262D01*
X120078141Y-50369893D01*
X119598601Y-50171261D01*
X119089525Y-50070000D01*
X118570475Y-50070000D01*
X118061399Y-50171261D01*
X117581859Y-50369893D01*
X117150285Y-50658262D01*
X116783262Y-51025285D01*
X116494893Y-51456859D01*
X116296261Y-51936399D01*
X116195000Y-52445475D01*
X116185000Y-52445475D01*
X116185000Y-48128514D01*
X144715000Y-48128514D01*
X144715000Y-48391486D01*
X144766304Y-48649405D01*
X144866939Y-48892359D01*
X145013038Y-49111013D01*
X145198987Y-49296962D01*
X145417641Y-49443061D01*
X145660595Y-49543696D01*
X145918514Y-49595000D01*
X146181486Y-49595000D01*
X146439405Y-49543696D01*
X146682359Y-49443061D01*
X146901013Y-49296962D01*
X147086962Y-49111013D01*
X147233061Y-48892359D01*
X147333696Y-48649405D01*
X147385000Y-48391486D01*
X147385000Y-48128514D01*
X147333696Y-47870595D01*
X147233061Y-47627641D01*
X147086962Y-47408987D01*
X146901013Y-47223038D01*
X146682359Y-47076939D01*
X146439405Y-46976304D01*
X146181486Y-46925000D01*
X145918514Y-46925000D01*
X145660595Y-46976304D01*
X145417641Y-47076939D01*
X145198987Y-47223038D01*
X145013038Y-47408987D01*
X144866939Y-47627641D01*
X144766304Y-47870595D01*
X144715000Y-48128514D01*
X116185000Y-48128514D01*
X116185000Y-40279872D01*
X120765000Y-40279872D01*
X120765000Y-40720128D01*
X120850890Y-41151925D01*
X121019369Y-41558669D01*
X121263962Y-41924729D01*
X121575271Y-42236038D01*
X121941331Y-42480631D01*
X122348075Y-42649110D01*
X122779872Y-42735000D01*
X123220128Y-42735000D01*
X123651925Y-42649110D01*
X124058669Y-42480631D01*
X124424729Y-42236038D01*
X124736038Y-41924729D01*
X124980631Y-41558669D01*
X125149110Y-41151925D01*
X125235000Y-40720128D01*
X125235000Y-40279872D01*
X125149110Y-39848075D01*
X124980631Y-39441331D01*
X124736038Y-39075271D01*
X124424729Y-38763962D01*
X124058669Y-38519369D01*
X123651925Y-38350890D01*
X123220128Y-38265000D01*
X122779872Y-38265000D01*
X122348075Y-38350890D01*
X121941331Y-38519369D01*
X121575271Y-38763962D01*
X121263962Y-39075271D01*
X121019369Y-39441331D01*
X120850890Y-39848075D01*
X120765000Y-40279872D01*
X116185000Y-40279872D01*
X116185000Y-38185000D01*
X155115000Y-38185000D01*
X155115001Y-109842376D01*
G37*
X155115001Y-109842376D02*
X143776627Y-98504004D01*
X143752824Y-98475000D01*
X143637099Y-98380027D01*
X143505070Y-98309455D01*
X143361809Y-98265998D01*
X143250156Y-98255001D01*
X143250145Y-98255001D01*
X143212823Y-98251325D01*
X143175501Y-98255001D01*
X141168862Y-98255001D01*
X141176011Y-98237743D01*
X141235000Y-97941184D01*
X141235000Y-97638816D01*
X141176011Y-97342257D01*
X141060299Y-97062905D01*
X140892312Y-96811495D01*
X140678505Y-96597688D01*
X140427095Y-96429701D01*
X140147743Y-96313989D01*
X139851184Y-96255000D01*
X139548816Y-96255000D01*
X139252257Y-96313989D01*
X138972905Y-96429701D01*
X138721495Y-96597688D01*
X138507688Y-96811495D01*
X138450000Y-96897831D01*
X138392312Y-96811495D01*
X138178505Y-96597688D01*
X137927095Y-96429701D01*
X137647743Y-96313989D01*
X137351184Y-96255000D01*
X137048816Y-96255000D01*
X136752257Y-96313989D01*
X136685001Y-96341847D01*
X136685001Y-90530475D01*
X138965000Y-90530475D01*
X138965000Y-91049525D01*
X139066261Y-91558601D01*
X139264893Y-92038141D01*
X139553262Y-92469715D01*
X139920285Y-92836738D01*
X140351859Y-93125107D01*
X140831399Y-93323739D01*
X141340475Y-93425000D01*
X141859525Y-93425000D01*
X142368601Y-93323739D01*
X142848141Y-93125107D01*
X143279715Y-92836738D01*
X143646738Y-92469715D01*
X143935107Y-92038141D01*
X144133739Y-91558601D01*
X144235000Y-91049525D01*
X144235000Y-90530475D01*
X144133739Y-90021399D01*
X143935107Y-89541859D01*
X143646738Y-89110285D01*
X143279715Y-88743262D01*
X142848141Y-88454893D01*
X142368601Y-88256261D01*
X141859525Y-88155000D01*
X141340475Y-88155000D01*
X140831399Y-88256261D01*
X140351859Y-88454893D01*
X139920285Y-88743262D01*
X139553262Y-89110285D01*
X139264893Y-89541859D01*
X139066261Y-90021399D01*
X138965000Y-90530475D01*
X136685001Y-90530475D01*
X136685001Y-80329800D01*
X136791070Y-80223731D01*
X137048816Y-80275000D01*
X137351184Y-80275000D01*
X137647743Y-80216011D01*
X137927095Y-80100299D01*
X138178505Y-79932312D01*
X138392312Y-79718505D01*
X138450000Y-79632169D01*
X138507688Y-79718505D01*
X138721495Y-79932312D01*
X138972905Y-80100299D01*
X139252257Y-80216011D01*
X139548816Y-80275000D01*
X139851184Y-80275000D01*
X140147743Y-80216011D01*
X140427095Y-80100299D01*
X140678505Y-79932312D01*
X140892312Y-79718505D01*
X141060299Y-79467095D01*
X141176011Y-79187743D01*
X141235000Y-78891184D01*
X141235000Y-78588816D01*
X141176011Y-78292257D01*
X141060299Y-78012905D01*
X140892312Y-77761495D01*
X140678505Y-77547688D01*
X140427095Y-77379701D01*
X140147743Y-77263989D01*
X139851184Y-77205000D01*
X139548816Y-77205000D01*
X139252257Y-77263989D01*
X138972905Y-77379701D01*
X138721495Y-77547688D01*
X138507688Y-77761495D01*
X138450000Y-77847831D01*
X138392312Y-77761495D01*
X138178505Y-77547688D01*
X137927095Y-77379701D01*
X137647743Y-77263989D01*
X137351184Y-77205000D01*
X137048816Y-77205000D01*
X136752257Y-77263989D01*
X136472905Y-77379701D01*
X136221495Y-77547688D01*
X136007688Y-77761495D01*
X135912262Y-77904310D01*
X135764080Y-77855525D01*
X134879605Y-78740000D01*
X134893748Y-78754143D01*
X134714143Y-78933748D01*
X134700000Y-78919605D01*
X134685858Y-78933748D01*
X134506253Y-78754143D01*
X134520395Y-78740000D01*
X134506253Y-78725858D01*
X134685858Y-78546253D01*
X134700000Y-78560395D01*
X135584475Y-77675920D01*
X135500792Y-77421739D01*
X135351673Y-77350126D01*
X137711003Y-74990797D01*
X137740001Y-74966999D01*
X137766332Y-74934915D01*
X137834974Y-74851275D01*
X137863175Y-74798514D01*
X144715000Y-74798514D01*
X144715000Y-75061486D01*
X144766304Y-75319405D01*
X144866939Y-75562359D01*
X145013038Y-75781013D01*
X145198987Y-75966962D01*
X145417641Y-76113061D01*
X145660595Y-76213696D01*
X145918514Y-76265000D01*
X146181486Y-76265000D01*
X146439405Y-76213696D01*
X146682359Y-76113061D01*
X146901013Y-75966962D01*
X147086962Y-75781013D01*
X147233061Y-75562359D01*
X147333696Y-75319405D01*
X147385000Y-75061486D01*
X147385000Y-74798514D01*
X147333696Y-74540595D01*
X147233061Y-74297641D01*
X147086962Y-74078987D01*
X146901013Y-73893038D01*
X146682359Y-73746939D01*
X146439405Y-73646304D01*
X146181486Y-73595000D01*
X145918514Y-73595000D01*
X145660595Y-73646304D01*
X145417641Y-73746939D01*
X145198987Y-73893038D01*
X145013038Y-74078987D01*
X144866939Y-74297641D01*
X144766304Y-74540595D01*
X144715000Y-74798514D01*
X137863175Y-74798514D01*
X137905546Y-74719245D01*
X137905546Y-74719244D01*
X137949003Y-74575984D01*
X137960000Y-74464331D01*
X137960000Y-74464321D01*
X137963676Y-74426998D01*
X137960000Y-74389675D01*
X137960000Y-71480475D01*
X138965000Y-71480475D01*
X138965000Y-71999525D01*
X139066261Y-72508601D01*
X139264893Y-72988141D01*
X139553262Y-73419715D01*
X139920285Y-73786738D01*
X140351859Y-74075107D01*
X140831399Y-74273739D01*
X141340475Y-74375000D01*
X141859525Y-74375000D01*
X142368601Y-74273739D01*
X142848141Y-74075107D01*
X143279715Y-73786738D01*
X143646738Y-73419715D01*
X143935107Y-72988141D01*
X144133739Y-72508601D01*
X144230927Y-72020000D01*
X147051928Y-72020000D01*
X147064188Y-72144482D01*
X147100498Y-72264180D01*
X147159463Y-72374494D01*
X147238815Y-72471185D01*
X147335506Y-72550537D01*
X147445820Y-72609502D01*
X147565518Y-72645812D01*
X147690000Y-72658072D01*
X148304250Y-72655000D01*
X148463000Y-72496250D01*
X148463000Y-71247000D01*
X147213750Y-71247000D01*
X147055000Y-71405750D01*
X147051928Y-72020000D01*
X144230927Y-72020000D01*
X144235000Y-71999525D01*
X144235000Y-71480475D01*
X144133739Y-70971399D01*
X143935107Y-70491859D01*
X143753457Y-70220000D01*
X147051928Y-70220000D01*
X147055000Y-70834250D01*
X147213750Y-70993000D01*
X148463000Y-70993000D01*
X148463000Y-69743750D01*
X148717000Y-69743750D01*
X148717000Y-70993000D01*
X148737000Y-70993000D01*
X148737000Y-71247000D01*
X148717000Y-71247000D01*
X148717000Y-72496250D01*
X148875750Y-72655000D01*
X149490000Y-72658072D01*
X149614482Y-72645812D01*
X149734180Y-72609502D01*
X149844494Y-72550537D01*
X149941185Y-72471185D01*
X150020537Y-72374494D01*
X150079502Y-72264180D01*
X150085056Y-72245873D01*
X150151495Y-72312312D01*
X150402905Y-72480299D01*
X150682257Y-72596011D01*
X150978816Y-72655000D01*
X151281184Y-72655000D01*
X151577743Y-72596011D01*
X151857095Y-72480299D01*
X152108505Y-72312312D01*
X152322312Y-72098505D01*
X152490299Y-71847095D01*
X152606011Y-71567743D01*
X152665000Y-71271184D01*
X152665000Y-70968816D01*
X152606011Y-70672257D01*
X152490299Y-70392905D01*
X152322312Y-70141495D01*
X152108505Y-69927688D01*
X151857095Y-69759701D01*
X151577743Y-69643989D01*
X151281184Y-69585000D01*
X150978816Y-69585000D01*
X150682257Y-69643989D01*
X150402905Y-69759701D01*
X150151495Y-69927688D01*
X150085056Y-69994127D01*
X150079502Y-69975820D01*
X150020537Y-69865506D01*
X149941185Y-69768815D01*
X149844494Y-69689463D01*
X149734180Y-69630498D01*
X149614482Y-69594188D01*
X149490000Y-69581928D01*
X148875750Y-69585000D01*
X148717000Y-69743750D01*
X148463000Y-69743750D01*
X148304250Y-69585000D01*
X147690000Y-69581928D01*
X147565518Y-69594188D01*
X147445820Y-69630498D01*
X147335506Y-69689463D01*
X147238815Y-69768815D01*
X147159463Y-69865506D01*
X147100498Y-69975820D01*
X147064188Y-70095518D01*
X147051928Y-70220000D01*
X143753457Y-70220000D01*
X143646738Y-70060285D01*
X143279715Y-69693262D01*
X142848141Y-69404893D01*
X142368601Y-69206261D01*
X141859525Y-69105000D01*
X141340475Y-69105000D01*
X140831399Y-69206261D01*
X140351859Y-69404893D01*
X139920285Y-69693262D01*
X139553262Y-70060285D01*
X139264893Y-70491859D01*
X139066261Y-70971399D01*
X138965000Y-71480475D01*
X137960000Y-71480475D01*
X137960000Y-67178514D01*
X144715000Y-67178514D01*
X144715000Y-67441486D01*
X144766304Y-67699405D01*
X144866939Y-67942359D01*
X145013038Y-68161013D01*
X145198987Y-68346962D01*
X145417641Y-68493061D01*
X145660595Y-68593696D01*
X145918514Y-68645000D01*
X146181486Y-68645000D01*
X146439405Y-68593696D01*
X146682359Y-68493061D01*
X146901013Y-68346962D01*
X147086962Y-68161013D01*
X147233061Y-67942359D01*
X147333696Y-67699405D01*
X147385000Y-67441486D01*
X147385000Y-67178514D01*
X147333696Y-66920595D01*
X147233061Y-66677641D01*
X147086962Y-66458987D01*
X146901013Y-66273038D01*
X146682359Y-66126939D01*
X146439405Y-66026304D01*
X146181486Y-65975000D01*
X145918514Y-65975000D01*
X145660595Y-66026304D01*
X145417641Y-66126939D01*
X145198987Y-66273038D01*
X145013038Y-66458987D01*
X144866939Y-66677641D01*
X144766304Y-66920595D01*
X144715000Y-67178514D01*
X137960000Y-67178514D01*
X137960000Y-61028313D01*
X138178505Y-60882312D01*
X138392312Y-60668505D01*
X138450000Y-60582169D01*
X138507688Y-60668505D01*
X138721495Y-60882312D01*
X138972905Y-61050299D01*
X139252257Y-61166011D01*
X139548816Y-61225000D01*
X139851184Y-61225000D01*
X140147743Y-61166011D01*
X140427095Y-61050299D01*
X140678505Y-60882312D01*
X140892312Y-60668505D01*
X141060299Y-60417095D01*
X141176011Y-60137743D01*
X141235000Y-59841184D01*
X141235000Y-59538816D01*
X141176011Y-59242257D01*
X141060299Y-58962905D01*
X140892312Y-58711495D01*
X140678505Y-58497688D01*
X140427095Y-58329701D01*
X140147743Y-58213989D01*
X139851184Y-58155000D01*
X139548816Y-58155000D01*
X139291070Y-58206269D01*
X139038803Y-57954002D01*
X139015000Y-57924998D01*
X138899275Y-57830025D01*
X138767246Y-57759453D01*
X138623985Y-57715996D01*
X138512332Y-57704999D01*
X138512321Y-57704999D01*
X138474999Y-57701323D01*
X138437677Y-57704999D01*
X126992323Y-57704999D01*
X126955000Y-57701323D01*
X126917677Y-57704999D01*
X126917668Y-57704999D01*
X126806015Y-57715996D01*
X126662754Y-57759453D01*
X126530724Y-57830025D01*
X126447084Y-57898667D01*
X126415000Y-57924998D01*
X126391202Y-57953996D01*
X126138930Y-58206269D01*
X125881184Y-58155000D01*
X125578816Y-58155000D01*
X125321070Y-58206269D01*
X125068803Y-57954002D01*
X125045000Y-57924998D01*
X124929275Y-57830025D01*
X124797246Y-57759453D01*
X124653985Y-57715996D01*
X124542332Y-57704999D01*
X124542321Y-57704999D01*
X124504999Y-57701323D01*
X124467677Y-57704999D01*
X122679321Y-57704999D01*
X122641998Y-57701323D01*
X122604675Y-57704999D01*
X122604666Y-57704999D01*
X122493013Y-57715996D01*
X122349752Y-57759453D01*
X122217722Y-57830025D01*
X122134082Y-57898667D01*
X122101998Y-57924998D01*
X122078199Y-57953997D01*
X121562908Y-58469289D01*
X121530792Y-58371739D01*
X121258225Y-58240842D01*
X120965358Y-58165635D01*
X120663447Y-58149009D01*
X120364093Y-58191603D01*
X120078801Y-58291778D01*
X119929208Y-58371739D01*
X119845525Y-58625920D01*
X120730000Y-59510395D01*
X120744143Y-59496253D01*
X120923748Y-59675858D01*
X120909605Y-59690000D01*
X120923748Y-59704143D01*
X120744143Y-59883748D01*
X120730000Y-59869605D01*
X119845525Y-60754080D01*
X119929208Y-61008261D01*
X120201775Y-61139158D01*
X120494642Y-61214365D01*
X120796553Y-61230991D01*
X121095907Y-61188397D01*
X121245000Y-61136046D01*
X121244999Y-70699736D01*
X121165107Y-70506859D01*
X120876738Y-70075285D01*
X120509715Y-69708262D01*
X120078141Y-69419893D01*
X119598601Y-69221261D01*
X119089525Y-69120000D01*
X118570475Y-69120000D01*
X118061399Y-69221261D01*
X117581859Y-69419893D01*
X117150285Y-69708262D01*
X116783262Y-70075285D01*
X116494893Y-70506859D01*
X116296261Y-70986399D01*
X116195000Y-71495475D01*
X116195000Y-72014525D01*
X116296261Y-72523601D01*
X116494893Y-73003141D01*
X116783262Y-73434715D01*
X117150285Y-73801738D01*
X117581859Y-74090107D01*
X118061399Y-74288739D01*
X118570475Y-74390000D01*
X119089525Y-74390000D01*
X119598601Y-74288739D01*
X120078141Y-74090107D01*
X120509715Y-73801738D01*
X120876738Y-73434715D01*
X121165107Y-73003141D01*
X121244999Y-72810264D01*
X121244999Y-74977677D01*
X121241323Y-75014999D01*
X121244999Y-75052321D01*
X121244999Y-75052331D01*
X121255996Y-75163984D01*
X121299453Y-75307245D01*
X121370025Y-75439275D01*
X121409870Y-75487825D01*
X121464998Y-75555000D01*
X121494002Y-75578803D01*
X122669201Y-76754002D01*
X122641999Y-76751323D01*
X122604676Y-76754999D01*
X122604666Y-76754999D01*
X122493013Y-76765996D01*
X122349752Y-76809453D01*
X122217722Y-76880025D01*
X122134082Y-76948667D01*
X122101998Y-76974998D01*
X122078200Y-77003997D01*
X121562908Y-77519289D01*
X121530792Y-77421739D01*
X121258225Y-77290842D01*
X120965358Y-77215635D01*
X120663447Y-77199009D01*
X120364093Y-77241603D01*
X120078801Y-77341778D01*
X119929208Y-77421739D01*
X119845525Y-77675920D01*
X120730000Y-78560395D01*
X120744143Y-78546253D01*
X120923748Y-78725858D01*
X120909605Y-78740000D01*
X120923748Y-78754143D01*
X120744143Y-78933748D01*
X120730000Y-78919605D01*
X119845525Y-79804080D01*
X119929208Y-80058261D01*
X120201775Y-80189158D01*
X120494642Y-80264365D01*
X120796553Y-80280991D01*
X121095907Y-80238397D01*
X121195002Y-80203602D01*
X121195001Y-89629030D01*
X121165107Y-89556859D01*
X120876738Y-89125285D01*
X120509715Y-88758262D01*
X120078141Y-88469893D01*
X119598601Y-88271261D01*
X119089525Y-88170000D01*
X118570475Y-88170000D01*
X118061399Y-88271261D01*
X117581859Y-88469893D01*
X117150285Y-88758262D01*
X116783262Y-89125285D01*
X116494893Y-89556859D01*
X116296261Y-90036399D01*
X116195000Y-90545475D01*
X116195000Y-91064525D01*
X116296261Y-91573601D01*
X116494893Y-92053141D01*
X116783262Y-92484715D01*
X117150285Y-92851738D01*
X117581859Y-93140107D01*
X118061399Y-93338739D01*
X118570475Y-93440000D01*
X119089525Y-93440000D01*
X119598601Y-93338739D01*
X120078141Y-93140107D01*
X120509715Y-92851738D01*
X120876738Y-92484715D01*
X121165107Y-92053141D01*
X121195001Y-91980970D01*
X121195001Y-93977679D01*
X121191325Y-94015001D01*
X121195001Y-94052323D01*
X121195001Y-94052333D01*
X121205998Y-94163986D01*
X121249455Y-94307247D01*
X121320027Y-94439277D01*
X121359872Y-94487827D01*
X121415000Y-94555002D01*
X121444004Y-94578805D01*
X122670198Y-95804999D01*
X120179321Y-95804999D01*
X120141998Y-95801323D01*
X120104675Y-95804999D01*
X120104666Y-95804999D01*
X119993013Y-95815996D01*
X119849752Y-95859453D01*
X119717722Y-95930025D01*
X119661368Y-95976274D01*
X119601998Y-96024998D01*
X119578199Y-96053997D01*
X118993997Y-96638200D01*
X118964999Y-96661998D01*
X118941201Y-96690996D01*
X118941200Y-96690997D01*
X118870025Y-96777723D01*
X118799453Y-96909753D01*
X118796880Y-96918237D01*
X118755997Y-97053013D01*
X118745000Y-97164666D01*
X118741323Y-97201999D01*
X118745000Y-97239331D01*
X118744999Y-98340678D01*
X118741323Y-98378001D01*
X118744999Y-98415323D01*
X118744999Y-98415333D01*
X118755996Y-98526986D01*
X118794120Y-98652666D01*
X118799453Y-98670247D01*
X118870025Y-98802277D01*
X118900151Y-98838985D01*
X118964998Y-98918002D01*
X118994002Y-98941805D01*
X122041502Y-101989306D01*
X122041502Y-104289351D01*
X121815957Y-104138647D01*
X121367993Y-103953094D01*
X120892437Y-103858500D01*
X120407563Y-103858500D01*
X119932007Y-103953094D01*
X119484043Y-104138647D01*
X119080885Y-104408028D01*
X118738028Y-104750885D01*
X118468647Y-105154043D01*
X118283094Y-105602007D01*
X118188500Y-106077563D01*
X118188500Y-106562437D01*
X118283094Y-107037993D01*
X118468647Y-107485957D01*
X118738028Y-107889115D01*
X119080885Y-108231972D01*
X119484043Y-108501353D01*
X119932007Y-108686906D01*
X119950112Y-108690507D01*
X120650000Y-109390395D01*
X121349888Y-108690507D01*
X121367993Y-108686906D01*
X121815957Y-108501353D01*
X122041501Y-108350649D01*
X122041501Y-113073181D01*
X122037825Y-113110503D01*
X122041501Y-113147825D01*
X122041501Y-113147835D01*
X122052498Y-113259488D01*
X122085913Y-113369645D01*
X122095955Y-113402749D01*
X122166527Y-113534779D01*
X122187184Y-113559949D01*
X122261500Y-113650504D01*
X122290504Y-113674307D01*
X130899704Y-122283508D01*
X130764010Y-122486589D01*
X130652068Y-122756842D01*
X130595000Y-123043740D01*
X130595000Y-123336260D01*
X130652068Y-123623158D01*
X130764010Y-123893411D01*
X130926525Y-124136632D01*
X131133368Y-124343475D01*
X131307760Y-124460000D01*
X131133368Y-124576525D01*
X130926525Y-124783368D01*
X130764010Y-125026589D01*
X130652068Y-125296842D01*
X130595000Y-125583740D01*
X130595000Y-125876260D01*
X130638791Y-126096408D01*
X130495199Y-126240000D01*
X119388178Y-126240000D01*
X119263475Y-126053368D01*
X119056632Y-125846525D01*
X118813411Y-125684010D01*
X118543158Y-125572068D01*
X118256260Y-125515000D01*
X117963740Y-125515000D01*
X117676842Y-125572068D01*
X117406589Y-125684010D01*
X117163368Y-125846525D01*
X116956525Y-126053368D01*
X116794010Y-126296589D01*
X116682068Y-126566842D01*
X116625000Y-126853740D01*
X116625000Y-127146260D01*
X116682068Y-127433158D01*
X116794010Y-127703411D01*
X116956525Y-127946632D01*
X117163368Y-128153475D01*
X117337760Y-128270000D01*
X117163368Y-128386525D01*
X116956525Y-128593368D01*
X116794010Y-128836589D01*
X116682068Y-129106842D01*
X116625000Y-129393740D01*
X116625000Y-129686260D01*
X116682068Y-129973158D01*
X116794010Y-130243411D01*
X116956525Y-130486632D01*
X117163368Y-130693475D01*
X117337760Y-130810000D01*
X117163368Y-130926525D01*
X116956525Y-131133368D01*
X116794010Y-131376589D01*
X116682068Y-131646842D01*
X116625000Y-131933740D01*
X116625000Y-132226260D01*
X116682068Y-132513158D01*
X116794010Y-132783411D01*
X116956525Y-133026632D01*
X117088380Y-133158487D01*
X117015820Y-133180498D01*
X116905506Y-133239463D01*
X116808815Y-133318815D01*
X116729463Y-133415506D01*
X116670498Y-133525820D01*
X116634188Y-133645518D01*
X116621928Y-133770000D01*
X116621928Y-135470000D01*
X116634188Y-135594482D01*
X116670498Y-135714180D01*
X116729463Y-135824494D01*
X116808815Y-135921185D01*
X116905506Y-136000537D01*
X117015820Y-136059502D01*
X117135518Y-136095812D01*
X117260000Y-136108072D01*
X118960000Y-136108072D01*
X119084482Y-136095812D01*
X119204180Y-136059502D01*
X119314494Y-136000537D01*
X119411185Y-135921185D01*
X119490537Y-135824494D01*
X119549502Y-135714180D01*
X119585812Y-135594482D01*
X119598072Y-135470000D01*
X119598072Y-135380000D01*
X123895198Y-135380000D01*
X118476408Y-140798791D01*
X118256260Y-140755000D01*
X117963740Y-140755000D01*
X117676842Y-140812068D01*
X117406589Y-140924010D01*
X117163368Y-141086525D01*
X116956525Y-141293368D01*
X116794010Y-141536589D01*
X116682068Y-141806842D01*
X116625000Y-142093740D01*
X116625000Y-142386260D01*
X116682068Y-142673158D01*
X116794010Y-142943411D01*
X116956525Y-143186632D01*
X117163368Y-143393475D01*
X117337760Y-143510000D01*
X117163368Y-143626525D01*
X116956525Y-143833368D01*
X116794010Y-144076589D01*
X116682068Y-144346842D01*
X116625000Y-144633740D01*
X116625000Y-144926260D01*
X116682068Y-145213158D01*
X116794010Y-145483411D01*
X116956525Y-145726632D01*
X117163368Y-145933475D01*
X117337760Y-146050000D01*
X117163368Y-146166525D01*
X116956525Y-146373368D01*
X116794010Y-146616589D01*
X116682068Y-146886842D01*
X116625000Y-147173740D01*
X116625000Y-147466260D01*
X116682068Y-147753158D01*
X116794010Y-148023411D01*
X116956525Y-148266632D01*
X117088380Y-148398487D01*
X117015820Y-148420498D01*
X116905506Y-148479463D01*
X116808815Y-148558815D01*
X116729463Y-148655506D01*
X116670498Y-148765820D01*
X116634188Y-148885518D01*
X116621928Y-149010000D01*
X116621928Y-150710000D01*
X116634188Y-150834482D01*
X116670498Y-150954180D01*
X116729463Y-151064494D01*
X116808815Y-151161185D01*
X116905506Y-151240537D01*
X117015820Y-151299502D01*
X117135518Y-151335812D01*
X117260000Y-151348072D01*
X118960000Y-151348072D01*
X119084482Y-151335812D01*
X119204180Y-151299502D01*
X119314494Y-151240537D01*
X119411185Y-151161185D01*
X119490537Y-151064494D01*
X119549502Y-150954180D01*
X119585812Y-150834482D01*
X119598072Y-150710000D01*
X119598072Y-150620000D01*
X125692678Y-150620000D01*
X125730000Y-150623676D01*
X125767322Y-150620000D01*
X125767333Y-150620000D01*
X125878986Y-150609003D01*
X126022247Y-150565546D01*
X126154276Y-150494974D01*
X126270001Y-150400001D01*
X126293804Y-150370997D01*
X130595000Y-146069802D01*
X130595000Y-146177002D01*
X130759844Y-146177002D01*
X130638524Y-146406890D01*
X130683175Y-146554099D01*
X130808359Y-146816920D01*
X130982412Y-147050269D01*
X131198645Y-147245178D01*
X131315534Y-147314805D01*
X131133368Y-147436525D01*
X130926525Y-147643368D01*
X130764010Y-147886589D01*
X130652068Y-148156842D01*
X130595000Y-148443740D01*
X130595000Y-148736260D01*
X130652068Y-149023158D01*
X130764010Y-149293411D01*
X130926525Y-149536632D01*
X131133368Y-149743475D01*
X131307760Y-149860000D01*
X131133368Y-149976525D01*
X130926525Y-150183368D01*
X130764010Y-150426589D01*
X130652068Y-150696842D01*
X130595000Y-150983740D01*
X130595000Y-151276260D01*
X130652068Y-151563158D01*
X130764010Y-151833411D01*
X130926525Y-152076632D01*
X131058380Y-152208487D01*
X130985820Y-152230498D01*
X130875506Y-152289463D01*
X130778815Y-152368815D01*
X130699463Y-152465506D01*
X130640498Y-152575820D01*
X130604188Y-152695518D01*
X130591928Y-152820000D01*
X130591928Y-154520000D01*
X130604188Y-154644482D01*
X130640498Y-154764180D01*
X130699463Y-154874494D01*
X130778815Y-154971185D01*
X130875506Y-155050537D01*
X130985820Y-155109502D01*
X131105518Y-155145812D01*
X131230000Y-155158072D01*
X132930000Y-155158072D01*
X133054482Y-155145812D01*
X133174180Y-155109502D01*
X133284494Y-155050537D01*
X133381185Y-154971185D01*
X133400726Y-154947374D01*
X133465506Y-155000537D01*
X133575820Y-155059502D01*
X133695518Y-155095812D01*
X133820000Y-155108072D01*
X135420000Y-155108072D01*
X135544482Y-155095812D01*
X135664180Y-155059502D01*
X135774494Y-155000537D01*
X135871185Y-154921185D01*
X135950537Y-154824494D01*
X136009502Y-154714180D01*
X136045812Y-154594482D01*
X136058072Y-154470000D01*
X136058072Y-153528665D01*
X148425000Y-153528665D01*
X148425000Y-153811335D01*
X148480147Y-154088574D01*
X148588320Y-154349727D01*
X148745363Y-154584759D01*
X148945241Y-154784637D01*
X149180273Y-154941680D01*
X149441426Y-155049853D01*
X149718665Y-155105000D01*
X150001335Y-155105000D01*
X150278574Y-155049853D01*
X150539727Y-154941680D01*
X150774759Y-154784637D01*
X150923357Y-154636039D01*
X150924188Y-154644482D01*
X150960498Y-154764180D01*
X151019463Y-154874494D01*
X151098815Y-154971185D01*
X151195506Y-155050537D01*
X151305820Y-155109502D01*
X151425518Y-155145812D01*
X151550000Y-155158072D01*
X153250000Y-155158072D01*
X153374482Y-155145812D01*
X153494180Y-155109502D01*
X153604494Y-155050537D01*
X153701185Y-154971185D01*
X153780537Y-154874494D01*
X153839502Y-154764180D01*
X153875812Y-154644482D01*
X153888072Y-154520000D01*
X153888072Y-152820000D01*
X153875812Y-152695518D01*
X153839502Y-152575820D01*
X153780537Y-152465506D01*
X153701185Y-152368815D01*
X153604494Y-152289463D01*
X153494180Y-152230498D01*
X153413534Y-152206034D01*
X153497588Y-152130269D01*
X153671641Y-151896920D01*
X153796825Y-151634099D01*
X153841476Y-151486890D01*
X153720155Y-151257000D01*
X152527000Y-151257000D01*
X152527000Y-151277000D01*
X152273000Y-151277000D01*
X152273000Y-151257000D01*
X149987000Y-151257000D01*
X149987000Y-151277000D01*
X149733000Y-151277000D01*
X149733000Y-151257000D01*
X148590085Y-151257000D01*
X148468096Y-151479039D01*
X148508754Y-151613087D01*
X148628963Y-151867420D01*
X148796481Y-152093414D01*
X149004869Y-152282385D01*
X149190865Y-152393933D01*
X149180273Y-152398320D01*
X148945241Y-152555363D01*
X148745363Y-152755241D01*
X148588320Y-152990273D01*
X148480147Y-153251426D01*
X148425000Y-153528665D01*
X136058072Y-153528665D01*
X136058072Y-152870000D01*
X136045812Y-152745518D01*
X136009502Y-152625820D01*
X135950537Y-152515506D01*
X135871185Y-152418815D01*
X135774494Y-152339463D01*
X135664180Y-152280498D01*
X135544482Y-152244188D01*
X135536039Y-152243357D01*
X135734637Y-152044759D01*
X135891680Y-151809727D01*
X135999853Y-151548574D01*
X136055000Y-151271335D01*
X136055000Y-150988665D01*
X135999853Y-150711426D01*
X135891680Y-150450273D01*
X135734637Y-150215241D01*
X135534759Y-150015363D01*
X135302241Y-149860000D01*
X135534759Y-149704637D01*
X135734637Y-149504759D01*
X135838043Y-149350000D01*
X148641957Y-149350000D01*
X148745363Y-149504759D01*
X148945241Y-149704637D01*
X149180273Y-149861680D01*
X149190865Y-149866067D01*
X149004869Y-149977615D01*
X148796481Y-150166586D01*
X148628963Y-150392580D01*
X148508754Y-150646913D01*
X148468096Y-150780961D01*
X148590085Y-151003000D01*
X149733000Y-151003000D01*
X149733000Y-150983000D01*
X149987000Y-150983000D01*
X149987000Y-151003000D01*
X152273000Y-151003000D01*
X152273000Y-150983000D01*
X152527000Y-150983000D01*
X152527000Y-151003000D01*
X153720155Y-151003000D01*
X153841476Y-150773110D01*
X153796825Y-150625901D01*
X153671641Y-150363080D01*
X153497588Y-150129731D01*
X153281355Y-149934822D01*
X153164466Y-149865195D01*
X153346632Y-149743475D01*
X153553475Y-149536632D01*
X153715990Y-149293411D01*
X153827932Y-149023158D01*
X153885000Y-148736260D01*
X153885000Y-148443740D01*
X153827932Y-148156842D01*
X153715990Y-147886589D01*
X153553475Y-147643368D01*
X153346632Y-147436525D01*
X153172240Y-147320000D01*
X153346632Y-147203475D01*
X153553475Y-146996632D01*
X153715990Y-146753411D01*
X153827932Y-146483158D01*
X153885000Y-146196260D01*
X153885000Y-145903740D01*
X153827932Y-145616842D01*
X153715990Y-145346589D01*
X153553475Y-145103368D01*
X153346632Y-144896525D01*
X153172240Y-144780000D01*
X153346632Y-144663475D01*
X153553475Y-144456632D01*
X153715990Y-144213411D01*
X153827932Y-143943158D01*
X153885000Y-143656260D01*
X153885000Y-143363740D01*
X153841209Y-143143592D01*
X155115001Y-141869801D01*
X155115001Y-165315000D01*
X116185000Y-165315000D01*
X116185000Y-162779872D01*
X120765000Y-162779872D01*
X120765000Y-163220128D01*
X120850890Y-163651925D01*
X121019369Y-164058669D01*
X121263962Y-164424729D01*
X121575271Y-164736038D01*
X121941331Y-164980631D01*
X122348075Y-165149110D01*
X122779872Y-165235000D01*
X123220128Y-165235000D01*
X123651925Y-165149110D01*
X124058669Y-164980631D01*
X124424729Y-164736038D01*
X124736038Y-164424729D01*
X124980631Y-164058669D01*
X125149110Y-163651925D01*
X125235000Y-163220128D01*
X125235000Y-162779872D01*
X125149110Y-162348075D01*
X124980631Y-161941331D01*
X124736038Y-161575271D01*
X124424729Y-161263962D01*
X124058669Y-161019369D01*
X123651925Y-160850890D01*
X123220128Y-160765000D01*
X122779872Y-160765000D01*
X122348075Y-160850890D01*
X121941331Y-161019369D01*
X121575271Y-161263962D01*
X121263962Y-161575271D01*
X121019369Y-161941331D01*
X120850890Y-162348075D01*
X120765000Y-162779872D01*
X116185000Y-162779872D01*
X116185000Y-159873740D01*
X130595000Y-159873740D01*
X130595000Y-160166260D01*
X130652068Y-160453158D01*
X130764010Y-160723411D01*
X130926525Y-160966632D01*
X131133368Y-161173475D01*
X131307760Y-161290000D01*
X131133368Y-161406525D01*
X130926525Y-161613368D01*
X130764010Y-161856589D01*
X130652068Y-162126842D01*
X130595000Y-162413740D01*
X130595000Y-162706260D01*
X130652068Y-162993158D01*
X130764010Y-163263411D01*
X130926525Y-163506632D01*
X131133368Y-163713475D01*
X131376589Y-163875990D01*
X131646842Y-163987932D01*
X131933740Y-164045000D01*
X132226260Y-164045000D01*
X132513158Y-163987932D01*
X132783411Y-163875990D01*
X133026632Y-163713475D01*
X133233475Y-163506632D01*
X133350000Y-163332240D01*
X133466525Y-163506632D01*
X133673368Y-163713475D01*
X133916589Y-163875990D01*
X134186842Y-163987932D01*
X134473740Y-164045000D01*
X134766260Y-164045000D01*
X135053158Y-163987932D01*
X135323411Y-163875990D01*
X135566632Y-163713475D01*
X135773475Y-163506632D01*
X135890000Y-163332240D01*
X136006525Y-163506632D01*
X136213368Y-163713475D01*
X136456589Y-163875990D01*
X136726842Y-163987932D01*
X137013740Y-164045000D01*
X137306260Y-164045000D01*
X137593158Y-163987932D01*
X137863411Y-163875990D01*
X138106632Y-163713475D01*
X138313475Y-163506632D01*
X138435195Y-163324466D01*
X138504822Y-163441355D01*
X138699731Y-163657588D01*
X138933080Y-163831641D01*
X139195901Y-163956825D01*
X139343110Y-164001476D01*
X139573000Y-163880155D01*
X139573000Y-162687000D01*
X139553000Y-162687000D01*
X139553000Y-162433000D01*
X139573000Y-162433000D01*
X139573000Y-160147000D01*
X139553000Y-160147000D01*
X139553000Y-159893000D01*
X139573000Y-159893000D01*
X139573000Y-158699845D01*
X139827000Y-158699845D01*
X139827000Y-159893000D01*
X139847000Y-159893000D01*
X139847000Y-160147000D01*
X139827000Y-160147000D01*
X139827000Y-162433000D01*
X139847000Y-162433000D01*
X139847000Y-162687000D01*
X139827000Y-162687000D01*
X139827000Y-163880155D01*
X140056890Y-164001476D01*
X140204099Y-163956825D01*
X140466920Y-163831641D01*
X140700269Y-163657588D01*
X140895178Y-163441355D01*
X140964805Y-163324466D01*
X141086525Y-163506632D01*
X141293368Y-163713475D01*
X141536589Y-163875990D01*
X141806842Y-163987932D01*
X142093740Y-164045000D01*
X142386260Y-164045000D01*
X142673158Y-163987932D01*
X142943411Y-163875990D01*
X143186632Y-163713475D01*
X143393475Y-163506632D01*
X143510000Y-163332240D01*
X143626525Y-163506632D01*
X143833368Y-163713475D01*
X144076589Y-163875990D01*
X144346842Y-163987932D01*
X144633740Y-164045000D01*
X144926260Y-164045000D01*
X145213158Y-163987932D01*
X145483411Y-163875990D01*
X145726632Y-163713475D01*
X145933475Y-163506632D01*
X146050000Y-163332240D01*
X146166525Y-163506632D01*
X146373368Y-163713475D01*
X146616589Y-163875990D01*
X146886842Y-163987932D01*
X147173740Y-164045000D01*
X147466260Y-164045000D01*
X147753158Y-163987932D01*
X148023411Y-163875990D01*
X148266632Y-163713475D01*
X148398487Y-163581620D01*
X148420498Y-163654180D01*
X148479463Y-163764494D01*
X148558815Y-163861185D01*
X148655506Y-163940537D01*
X148765820Y-163999502D01*
X148885518Y-164035812D01*
X149010000Y-164048072D01*
X150710000Y-164048072D01*
X150834482Y-164035812D01*
X150954180Y-163999502D01*
X151064494Y-163940537D01*
X151161185Y-163861185D01*
X151240537Y-163764494D01*
X151299502Y-163654180D01*
X151335812Y-163534482D01*
X151348072Y-163410000D01*
X151348072Y-161710000D01*
X151335812Y-161585518D01*
X151299502Y-161465820D01*
X151240537Y-161355506D01*
X151186778Y-161290000D01*
X151240537Y-161224494D01*
X151299502Y-161114180D01*
X151335812Y-160994482D01*
X151348072Y-160870000D01*
X151348072Y-159170000D01*
X151335812Y-159045518D01*
X151299502Y-158925820D01*
X151240537Y-158815506D01*
X151161185Y-158718815D01*
X151064494Y-158639463D01*
X150954180Y-158580498D01*
X150834482Y-158544188D01*
X150710000Y-158531928D01*
X149010000Y-158531928D01*
X148885518Y-158544188D01*
X148765820Y-158580498D01*
X148655506Y-158639463D01*
X148558815Y-158718815D01*
X148479463Y-158815506D01*
X148420498Y-158925820D01*
X148398487Y-158998380D01*
X148266632Y-158866525D01*
X148023411Y-158704010D01*
X147753158Y-158592068D01*
X147466260Y-158535000D01*
X147173740Y-158535000D01*
X146886842Y-158592068D01*
X146616589Y-158704010D01*
X146373368Y-158866525D01*
X146166525Y-159073368D01*
X146050000Y-159247760D01*
X145933475Y-159073368D01*
X145726632Y-158866525D01*
X145483411Y-158704010D01*
X145213158Y-158592068D01*
X144926260Y-158535000D01*
X144633740Y-158535000D01*
X144346842Y-158592068D01*
X144076589Y-158704010D01*
X143833368Y-158866525D01*
X143626525Y-159073368D01*
X143510000Y-159247760D01*
X143393475Y-159073368D01*
X143186632Y-158866525D01*
X142943411Y-158704010D01*
X142673158Y-158592068D01*
X142386260Y-158535000D01*
X142093740Y-158535000D01*
X141806842Y-158592068D01*
X141536589Y-158704010D01*
X141293368Y-158866525D01*
X141086525Y-159073368D01*
X140964805Y-159255534D01*
X140895178Y-159138645D01*
X140700269Y-158922412D01*
X140466920Y-158748359D01*
X140204099Y-158623175D01*
X140056890Y-158578524D01*
X139827000Y-158699845D01*
X139573000Y-158699845D01*
X139343110Y-158578524D01*
X139195901Y-158623175D01*
X138933080Y-158748359D01*
X138699731Y-158922412D01*
X138504822Y-159138645D01*
X138435195Y-159255534D01*
X138313475Y-159073368D01*
X138106632Y-158866525D01*
X137863411Y-158704010D01*
X137593158Y-158592068D01*
X137306260Y-158535000D01*
X137013740Y-158535000D01*
X136726842Y-158592068D01*
X136456589Y-158704010D01*
X136213368Y-158866525D01*
X136006525Y-159073368D01*
X135890000Y-159247760D01*
X135773475Y-159073368D01*
X135566632Y-158866525D01*
X135323411Y-158704010D01*
X135053158Y-158592068D01*
X134766260Y-158535000D01*
X134473740Y-158535000D01*
X134186842Y-158592068D01*
X133916589Y-158704010D01*
X133673368Y-158866525D01*
X133466525Y-159073368D01*
X133350000Y-159247760D01*
X133233475Y-159073368D01*
X133026632Y-158866525D01*
X132783411Y-158704010D01*
X132513158Y-158592068D01*
X132226260Y-158535000D01*
X131933740Y-158535000D01*
X131646842Y-158592068D01*
X131376589Y-158704010D01*
X131133368Y-158866525D01*
X130926525Y-159073368D01*
X130764010Y-159316589D01*
X130652068Y-159586842D01*
X130595000Y-159873740D01*
X116185000Y-159873740D01*
X116185000Y-118577563D01*
X118188500Y-118577563D01*
X118188500Y-119062437D01*
X118283094Y-119537993D01*
X118468647Y-119985957D01*
X118738028Y-120389115D01*
X119080885Y-120731972D01*
X119484043Y-121001353D01*
X119932007Y-121186906D01*
X120407563Y-121281500D01*
X120892437Y-121281500D01*
X121367993Y-121186906D01*
X121815957Y-121001353D01*
X122219115Y-120731972D01*
X122561972Y-120389115D01*
X122831353Y-119985957D01*
X123016906Y-119537993D01*
X123111500Y-119062437D01*
X123111500Y-118577563D01*
X123016906Y-118102007D01*
X122831353Y-117654043D01*
X122561972Y-117250885D01*
X122219115Y-116908028D01*
X121815957Y-116638647D01*
X121570853Y-116537122D01*
X121686962Y-116421013D01*
X121833061Y-116202359D01*
X121933696Y-115959405D01*
X121940492Y-115925242D01*
X123700000Y-117684751D01*
X123700001Y-120431928D01*
X123610000Y-120431928D01*
X123485518Y-120444188D01*
X123365820Y-120480498D01*
X123255506Y-120539463D01*
X123158815Y-120618815D01*
X123079463Y-120715506D01*
X123020498Y-120825820D01*
X122984188Y-120945518D01*
X122971928Y-121070000D01*
X122971928Y-122770000D01*
X122984188Y-122894482D01*
X123020498Y-123014180D01*
X123079463Y-123124494D01*
X123158815Y-123221185D01*
X123255506Y-123300537D01*
X123365820Y-123359502D01*
X123485518Y-123395812D01*
X123610000Y-123408072D01*
X125310000Y-123408072D01*
X125434482Y-123395812D01*
X125554180Y-123359502D01*
X125664494Y-123300537D01*
X125761185Y-123221185D01*
X125840537Y-123124494D01*
X125899502Y-123014180D01*
X125935812Y-122894482D01*
X125948072Y-122770000D01*
X125948072Y-121070000D01*
X125935812Y-120945518D01*
X125899502Y-120825820D01*
X125840537Y-120715506D01*
X125761185Y-120618815D01*
X125664494Y-120539463D01*
X125554180Y-120480498D01*
X125434482Y-120444188D01*
X125310000Y-120431928D01*
X125220000Y-120431928D01*
X125220000Y-117407274D01*
X125223676Y-117369949D01*
X125220000Y-117332624D01*
X125220000Y-117332616D01*
X125209003Y-117220963D01*
X125165546Y-117077702D01*
X125094974Y-116945673D01*
X125000001Y-116829948D01*
X124971004Y-116806151D01*
X121636414Y-113471561D01*
X121686962Y-113421013D01*
X121833061Y-113202359D01*
X121933696Y-112959405D01*
X121985000Y-112701486D01*
X121985000Y-112438514D01*
X121933696Y-112180595D01*
X121833061Y-111937641D01*
X121686962Y-111718987D01*
X121501013Y-111533038D01*
X121282359Y-111386939D01*
X121039405Y-111286304D01*
X120781486Y-111235000D01*
X120518514Y-111235000D01*
X120260595Y-111286304D01*
X120017641Y-111386939D01*
X119798987Y-111533038D01*
X119613038Y-111718987D01*
X119466939Y-111937641D01*
X119366304Y-112180595D01*
X119315000Y-112438514D01*
X119315000Y-112701486D01*
X119366304Y-112959405D01*
X119466939Y-113202359D01*
X119613038Y-113421013D01*
X119798987Y-113606962D01*
X119897433Y-113672741D01*
X119900998Y-113708934D01*
X119944454Y-113852195D01*
X120015026Y-113984225D01*
X120086201Y-114070951D01*
X120110000Y-114099950D01*
X120138998Y-114123748D01*
X120294758Y-114279508D01*
X120260595Y-114286304D01*
X120017641Y-114386939D01*
X119798987Y-114533038D01*
X119613038Y-114718987D01*
X119466939Y-114937641D01*
X119366304Y-115180595D01*
X119315000Y-115438514D01*
X119315000Y-115701486D01*
X119366304Y-115959405D01*
X119466939Y-116202359D01*
X119613038Y-116421013D01*
X119729147Y-116537122D01*
X119484043Y-116638647D01*
X119080885Y-116908028D01*
X118738028Y-117250885D01*
X118468647Y-117654043D01*
X118283094Y-118102007D01*
X118188500Y-118577563D01*
X116185000Y-118577563D01*
X116185000Y-110491269D01*
X119908336Y-110491269D01*
X119967797Y-110725037D01*
X120206242Y-110835934D01*
X120461740Y-110898183D01*
X120724473Y-110909390D01*
X120984344Y-110869125D01*
X121231366Y-110778935D01*
X121332203Y-110725037D01*
X121391664Y-110491269D01*
X120650000Y-109749605D01*
X119908336Y-110491269D01*
X116185000Y-110491269D01*
X116185000Y-109644473D01*
X119310610Y-109644473D01*
X119350875Y-109904344D01*
X119441065Y-110151366D01*
X119494963Y-110252203D01*
X119728731Y-110311664D01*
X120470395Y-109570000D01*
X120829605Y-109570000D01*
X121571269Y-110311664D01*
X121805037Y-110252203D01*
X121915934Y-110013758D01*
X121978183Y-109758260D01*
X121989390Y-109495527D01*
X121949125Y-109235656D01*
X121858935Y-108988634D01*
X121805037Y-108887797D01*
X121571269Y-108828336D01*
X120829605Y-109570000D01*
X120470395Y-109570000D01*
X119728731Y-108828336D01*
X119494963Y-108887797D01*
X119384066Y-109126242D01*
X119321817Y-109381740D01*
X119310610Y-109644473D01*
X116185000Y-109644473D01*
X116185000Y-78806553D01*
X119189009Y-78806553D01*
X119231603Y-79105907D01*
X119331778Y-79391199D01*
X119411739Y-79540792D01*
X119665920Y-79624475D01*
X120550395Y-78740000D01*
X119665920Y-77855525D01*
X119411739Y-77939208D01*
X119280842Y-78211775D01*
X119205635Y-78504642D01*
X119189009Y-78806553D01*
X116185000Y-78806553D01*
X116185000Y-59756553D01*
X119189009Y-59756553D01*
X119231603Y-60055907D01*
X119331778Y-60341199D01*
X119411739Y-60490792D01*
X119665920Y-60574475D01*
X120550395Y-59690000D01*
X119665920Y-58805525D01*
X119411739Y-58889208D01*
X119280842Y-59161775D01*
X119205635Y-59454642D01*
X119189009Y-59756553D01*
X116185000Y-59756553D01*
X116185000Y-55748514D01*
X144715000Y-55748514D01*
X144715000Y-56011486D01*
X144766304Y-56269405D01*
X144866939Y-56512359D01*
X145013038Y-56731013D01*
X145198987Y-56916962D01*
X145417641Y-57063061D01*
X145660595Y-57163696D01*
X145918514Y-57215000D01*
X146181486Y-57215000D01*
X146439405Y-57163696D01*
X146682359Y-57063061D01*
X146901013Y-56916962D01*
X147086962Y-56731013D01*
X147233061Y-56512359D01*
X147333696Y-56269405D01*
X147385000Y-56011486D01*
X147385000Y-55748514D01*
X147333696Y-55490595D01*
X147233061Y-55247641D01*
X147086962Y-55028987D01*
X146901013Y-54843038D01*
X146682359Y-54696939D01*
X146439405Y-54596304D01*
X146181486Y-54545000D01*
X145918514Y-54545000D01*
X145660595Y-54596304D01*
X145417641Y-54696939D01*
X145198987Y-54843038D01*
X145013038Y-55028987D01*
X144866939Y-55247641D01*
X144766304Y-55490595D01*
X144715000Y-55748514D01*
X116185000Y-55748514D01*
X116185000Y-52445475D01*
X116195000Y-52445475D01*
X116195000Y-52964525D01*
X116296261Y-53473601D01*
X116494893Y-53953141D01*
X116783262Y-54384715D01*
X117150285Y-54751738D01*
X117581859Y-55040107D01*
X118061399Y-55238739D01*
X118570475Y-55340000D01*
X119089525Y-55340000D01*
X119598601Y-55238739D01*
X120078141Y-55040107D01*
X120509715Y-54751738D01*
X120876738Y-54384715D01*
X121165107Y-53953141D01*
X121363739Y-53473601D01*
X121465000Y-52964525D01*
X121465000Y-52445475D01*
X121462017Y-52430475D01*
X124995000Y-52430475D01*
X124995000Y-52949525D01*
X125096261Y-53458601D01*
X125294893Y-53938141D01*
X125583262Y-54369715D01*
X125950285Y-54736738D01*
X126381859Y-55025107D01*
X126861399Y-55223739D01*
X127370475Y-55325000D01*
X127889525Y-55325000D01*
X128398601Y-55223739D01*
X128878141Y-55025107D01*
X129309715Y-54736738D01*
X129676738Y-54369715D01*
X129965107Y-53938141D01*
X130163739Y-53458601D01*
X130213508Y-53208393D01*
X130266261Y-53473601D01*
X130464893Y-53953141D01*
X130753262Y-54384715D01*
X131120285Y-54751738D01*
X131551859Y-55040107D01*
X132031399Y-55238739D01*
X132540475Y-55340000D01*
X133059525Y-55340000D01*
X133568601Y-55238739D01*
X134048141Y-55040107D01*
X134479715Y-54751738D01*
X134846738Y-54384715D01*
X135135107Y-53953141D01*
X135333739Y-53473601D01*
X135435000Y-52964525D01*
X135435000Y-52445475D01*
X135432017Y-52430475D01*
X138965000Y-52430475D01*
X138965000Y-52949525D01*
X139066261Y-53458601D01*
X139264893Y-53938141D01*
X139553262Y-54369715D01*
X139920285Y-54736738D01*
X140351859Y-55025107D01*
X140831399Y-55223739D01*
X141340475Y-55325000D01*
X141859525Y-55325000D01*
X142368601Y-55223739D01*
X142848141Y-55025107D01*
X143279715Y-54736738D01*
X143646738Y-54369715D01*
X143935107Y-53938141D01*
X144133739Y-53458601D01*
X144230927Y-52970000D01*
X147051928Y-52970000D01*
X147064188Y-53094482D01*
X147100498Y-53214180D01*
X147159463Y-53324494D01*
X147238815Y-53421185D01*
X147335506Y-53500537D01*
X147445820Y-53559502D01*
X147565518Y-53595812D01*
X147690000Y-53608072D01*
X148304250Y-53605000D01*
X148463000Y-53446250D01*
X148463000Y-52197000D01*
X147213750Y-52197000D01*
X147055000Y-52355750D01*
X147051928Y-52970000D01*
X144230927Y-52970000D01*
X144235000Y-52949525D01*
X144235000Y-52430475D01*
X144133739Y-51921399D01*
X143935107Y-51441859D01*
X143753457Y-51170000D01*
X147051928Y-51170000D01*
X147055000Y-51784250D01*
X147213750Y-51943000D01*
X148463000Y-51943000D01*
X148463000Y-50693750D01*
X148717000Y-50693750D01*
X148717000Y-51943000D01*
X148737000Y-51943000D01*
X148737000Y-52197000D01*
X148717000Y-52197000D01*
X148717000Y-53446250D01*
X148875750Y-53605000D01*
X149490000Y-53608072D01*
X149614482Y-53595812D01*
X149734180Y-53559502D01*
X149844494Y-53500537D01*
X149941185Y-53421185D01*
X150020537Y-53324494D01*
X150079502Y-53214180D01*
X150085056Y-53195873D01*
X150151495Y-53262312D01*
X150402905Y-53430299D01*
X150682257Y-53546011D01*
X150978816Y-53605000D01*
X151281184Y-53605000D01*
X151577743Y-53546011D01*
X151857095Y-53430299D01*
X152108505Y-53262312D01*
X152322312Y-53048505D01*
X152490299Y-52797095D01*
X152606011Y-52517743D01*
X152665000Y-52221184D01*
X152665000Y-51918816D01*
X152606011Y-51622257D01*
X152490299Y-51342905D01*
X152322312Y-51091495D01*
X152108505Y-50877688D01*
X151857095Y-50709701D01*
X151577743Y-50593989D01*
X151281184Y-50535000D01*
X150978816Y-50535000D01*
X150682257Y-50593989D01*
X150402905Y-50709701D01*
X150151495Y-50877688D01*
X150085056Y-50944127D01*
X150079502Y-50925820D01*
X150020537Y-50815506D01*
X149941185Y-50718815D01*
X149844494Y-50639463D01*
X149734180Y-50580498D01*
X149614482Y-50544188D01*
X149490000Y-50531928D01*
X148875750Y-50535000D01*
X148717000Y-50693750D01*
X148463000Y-50693750D01*
X148304250Y-50535000D01*
X147690000Y-50531928D01*
X147565518Y-50544188D01*
X147445820Y-50580498D01*
X147335506Y-50639463D01*
X147238815Y-50718815D01*
X147159463Y-50815506D01*
X147100498Y-50925820D01*
X147064188Y-51045518D01*
X147051928Y-51170000D01*
X143753457Y-51170000D01*
X143646738Y-51010285D01*
X143279715Y-50643262D01*
X142848141Y-50354893D01*
X142368601Y-50156261D01*
X141859525Y-50055000D01*
X141340475Y-50055000D01*
X140831399Y-50156261D01*
X140351859Y-50354893D01*
X139920285Y-50643262D01*
X139553262Y-51010285D01*
X139264893Y-51441859D01*
X139066261Y-51921399D01*
X138965000Y-52430475D01*
X135432017Y-52430475D01*
X135333739Y-51936399D01*
X135135107Y-51456859D01*
X134846738Y-51025285D01*
X134479715Y-50658262D01*
X134048141Y-50369893D01*
X133568601Y-50171261D01*
X133059525Y-50070000D01*
X132540475Y-50070000D01*
X132031399Y-50171261D01*
X131551859Y-50369893D01*
X131120285Y-50658262D01*
X130753262Y-51025285D01*
X130464893Y-51456859D01*
X130266261Y-51936399D01*
X130216492Y-52186607D01*
X130163739Y-51921399D01*
X129965107Y-51441859D01*
X129676738Y-51010285D01*
X129309715Y-50643262D01*
X128878141Y-50354893D01*
X128398601Y-50156261D01*
X127889525Y-50055000D01*
X127370475Y-50055000D01*
X126861399Y-50156261D01*
X126381859Y-50354893D01*
X125950285Y-50643262D01*
X125583262Y-51010285D01*
X125294893Y-51441859D01*
X125096261Y-51921399D01*
X124995000Y-52430475D01*
X121462017Y-52430475D01*
X121363739Y-51936399D01*
X121165107Y-51456859D01*
X120876738Y-51025285D01*
X120509715Y-50658262D01*
X120078141Y-50369893D01*
X119598601Y-50171261D01*
X119089525Y-50070000D01*
X118570475Y-50070000D01*
X118061399Y-50171261D01*
X117581859Y-50369893D01*
X117150285Y-50658262D01*
X116783262Y-51025285D01*
X116494893Y-51456859D01*
X116296261Y-51936399D01*
X116195000Y-52445475D01*
X116185000Y-52445475D01*
X116185000Y-48128514D01*
X144715000Y-48128514D01*
X144715000Y-48391486D01*
X144766304Y-48649405D01*
X144866939Y-48892359D01*
X145013038Y-49111013D01*
X145198987Y-49296962D01*
X145417641Y-49443061D01*
X145660595Y-49543696D01*
X145918514Y-49595000D01*
X146181486Y-49595000D01*
X146439405Y-49543696D01*
X146682359Y-49443061D01*
X146901013Y-49296962D01*
X147086962Y-49111013D01*
X147233061Y-48892359D01*
X147333696Y-48649405D01*
X147385000Y-48391486D01*
X147385000Y-48128514D01*
X147333696Y-47870595D01*
X147233061Y-47627641D01*
X147086962Y-47408987D01*
X146901013Y-47223038D01*
X146682359Y-47076939D01*
X146439405Y-46976304D01*
X146181486Y-46925000D01*
X145918514Y-46925000D01*
X145660595Y-46976304D01*
X145417641Y-47076939D01*
X145198987Y-47223038D01*
X145013038Y-47408987D01*
X144866939Y-47627641D01*
X144766304Y-47870595D01*
X144715000Y-48128514D01*
X116185000Y-48128514D01*
X116185000Y-40279872D01*
X120765000Y-40279872D01*
X120765000Y-40720128D01*
X120850890Y-41151925D01*
X121019369Y-41558669D01*
X121263962Y-41924729D01*
X121575271Y-42236038D01*
X121941331Y-42480631D01*
X122348075Y-42649110D01*
X122779872Y-42735000D01*
X123220128Y-42735000D01*
X123651925Y-42649110D01*
X124058669Y-42480631D01*
X124424729Y-42236038D01*
X124736038Y-41924729D01*
X124980631Y-41558669D01*
X125149110Y-41151925D01*
X125235000Y-40720128D01*
X125235000Y-40279872D01*
X125149110Y-39848075D01*
X124980631Y-39441331D01*
X124736038Y-39075271D01*
X124424729Y-38763962D01*
X124058669Y-38519369D01*
X123651925Y-38350890D01*
X123220128Y-38265000D01*
X122779872Y-38265000D01*
X122348075Y-38350890D01*
X121941331Y-38519369D01*
X121575271Y-38763962D01*
X121263962Y-39075271D01*
X121019369Y-39441331D01*
X120850890Y-39848075D01*
X120765000Y-40279872D01*
X116185000Y-40279872D01*
X116185000Y-38185000D01*
X155115000Y-38185000D01*
X155115001Y-109842376D01*
G36*
X148461312Y-145726114D02*
G01*
X148425000Y-145908665D01*
X148425000Y-146191335D01*
X148480147Y-146468574D01*
X148588320Y-146729727D01*
X148745363Y-146964759D01*
X148945241Y-147164637D01*
X149177759Y-147320000D01*
X148945241Y-147475363D01*
X148745363Y-147675241D01*
X148641957Y-147830000D01*
X135838043Y-147830000D01*
X135734637Y-147675241D01*
X135534759Y-147475363D01*
X135299727Y-147318320D01*
X135289135Y-147313933D01*
X135475131Y-147202385D01*
X135683519Y-147013414D01*
X135851037Y-146787420D01*
X135971246Y-146533087D01*
X136011904Y-146399039D01*
X135889915Y-146177000D01*
X134747000Y-146177000D01*
X134747000Y-146197000D01*
X134493000Y-146197000D01*
X134493000Y-146177000D01*
X132207000Y-146177000D01*
X132207000Y-146197000D01*
X131953000Y-146197000D01*
X131953000Y-146177000D01*
X131933000Y-146177000D01*
X131933000Y-145923000D01*
X131953000Y-145923000D01*
X131953000Y-145903000D01*
X132207000Y-145903000D01*
X132207000Y-145923000D01*
X134493000Y-145923000D01*
X134493000Y-145903000D01*
X134747000Y-145903000D01*
X134747000Y-145923000D01*
X135889915Y-145923000D01*
X136011904Y-145700961D01*
X135971246Y-145566913D01*
X135851037Y-145312580D01*
X135683519Y-145086586D01*
X135475131Y-144897615D01*
X135289135Y-144786067D01*
X135299727Y-144781680D01*
X135534759Y-144624637D01*
X135734637Y-144424759D01*
X135891680Y-144189727D01*
X135999853Y-143928574D01*
X136055000Y-143651335D01*
X136055000Y-143368665D01*
X135999853Y-143091426D01*
X135891680Y-142830273D01*
X135734637Y-142595241D01*
X135534759Y-142395363D01*
X135302241Y-142240000D01*
X135534759Y-142084637D01*
X135734637Y-141884759D01*
X135891680Y-141649727D01*
X135999853Y-141388574D01*
X136055000Y-141111335D01*
X136055000Y-140828665D01*
X135999853Y-140551426D01*
X135891680Y-140290273D01*
X135734637Y-140055241D01*
X135534759Y-139855363D01*
X135302241Y-139700000D01*
X135534759Y-139544637D01*
X135734637Y-139344759D01*
X135891680Y-139109727D01*
X135999853Y-138848574D01*
X136055000Y-138571335D01*
X136055000Y-138288665D01*
X135999853Y-138011426D01*
X135891680Y-137750273D01*
X135734637Y-137515241D01*
X135534759Y-137315363D01*
X135302241Y-137160000D01*
X135534759Y-137004637D01*
X135734637Y-136804759D01*
X135891680Y-136569727D01*
X135999853Y-136308574D01*
X136055000Y-136031335D01*
X136055000Y-135748665D01*
X135999853Y-135471426D01*
X135891680Y-135210273D01*
X135734637Y-134975241D01*
X135534759Y-134775363D01*
X135302241Y-134620000D01*
X135534759Y-134464637D01*
X135734637Y-134264759D01*
X135891680Y-134029727D01*
X135999853Y-133768574D01*
X136055000Y-133491335D01*
X136055000Y-133319801D01*
X148461312Y-145726114D01*
G37*
X148461312Y-145726114D02*
X148425000Y-145908665D01*
X148425000Y-146191335D01*
X148480147Y-146468574D01*
X148588320Y-146729727D01*
X148745363Y-146964759D01*
X148945241Y-147164637D01*
X149177759Y-147320000D01*
X148945241Y-147475363D01*
X148745363Y-147675241D01*
X148641957Y-147830000D01*
X135838043Y-147830000D01*
X135734637Y-147675241D01*
X135534759Y-147475363D01*
X135299727Y-147318320D01*
X135289135Y-147313933D01*
X135475131Y-147202385D01*
X135683519Y-147013414D01*
X135851037Y-146787420D01*
X135971246Y-146533087D01*
X136011904Y-146399039D01*
X135889915Y-146177000D01*
X134747000Y-146177000D01*
X134747000Y-146197000D01*
X134493000Y-146197000D01*
X134493000Y-146177000D01*
X132207000Y-146177000D01*
X132207000Y-146197000D01*
X131953000Y-146197000D01*
X131953000Y-146177000D01*
X131933000Y-146177000D01*
X131933000Y-145923000D01*
X131953000Y-145923000D01*
X131953000Y-145903000D01*
X132207000Y-145903000D01*
X132207000Y-145923000D01*
X134493000Y-145923000D01*
X134493000Y-145903000D01*
X134747000Y-145903000D01*
X134747000Y-145923000D01*
X135889915Y-145923000D01*
X136011904Y-145700961D01*
X135971246Y-145566913D01*
X135851037Y-145312580D01*
X135683519Y-145086586D01*
X135475131Y-144897615D01*
X135289135Y-144786067D01*
X135299727Y-144781680D01*
X135534759Y-144624637D01*
X135734637Y-144424759D01*
X135891680Y-144189727D01*
X135999853Y-143928574D01*
X136055000Y-143651335D01*
X136055000Y-143368665D01*
X135999853Y-143091426D01*
X135891680Y-142830273D01*
X135734637Y-142595241D01*
X135534759Y-142395363D01*
X135302241Y-142240000D01*
X135534759Y-142084637D01*
X135734637Y-141884759D01*
X135891680Y-141649727D01*
X135999853Y-141388574D01*
X136055000Y-141111335D01*
X136055000Y-140828665D01*
X135999853Y-140551426D01*
X135891680Y-140290273D01*
X135734637Y-140055241D01*
X135534759Y-139855363D01*
X135302241Y-139700000D01*
X135534759Y-139544637D01*
X135734637Y-139344759D01*
X135891680Y-139109727D01*
X135999853Y-138848574D01*
X136055000Y-138571335D01*
X136055000Y-138288665D01*
X135999853Y-138011426D01*
X135891680Y-137750273D01*
X135734637Y-137515241D01*
X135534759Y-137315363D01*
X135302241Y-137160000D01*
X135534759Y-137004637D01*
X135734637Y-136804759D01*
X135891680Y-136569727D01*
X135999853Y-136308574D01*
X136055000Y-136031335D01*
X136055000Y-135748665D01*
X135999853Y-135471426D01*
X135891680Y-135210273D01*
X135734637Y-134975241D01*
X135534759Y-134775363D01*
X135302241Y-134620000D01*
X135534759Y-134464637D01*
X135734637Y-134264759D01*
X135891680Y-134029727D01*
X135999853Y-133768574D01*
X136055000Y-133491335D01*
X136055000Y-133319801D01*
X148461312Y-145726114D01*
G36*
X134365002Y-95237194D02*
G01*
X132964002Y-96638195D01*
X132934998Y-96661998D01*
X132892335Y-96713984D01*
X132840025Y-96777723D01*
X132797519Y-96857246D01*
X132769453Y-96909753D01*
X132725996Y-97053014D01*
X132714999Y-97164667D01*
X132714999Y-97164677D01*
X132711323Y-97201999D01*
X132714999Y-97239322D01*
X132715000Y-98340669D01*
X132711323Y-98378001D01*
X132715000Y-98415333D01*
X132715000Y-98415334D01*
X132715950Y-98424974D01*
X132725997Y-98526986D01*
X132769453Y-98670247D01*
X132840025Y-98802277D01*
X132892334Y-98866015D01*
X132934999Y-98918002D01*
X132963997Y-98941800D01*
X140908188Y-106885992D01*
X140931987Y-106914991D01*
X141047712Y-107009964D01*
X141179741Y-107080536D01*
X141323002Y-107123993D01*
X141434655Y-107134990D01*
X141434664Y-107134990D01*
X141471987Y-107138666D01*
X141509310Y-107134990D01*
X142628254Y-107134990D01*
X142580061Y-107225152D01*
X142472275Y-107580476D01*
X142435880Y-107950000D01*
X142472275Y-108319524D01*
X142580061Y-108674848D01*
X142755097Y-109002317D01*
X142990655Y-109289345D01*
X143277683Y-109524903D01*
X143605152Y-109699939D01*
X143960476Y-109807725D01*
X144237403Y-109835000D01*
X144922597Y-109835000D01*
X145199524Y-109807725D01*
X145554848Y-109699939D01*
X145882317Y-109524903D01*
X146169345Y-109289345D01*
X146404903Y-109002317D01*
X146561150Y-108710000D01*
X147101928Y-108710000D01*
X147101928Y-108800000D01*
X147114188Y-108924482D01*
X147150498Y-109044180D01*
X147209463Y-109154494D01*
X147288815Y-109251185D01*
X147385506Y-109330537D01*
X147495820Y-109389502D01*
X147615518Y-109425812D01*
X147740000Y-109438072D01*
X149440000Y-109438072D01*
X149564482Y-109425812D01*
X149684180Y-109389502D01*
X149794494Y-109330537D01*
X149891185Y-109251185D01*
X149970537Y-109154494D01*
X150029502Y-109044180D01*
X150065812Y-108924482D01*
X150078072Y-108800000D01*
X150078072Y-108227871D01*
X152815001Y-110964801D01*
X152815001Y-116678456D01*
X152546260Y-116625000D01*
X152253740Y-116625000D01*
X151966842Y-116682068D01*
X151696589Y-116794010D01*
X151453368Y-116956525D01*
X151246525Y-117163368D01*
X151121822Y-117350000D01*
X151078043Y-117350000D01*
X150974637Y-117195241D01*
X150774759Y-116995363D01*
X150539727Y-116838320D01*
X150278574Y-116730147D01*
X150001335Y-116675000D01*
X149718665Y-116675000D01*
X149441426Y-116730147D01*
X149180273Y-116838320D01*
X148945241Y-116995363D01*
X148745363Y-117195241D01*
X148588320Y-117430273D01*
X148480147Y-117691426D01*
X148425000Y-117968665D01*
X148425000Y-118251335D01*
X148480147Y-118528574D01*
X148588320Y-118789727D01*
X148745363Y-119024759D01*
X148945241Y-119224637D01*
X149177759Y-119380000D01*
X148945241Y-119535363D01*
X148745363Y-119735241D01*
X148588320Y-119970273D01*
X148480147Y-120231426D01*
X148425000Y-120508665D01*
X148425000Y-120742798D01*
X141051847Y-113369645D01*
X142492305Y-113369645D01*
X142521777Y-113510611D01*
X142665891Y-113852606D01*
X142873956Y-114159914D01*
X143137976Y-114420726D01*
X143447805Y-114625019D01*
X143791536Y-114764942D01*
X144155960Y-114835118D01*
X144453000Y-114680385D01*
X144453000Y-113077000D01*
X144707000Y-113077000D01*
X144707000Y-114680385D01*
X145004040Y-114835118D01*
X145368464Y-114764942D01*
X145712195Y-114625019D01*
X146022024Y-114420726D01*
X146286044Y-114159914D01*
X146494109Y-113852606D01*
X146638223Y-113510611D01*
X146667695Y-113369645D01*
X146551572Y-113077000D01*
X144707000Y-113077000D01*
X144453000Y-113077000D01*
X142608428Y-113077000D01*
X142492305Y-113369645D01*
X141051847Y-113369645D01*
X140212557Y-112530355D01*
X142492305Y-112530355D01*
X142608428Y-112823000D01*
X144453000Y-112823000D01*
X144453000Y-111219615D01*
X144707000Y-111219615D01*
X144707000Y-112823000D01*
X146551572Y-112823000D01*
X146667695Y-112530355D01*
X146638223Y-112389389D01*
X146494109Y-112047394D01*
X146286044Y-111740086D01*
X146022024Y-111479274D01*
X145712195Y-111274981D01*
X145368464Y-111135058D01*
X145004040Y-111064882D01*
X144707000Y-111219615D01*
X144453000Y-111219615D01*
X144155960Y-111064882D01*
X143791536Y-111135058D01*
X143447805Y-111274981D01*
X143137976Y-111479274D01*
X142873956Y-111740086D01*
X142665891Y-112047394D01*
X142521777Y-112389389D01*
X142492305Y-112530355D01*
X140212557Y-112530355D01*
X131234999Y-103552798D01*
X131234999Y-92928388D01*
X131551859Y-93140107D01*
X132031399Y-93338739D01*
X132540475Y-93440000D01*
X133059525Y-93440000D01*
X133568601Y-93338739D01*
X134048141Y-93140107D01*
X134365002Y-92928387D01*
X134365002Y-95237194D01*
G37*
X134365002Y-95237194D02*
X132964002Y-96638195D01*
X132934998Y-96661998D01*
X132892335Y-96713984D01*
X132840025Y-96777723D01*
X132797519Y-96857246D01*
X132769453Y-96909753D01*
X132725996Y-97053014D01*
X132714999Y-97164667D01*
X132714999Y-97164677D01*
X132711323Y-97201999D01*
X132714999Y-97239322D01*
X132715000Y-98340669D01*
X132711323Y-98378001D01*
X132715000Y-98415333D01*
X132715000Y-98415334D01*
X132715950Y-98424974D01*
X132725997Y-98526986D01*
X132769453Y-98670247D01*
X132840025Y-98802277D01*
X132892334Y-98866015D01*
X132934999Y-98918002D01*
X132963997Y-98941800D01*
X140908188Y-106885992D01*
X140931987Y-106914991D01*
X141047712Y-107009964D01*
X141179741Y-107080536D01*
X141323002Y-107123993D01*
X141434655Y-107134990D01*
X141434664Y-107134990D01*
X141471987Y-107138666D01*
X141509310Y-107134990D01*
X142628254Y-107134990D01*
X142580061Y-107225152D01*
X142472275Y-107580476D01*
X142435880Y-107950000D01*
X142472275Y-108319524D01*
X142580061Y-108674848D01*
X142755097Y-109002317D01*
X142990655Y-109289345D01*
X143277683Y-109524903D01*
X143605152Y-109699939D01*
X143960476Y-109807725D01*
X144237403Y-109835000D01*
X144922597Y-109835000D01*
X145199524Y-109807725D01*
X145554848Y-109699939D01*
X145882317Y-109524903D01*
X146169345Y-109289345D01*
X146404903Y-109002317D01*
X146561150Y-108710000D01*
X147101928Y-108710000D01*
X147101928Y-108800000D01*
X147114188Y-108924482D01*
X147150498Y-109044180D01*
X147209463Y-109154494D01*
X147288815Y-109251185D01*
X147385506Y-109330537D01*
X147495820Y-109389502D01*
X147615518Y-109425812D01*
X147740000Y-109438072D01*
X149440000Y-109438072D01*
X149564482Y-109425812D01*
X149684180Y-109389502D01*
X149794494Y-109330537D01*
X149891185Y-109251185D01*
X149970537Y-109154494D01*
X150029502Y-109044180D01*
X150065812Y-108924482D01*
X150078072Y-108800000D01*
X150078072Y-108227871D01*
X152815001Y-110964801D01*
X152815001Y-116678456D01*
X152546260Y-116625000D01*
X152253740Y-116625000D01*
X151966842Y-116682068D01*
X151696589Y-116794010D01*
X151453368Y-116956525D01*
X151246525Y-117163368D01*
X151121822Y-117350000D01*
X151078043Y-117350000D01*
X150974637Y-117195241D01*
X150774759Y-116995363D01*
X150539727Y-116838320D01*
X150278574Y-116730147D01*
X150001335Y-116675000D01*
X149718665Y-116675000D01*
X149441426Y-116730147D01*
X149180273Y-116838320D01*
X148945241Y-116995363D01*
X148745363Y-117195241D01*
X148588320Y-117430273D01*
X148480147Y-117691426D01*
X148425000Y-117968665D01*
X148425000Y-118251335D01*
X148480147Y-118528574D01*
X148588320Y-118789727D01*
X148745363Y-119024759D01*
X148945241Y-119224637D01*
X149177759Y-119380000D01*
X148945241Y-119535363D01*
X148745363Y-119735241D01*
X148588320Y-119970273D01*
X148480147Y-120231426D01*
X148425000Y-120508665D01*
X148425000Y-120742798D01*
X141051847Y-113369645D01*
X142492305Y-113369645D01*
X142521777Y-113510611D01*
X142665891Y-113852606D01*
X142873956Y-114159914D01*
X143137976Y-114420726D01*
X143447805Y-114625019D01*
X143791536Y-114764942D01*
X144155960Y-114835118D01*
X144453000Y-114680385D01*
X144453000Y-113077000D01*
X144707000Y-113077000D01*
X144707000Y-114680385D01*
X145004040Y-114835118D01*
X145368464Y-114764942D01*
X145712195Y-114625019D01*
X146022024Y-114420726D01*
X146286044Y-114159914D01*
X146494109Y-113852606D01*
X146638223Y-113510611D01*
X146667695Y-113369645D01*
X146551572Y-113077000D01*
X144707000Y-113077000D01*
X144453000Y-113077000D01*
X142608428Y-113077000D01*
X142492305Y-113369645D01*
X141051847Y-113369645D01*
X140212557Y-112530355D01*
X142492305Y-112530355D01*
X142608428Y-112823000D01*
X144453000Y-112823000D01*
X144453000Y-111219615D01*
X144707000Y-111219615D01*
X144707000Y-112823000D01*
X146551572Y-112823000D01*
X146667695Y-112530355D01*
X146638223Y-112389389D01*
X146494109Y-112047394D01*
X146286044Y-111740086D01*
X146022024Y-111479274D01*
X145712195Y-111274981D01*
X145368464Y-111135058D01*
X145004040Y-111064882D01*
X144707000Y-111219615D01*
X144453000Y-111219615D01*
X144155960Y-111064882D01*
X143791536Y-111135058D01*
X143447805Y-111274981D01*
X143137976Y-111479274D01*
X142873956Y-111740086D01*
X142665891Y-112047394D01*
X142521777Y-112389389D01*
X142492305Y-112530355D01*
X140212557Y-112530355D01*
X131234999Y-103552798D01*
X131234999Y-92928388D01*
X131551859Y-93140107D01*
X132031399Y-93338739D01*
X132540475Y-93440000D01*
X133059525Y-93440000D01*
X133568601Y-93338739D01*
X134048141Y-93140107D01*
X134365002Y-92928387D01*
X134365002Y-95237194D01*
G36*
X132207000Y-112823000D02*
G01*
X132227000Y-112823000D01*
X132227000Y-113077000D01*
X132207000Y-113077000D01*
X132207000Y-113097000D01*
X131953000Y-113097000D01*
X131953000Y-113077000D01*
X131933000Y-113077000D01*
X131933000Y-112823000D01*
X131953000Y-112823000D01*
X131953000Y-112803000D01*
X132207000Y-112803000D01*
X132207000Y-112823000D01*
G37*
X132207000Y-112823000D02*
X132227000Y-112823000D01*
X132227000Y-113077000D01*
X132207000Y-113077000D01*
X132207000Y-113097000D01*
X131953000Y-113097000D01*
X131953000Y-113077000D01*
X131933000Y-113077000D01*
X131933000Y-112823000D01*
X131953000Y-112823000D01*
X131953000Y-112803000D01*
X132207000Y-112803000D01*
X132207000Y-112823000D01*
G36*
X120923748Y-97775858D02*
G01*
X120909605Y-97790000D01*
X121794080Y-98674475D01*
X121942262Y-98625690D01*
X122037688Y-98768505D01*
X122251495Y-98982312D01*
X122502905Y-99150299D01*
X122782257Y-99266011D01*
X123078816Y-99325000D01*
X123369999Y-99325000D01*
X123369999Y-101169226D01*
X123341502Y-101134502D01*
X123312504Y-101110704D01*
X121386948Y-99185149D01*
X121530792Y-99108261D01*
X121614475Y-98854080D01*
X120730000Y-97969605D01*
X120715858Y-97983748D01*
X120536253Y-97804143D01*
X120550395Y-97790000D01*
X120536253Y-97775858D01*
X120715858Y-97596253D01*
X120730000Y-97610395D01*
X120744143Y-97596253D01*
X120923748Y-97775858D01*
G37*
X120923748Y-97775858D02*
X120909605Y-97790000D01*
X121794080Y-98674475D01*
X121942262Y-98625690D01*
X122037688Y-98768505D01*
X122251495Y-98982312D01*
X122502905Y-99150299D01*
X122782257Y-99266011D01*
X123078816Y-99325000D01*
X123369999Y-99325000D01*
X123369999Y-101169226D01*
X123341502Y-101134502D01*
X123312504Y-101110704D01*
X121386948Y-99185149D01*
X121530792Y-99108261D01*
X121614475Y-98854080D01*
X120730000Y-97969605D01*
X120715858Y-97983748D01*
X120536253Y-97804143D01*
X120550395Y-97790000D01*
X120536253Y-97775858D01*
X120715858Y-97596253D01*
X120730000Y-97610395D01*
X120744143Y-97596253D01*
X120923748Y-97775858D01*
G36*
X134893748Y-97775858D02*
G01*
X134879605Y-97790000D01*
X134893748Y-97804143D01*
X134714143Y-97983748D01*
X134700000Y-97969605D01*
X134685858Y-97983748D01*
X134506253Y-97804143D01*
X134520395Y-97790000D01*
X134506253Y-97775858D01*
X134685858Y-97596253D01*
X134700000Y-97610395D01*
X134714143Y-97596253D01*
X134893748Y-97775858D01*
G37*
X134893748Y-97775858D02*
X134879605Y-97790000D01*
X134893748Y-97804143D01*
X134714143Y-97983748D01*
X134700000Y-97969605D01*
X134685858Y-97983748D01*
X134506253Y-97804143D01*
X134520395Y-97790000D01*
X134506253Y-97775858D01*
X134685858Y-97596253D01*
X134700000Y-97610395D01*
X134714143Y-97596253D01*
X134893748Y-97775858D01*
G36*
X133175635Y-59454642D02*
G01*
X133159009Y-59756553D01*
X133201603Y-60055907D01*
X133301778Y-60341199D01*
X133381739Y-60490792D01*
X133635920Y-60574475D01*
X134520395Y-59690000D01*
X134506253Y-59675858D01*
X134685858Y-59496253D01*
X134700000Y-59510395D01*
X134714143Y-59496253D01*
X134893748Y-59675858D01*
X134879605Y-59690000D01*
X135764080Y-60574475D01*
X135912262Y-60525690D01*
X136007688Y-60668505D01*
X136221495Y-60882312D01*
X136440000Y-61028313D01*
X136440001Y-74112195D01*
X132964002Y-77588195D01*
X132934998Y-77611998D01*
X132893966Y-77661996D01*
X132840025Y-77727723D01*
X132797519Y-77807246D01*
X132769453Y-77859753D01*
X132725996Y-78003014D01*
X132714999Y-78114667D01*
X132714999Y-78114677D01*
X132711323Y-78151999D01*
X132714999Y-78189321D01*
X132715000Y-88001665D01*
X132711323Y-88038997D01*
X132724226Y-88170000D01*
X132540475Y-88170000D01*
X132031399Y-88271261D01*
X131551859Y-88469893D01*
X131234999Y-88681612D01*
X131234999Y-81709320D01*
X131238675Y-81671997D01*
X131234999Y-81634674D01*
X131234999Y-81634664D01*
X131224002Y-81523011D01*
X131180545Y-81379750D01*
X131109973Y-81247721D01*
X131015000Y-81131996D01*
X130986003Y-81108199D01*
X123990000Y-74112197D01*
X123990000Y-71480475D01*
X124995000Y-71480475D01*
X124995000Y-71999525D01*
X125096261Y-72508601D01*
X125294893Y-72988141D01*
X125583262Y-73419715D01*
X125950285Y-73786738D01*
X126381859Y-74075107D01*
X126861399Y-74273739D01*
X127370475Y-74375000D01*
X127889525Y-74375000D01*
X128398601Y-74273739D01*
X128878141Y-74075107D01*
X129309715Y-73786738D01*
X129676738Y-73419715D01*
X129965107Y-72988141D01*
X130163739Y-72508601D01*
X130213508Y-72258393D01*
X130266261Y-72523601D01*
X130464893Y-73003141D01*
X130753262Y-73434715D01*
X131120285Y-73801738D01*
X131551859Y-74090107D01*
X132031399Y-74288739D01*
X132540475Y-74390000D01*
X133059525Y-74390000D01*
X133568601Y-74288739D01*
X134048141Y-74090107D01*
X134479715Y-73801738D01*
X134846738Y-73434715D01*
X135135107Y-73003141D01*
X135333739Y-72523601D01*
X135435000Y-72014525D01*
X135435000Y-71495475D01*
X135333739Y-70986399D01*
X135135107Y-70506859D01*
X134846738Y-70075285D01*
X134479715Y-69708262D01*
X134048141Y-69419893D01*
X133568601Y-69221261D01*
X133059525Y-69120000D01*
X132540475Y-69120000D01*
X132031399Y-69221261D01*
X131551859Y-69419893D01*
X131120285Y-69708262D01*
X130753262Y-70075285D01*
X130464893Y-70506859D01*
X130266261Y-70986399D01*
X130216492Y-71236607D01*
X130163739Y-70971399D01*
X129965107Y-70491859D01*
X129676738Y-70060285D01*
X129309715Y-69693262D01*
X128878141Y-69404893D01*
X128398601Y-69206261D01*
X127889525Y-69105000D01*
X127370475Y-69105000D01*
X126861399Y-69206261D01*
X126381859Y-69404893D01*
X125950285Y-69693262D01*
X125583262Y-70060285D01*
X125294893Y-70491859D01*
X125096261Y-70971399D01*
X124995000Y-71480475D01*
X123990000Y-71480475D01*
X123990000Y-61028313D01*
X124208505Y-60882312D01*
X124422312Y-60668505D01*
X124480000Y-60582169D01*
X124537688Y-60668505D01*
X124751495Y-60882312D01*
X125002905Y-61050299D01*
X125282257Y-61166011D01*
X125578816Y-61225000D01*
X125881184Y-61225000D01*
X126177743Y-61166011D01*
X126457095Y-61050299D01*
X126708505Y-60882312D01*
X126836737Y-60754080D01*
X133815525Y-60754080D01*
X133899208Y-61008261D01*
X134171775Y-61139158D01*
X134464642Y-61214365D01*
X134766553Y-61230991D01*
X135065907Y-61188397D01*
X135351199Y-61088222D01*
X135500792Y-61008261D01*
X135584475Y-60754080D01*
X134700000Y-59869605D01*
X133815525Y-60754080D01*
X126836737Y-60754080D01*
X126922312Y-60668505D01*
X127090299Y-60417095D01*
X127206011Y-60137743D01*
X127265000Y-59841184D01*
X127265000Y-59538816D01*
X127213731Y-59281070D01*
X127269803Y-59224999D01*
X133234606Y-59224999D01*
X133175635Y-59454642D01*
G37*
X133175635Y-59454642D02*
X133159009Y-59756553D01*
X133201603Y-60055907D01*
X133301778Y-60341199D01*
X133381739Y-60490792D01*
X133635920Y-60574475D01*
X134520395Y-59690000D01*
X134506253Y-59675858D01*
X134685858Y-59496253D01*
X134700000Y-59510395D01*
X134714143Y-59496253D01*
X134893748Y-59675858D01*
X134879605Y-59690000D01*
X135764080Y-60574475D01*
X135912262Y-60525690D01*
X136007688Y-60668505D01*
X136221495Y-60882312D01*
X136440000Y-61028313D01*
X136440001Y-74112195D01*
X132964002Y-77588195D01*
X132934998Y-77611998D01*
X132893966Y-77661996D01*
X132840025Y-77727723D01*
X132797519Y-77807246D01*
X132769453Y-77859753D01*
X132725996Y-78003014D01*
X132714999Y-78114667D01*
X132714999Y-78114677D01*
X132711323Y-78151999D01*
X132714999Y-78189321D01*
X132715000Y-88001665D01*
X132711323Y-88038997D01*
X132724226Y-88170000D01*
X132540475Y-88170000D01*
X132031399Y-88271261D01*
X131551859Y-88469893D01*
X131234999Y-88681612D01*
X131234999Y-81709320D01*
X131238675Y-81671997D01*
X131234999Y-81634674D01*
X131234999Y-81634664D01*
X131224002Y-81523011D01*
X131180545Y-81379750D01*
X131109973Y-81247721D01*
X131015000Y-81131996D01*
X130986003Y-81108199D01*
X123990000Y-74112197D01*
X123990000Y-71480475D01*
X124995000Y-71480475D01*
X124995000Y-71999525D01*
X125096261Y-72508601D01*
X125294893Y-72988141D01*
X125583262Y-73419715D01*
X125950285Y-73786738D01*
X126381859Y-74075107D01*
X126861399Y-74273739D01*
X127370475Y-74375000D01*
X127889525Y-74375000D01*
X128398601Y-74273739D01*
X128878141Y-74075107D01*
X129309715Y-73786738D01*
X129676738Y-73419715D01*
X129965107Y-72988141D01*
X130163739Y-72508601D01*
X130213508Y-72258393D01*
X130266261Y-72523601D01*
X130464893Y-73003141D01*
X130753262Y-73434715D01*
X131120285Y-73801738D01*
X131551859Y-74090107D01*
X132031399Y-74288739D01*
X132540475Y-74390000D01*
X133059525Y-74390000D01*
X133568601Y-74288739D01*
X134048141Y-74090107D01*
X134479715Y-73801738D01*
X134846738Y-73434715D01*
X135135107Y-73003141D01*
X135333739Y-72523601D01*
X135435000Y-72014525D01*
X135435000Y-71495475D01*
X135333739Y-70986399D01*
X135135107Y-70506859D01*
X134846738Y-70075285D01*
X134479715Y-69708262D01*
X134048141Y-69419893D01*
X133568601Y-69221261D01*
X133059525Y-69120000D01*
X132540475Y-69120000D01*
X132031399Y-69221261D01*
X131551859Y-69419893D01*
X131120285Y-69708262D01*
X130753262Y-70075285D01*
X130464893Y-70506859D01*
X130266261Y-70986399D01*
X130216492Y-71236607D01*
X130163739Y-70971399D01*
X129965107Y-70491859D01*
X129676738Y-70060285D01*
X129309715Y-69693262D01*
X128878141Y-69404893D01*
X128398601Y-69206261D01*
X127889525Y-69105000D01*
X127370475Y-69105000D01*
X126861399Y-69206261D01*
X126381859Y-69404893D01*
X125950285Y-69693262D01*
X125583262Y-70060285D01*
X125294893Y-70491859D01*
X125096261Y-70971399D01*
X124995000Y-71480475D01*
X123990000Y-71480475D01*
X123990000Y-61028313D01*
X124208505Y-60882312D01*
X124422312Y-60668505D01*
X124480000Y-60582169D01*
X124537688Y-60668505D01*
X124751495Y-60882312D01*
X125002905Y-61050299D01*
X125282257Y-61166011D01*
X125578816Y-61225000D01*
X125881184Y-61225000D01*
X126177743Y-61166011D01*
X126457095Y-61050299D01*
X126708505Y-60882312D01*
X126836737Y-60754080D01*
X133815525Y-60754080D01*
X133899208Y-61008261D01*
X134171775Y-61139158D01*
X134464642Y-61214365D01*
X134766553Y-61230991D01*
X135065907Y-61188397D01*
X135351199Y-61088222D01*
X135500792Y-61008261D01*
X135584475Y-60754080D01*
X134700000Y-59869605D01*
X133815525Y-60754080D01*
X126836737Y-60754080D01*
X126922312Y-60668505D01*
X127090299Y-60417095D01*
X127206011Y-60137743D01*
X127265000Y-59841184D01*
X127265000Y-59538816D01*
X127213731Y-59281070D01*
X127269803Y-59224999D01*
X133234606Y-59224999D01*
X133175635Y-59454642D01*
M02*
