G04 #@! TF.GenerationSoftware,KiCad,Pcbnew,(5.1.5)-3*
G04 #@! TF.CreationDate,2020-08-18T12:44:29+01:00*
G04 #@! TF.ProjectId,modulepcb,6d6f6475-6c65-4706-9362-2e6b69636164,rev?*
G04 #@! TF.SameCoordinates,Original*
G04 #@! TF.FileFunction,Soldermask,Bot*
G04 #@! TF.FilePolarity,Negative*
%FSLAX46Y46*%
G04 Gerber Fmt 4.6, Leading zero omitted, Abs format (unit mm)*
G04 Created by KiCad (PCBNEW (5.1.5)-3) date 2020-08-18 12:44:29*
%MOMM*%
%LPD*%
G04 APERTURE LIST*
%ADD10C,0.100000*%
G04 APERTURE END LIST*
D10*
G36*
X123375256Y-161391298D02*
G01*
X123481579Y-161412447D01*
X123782042Y-161536903D01*
X124052451Y-161717585D01*
X124282415Y-161947549D01*
X124463097Y-162217958D01*
X124587553Y-162518421D01*
X124651000Y-162837391D01*
X124651000Y-163162609D01*
X124587553Y-163481579D01*
X124463097Y-163782042D01*
X124282415Y-164052451D01*
X124052451Y-164282415D01*
X123782042Y-164463097D01*
X123481579Y-164587553D01*
X123375256Y-164608702D01*
X123162611Y-164651000D01*
X122837389Y-164651000D01*
X122624744Y-164608702D01*
X122518421Y-164587553D01*
X122217958Y-164463097D01*
X121947549Y-164282415D01*
X121717585Y-164052451D01*
X121536903Y-163782042D01*
X121412447Y-163481579D01*
X121349000Y-163162609D01*
X121349000Y-162837391D01*
X121412447Y-162518421D01*
X121536903Y-162217958D01*
X121717585Y-161947549D01*
X121947549Y-161717585D01*
X122217958Y-161536903D01*
X122518421Y-161412447D01*
X122624744Y-161391298D01*
X122837389Y-161349000D01*
X123162611Y-161349000D01*
X123375256Y-161391298D01*
G37*
G36*
X142353512Y-161663927D02*
G01*
X142502812Y-161693624D01*
X142666784Y-161761544D01*
X142814354Y-161860147D01*
X142939853Y-161985646D01*
X143038456Y-162133216D01*
X143106376Y-162297188D01*
X143141000Y-162471259D01*
X143141000Y-162648741D01*
X143106376Y-162822812D01*
X143038456Y-162986784D01*
X142939853Y-163134354D01*
X142814354Y-163259853D01*
X142666784Y-163358456D01*
X142502812Y-163426376D01*
X142353512Y-163456073D01*
X142328742Y-163461000D01*
X142151258Y-163461000D01*
X142126488Y-163456073D01*
X141977188Y-163426376D01*
X141813216Y-163358456D01*
X141665646Y-163259853D01*
X141540147Y-163134354D01*
X141441544Y-162986784D01*
X141373624Y-162822812D01*
X141339000Y-162648741D01*
X141339000Y-162471259D01*
X141373624Y-162297188D01*
X141441544Y-162133216D01*
X141540147Y-161985646D01*
X141665646Y-161860147D01*
X141813216Y-161761544D01*
X141977188Y-161693624D01*
X142126488Y-161663927D01*
X142151258Y-161659000D01*
X142328742Y-161659000D01*
X142353512Y-161663927D01*
G37*
G36*
X150761000Y-163461000D02*
G01*
X148959000Y-163461000D01*
X148959000Y-161659000D01*
X150761000Y-161659000D01*
X150761000Y-163461000D01*
G37*
G36*
X147433512Y-161663927D02*
G01*
X147582812Y-161693624D01*
X147746784Y-161761544D01*
X147894354Y-161860147D01*
X148019853Y-161985646D01*
X148118456Y-162133216D01*
X148186376Y-162297188D01*
X148221000Y-162471259D01*
X148221000Y-162648741D01*
X148186376Y-162822812D01*
X148118456Y-162986784D01*
X148019853Y-163134354D01*
X147894354Y-163259853D01*
X147746784Y-163358456D01*
X147582812Y-163426376D01*
X147433512Y-163456073D01*
X147408742Y-163461000D01*
X147231258Y-163461000D01*
X147206488Y-163456073D01*
X147057188Y-163426376D01*
X146893216Y-163358456D01*
X146745646Y-163259853D01*
X146620147Y-163134354D01*
X146521544Y-162986784D01*
X146453624Y-162822812D01*
X146419000Y-162648741D01*
X146419000Y-162471259D01*
X146453624Y-162297188D01*
X146521544Y-162133216D01*
X146620147Y-161985646D01*
X146745646Y-161860147D01*
X146893216Y-161761544D01*
X147057188Y-161693624D01*
X147206488Y-161663927D01*
X147231258Y-161659000D01*
X147408742Y-161659000D01*
X147433512Y-161663927D01*
G37*
G36*
X144893512Y-161663927D02*
G01*
X145042812Y-161693624D01*
X145206784Y-161761544D01*
X145354354Y-161860147D01*
X145479853Y-161985646D01*
X145578456Y-162133216D01*
X145646376Y-162297188D01*
X145681000Y-162471259D01*
X145681000Y-162648741D01*
X145646376Y-162822812D01*
X145578456Y-162986784D01*
X145479853Y-163134354D01*
X145354354Y-163259853D01*
X145206784Y-163358456D01*
X145042812Y-163426376D01*
X144893512Y-163456073D01*
X144868742Y-163461000D01*
X144691258Y-163461000D01*
X144666488Y-163456073D01*
X144517188Y-163426376D01*
X144353216Y-163358456D01*
X144205646Y-163259853D01*
X144080147Y-163134354D01*
X143981544Y-162986784D01*
X143913624Y-162822812D01*
X143879000Y-162648741D01*
X143879000Y-162471259D01*
X143913624Y-162297188D01*
X143981544Y-162133216D01*
X144080147Y-161985646D01*
X144205646Y-161860147D01*
X144353216Y-161761544D01*
X144517188Y-161693624D01*
X144666488Y-161663927D01*
X144691258Y-161659000D01*
X144868742Y-161659000D01*
X144893512Y-161663927D01*
G37*
G36*
X137273512Y-161663927D02*
G01*
X137422812Y-161693624D01*
X137586784Y-161761544D01*
X137734354Y-161860147D01*
X137859853Y-161985646D01*
X137958456Y-162133216D01*
X138026376Y-162297188D01*
X138061000Y-162471259D01*
X138061000Y-162648741D01*
X138026376Y-162822812D01*
X137958456Y-162986784D01*
X137859853Y-163134354D01*
X137734354Y-163259853D01*
X137586784Y-163358456D01*
X137422812Y-163426376D01*
X137273512Y-163456073D01*
X137248742Y-163461000D01*
X137071258Y-163461000D01*
X137046488Y-163456073D01*
X136897188Y-163426376D01*
X136733216Y-163358456D01*
X136585646Y-163259853D01*
X136460147Y-163134354D01*
X136361544Y-162986784D01*
X136293624Y-162822812D01*
X136259000Y-162648741D01*
X136259000Y-162471259D01*
X136293624Y-162297188D01*
X136361544Y-162133216D01*
X136460147Y-161985646D01*
X136585646Y-161860147D01*
X136733216Y-161761544D01*
X136897188Y-161693624D01*
X137046488Y-161663927D01*
X137071258Y-161659000D01*
X137248742Y-161659000D01*
X137273512Y-161663927D01*
G37*
G36*
X139813512Y-161663927D02*
G01*
X139962812Y-161693624D01*
X140126784Y-161761544D01*
X140274354Y-161860147D01*
X140399853Y-161985646D01*
X140498456Y-162133216D01*
X140566376Y-162297188D01*
X140601000Y-162471259D01*
X140601000Y-162648741D01*
X140566376Y-162822812D01*
X140498456Y-162986784D01*
X140399853Y-163134354D01*
X140274354Y-163259853D01*
X140126784Y-163358456D01*
X139962812Y-163426376D01*
X139813512Y-163456073D01*
X139788742Y-163461000D01*
X139611258Y-163461000D01*
X139586488Y-163456073D01*
X139437188Y-163426376D01*
X139273216Y-163358456D01*
X139125646Y-163259853D01*
X139000147Y-163134354D01*
X138901544Y-162986784D01*
X138833624Y-162822812D01*
X138799000Y-162648741D01*
X138799000Y-162471259D01*
X138833624Y-162297188D01*
X138901544Y-162133216D01*
X139000147Y-161985646D01*
X139125646Y-161860147D01*
X139273216Y-161761544D01*
X139437188Y-161693624D01*
X139586488Y-161663927D01*
X139611258Y-161659000D01*
X139788742Y-161659000D01*
X139813512Y-161663927D01*
G37*
G36*
X132193512Y-161663927D02*
G01*
X132342812Y-161693624D01*
X132506784Y-161761544D01*
X132654354Y-161860147D01*
X132779853Y-161985646D01*
X132878456Y-162133216D01*
X132946376Y-162297188D01*
X132981000Y-162471259D01*
X132981000Y-162648741D01*
X132946376Y-162822812D01*
X132878456Y-162986784D01*
X132779853Y-163134354D01*
X132654354Y-163259853D01*
X132506784Y-163358456D01*
X132342812Y-163426376D01*
X132193512Y-163456073D01*
X132168742Y-163461000D01*
X131991258Y-163461000D01*
X131966488Y-163456073D01*
X131817188Y-163426376D01*
X131653216Y-163358456D01*
X131505646Y-163259853D01*
X131380147Y-163134354D01*
X131281544Y-162986784D01*
X131213624Y-162822812D01*
X131179000Y-162648741D01*
X131179000Y-162471259D01*
X131213624Y-162297188D01*
X131281544Y-162133216D01*
X131380147Y-161985646D01*
X131505646Y-161860147D01*
X131653216Y-161761544D01*
X131817188Y-161693624D01*
X131966488Y-161663927D01*
X131991258Y-161659000D01*
X132168742Y-161659000D01*
X132193512Y-161663927D01*
G37*
G36*
X134733512Y-161663927D02*
G01*
X134882812Y-161693624D01*
X135046784Y-161761544D01*
X135194354Y-161860147D01*
X135319853Y-161985646D01*
X135418456Y-162133216D01*
X135486376Y-162297188D01*
X135521000Y-162471259D01*
X135521000Y-162648741D01*
X135486376Y-162822812D01*
X135418456Y-162986784D01*
X135319853Y-163134354D01*
X135194354Y-163259853D01*
X135046784Y-163358456D01*
X134882812Y-163426376D01*
X134733512Y-163456073D01*
X134708742Y-163461000D01*
X134531258Y-163461000D01*
X134506488Y-163456073D01*
X134357188Y-163426376D01*
X134193216Y-163358456D01*
X134045646Y-163259853D01*
X133920147Y-163134354D01*
X133821544Y-162986784D01*
X133753624Y-162822812D01*
X133719000Y-162648741D01*
X133719000Y-162471259D01*
X133753624Y-162297188D01*
X133821544Y-162133216D01*
X133920147Y-161985646D01*
X134045646Y-161860147D01*
X134193216Y-161761544D01*
X134357188Y-161693624D01*
X134506488Y-161663927D01*
X134531258Y-161659000D01*
X134708742Y-161659000D01*
X134733512Y-161663927D01*
G37*
G36*
X132193512Y-159123927D02*
G01*
X132342812Y-159153624D01*
X132506784Y-159221544D01*
X132654354Y-159320147D01*
X132779853Y-159445646D01*
X132878456Y-159593216D01*
X132946376Y-159757188D01*
X132981000Y-159931259D01*
X132981000Y-160108741D01*
X132946376Y-160282812D01*
X132878456Y-160446784D01*
X132779853Y-160594354D01*
X132654354Y-160719853D01*
X132506784Y-160818456D01*
X132342812Y-160886376D01*
X132193512Y-160916073D01*
X132168742Y-160921000D01*
X131991258Y-160921000D01*
X131966488Y-160916073D01*
X131817188Y-160886376D01*
X131653216Y-160818456D01*
X131505646Y-160719853D01*
X131380147Y-160594354D01*
X131281544Y-160446784D01*
X131213624Y-160282812D01*
X131179000Y-160108741D01*
X131179000Y-159931259D01*
X131213624Y-159757188D01*
X131281544Y-159593216D01*
X131380147Y-159445646D01*
X131505646Y-159320147D01*
X131653216Y-159221544D01*
X131817188Y-159153624D01*
X131966488Y-159123927D01*
X131991258Y-159119000D01*
X132168742Y-159119000D01*
X132193512Y-159123927D01*
G37*
G36*
X150761000Y-160921000D02*
G01*
X148959000Y-160921000D01*
X148959000Y-159119000D01*
X150761000Y-159119000D01*
X150761000Y-160921000D01*
G37*
G36*
X147433512Y-159123927D02*
G01*
X147582812Y-159153624D01*
X147746784Y-159221544D01*
X147894354Y-159320147D01*
X148019853Y-159445646D01*
X148118456Y-159593216D01*
X148186376Y-159757188D01*
X148221000Y-159931259D01*
X148221000Y-160108741D01*
X148186376Y-160282812D01*
X148118456Y-160446784D01*
X148019853Y-160594354D01*
X147894354Y-160719853D01*
X147746784Y-160818456D01*
X147582812Y-160886376D01*
X147433512Y-160916073D01*
X147408742Y-160921000D01*
X147231258Y-160921000D01*
X147206488Y-160916073D01*
X147057188Y-160886376D01*
X146893216Y-160818456D01*
X146745646Y-160719853D01*
X146620147Y-160594354D01*
X146521544Y-160446784D01*
X146453624Y-160282812D01*
X146419000Y-160108741D01*
X146419000Y-159931259D01*
X146453624Y-159757188D01*
X146521544Y-159593216D01*
X146620147Y-159445646D01*
X146745646Y-159320147D01*
X146893216Y-159221544D01*
X147057188Y-159153624D01*
X147206488Y-159123927D01*
X147231258Y-159119000D01*
X147408742Y-159119000D01*
X147433512Y-159123927D01*
G37*
G36*
X144893512Y-159123927D02*
G01*
X145042812Y-159153624D01*
X145206784Y-159221544D01*
X145354354Y-159320147D01*
X145479853Y-159445646D01*
X145578456Y-159593216D01*
X145646376Y-159757188D01*
X145681000Y-159931259D01*
X145681000Y-160108741D01*
X145646376Y-160282812D01*
X145578456Y-160446784D01*
X145479853Y-160594354D01*
X145354354Y-160719853D01*
X145206784Y-160818456D01*
X145042812Y-160886376D01*
X144893512Y-160916073D01*
X144868742Y-160921000D01*
X144691258Y-160921000D01*
X144666488Y-160916073D01*
X144517188Y-160886376D01*
X144353216Y-160818456D01*
X144205646Y-160719853D01*
X144080147Y-160594354D01*
X143981544Y-160446784D01*
X143913624Y-160282812D01*
X143879000Y-160108741D01*
X143879000Y-159931259D01*
X143913624Y-159757188D01*
X143981544Y-159593216D01*
X144080147Y-159445646D01*
X144205646Y-159320147D01*
X144353216Y-159221544D01*
X144517188Y-159153624D01*
X144666488Y-159123927D01*
X144691258Y-159119000D01*
X144868742Y-159119000D01*
X144893512Y-159123927D01*
G37*
G36*
X142353512Y-159123927D02*
G01*
X142502812Y-159153624D01*
X142666784Y-159221544D01*
X142814354Y-159320147D01*
X142939853Y-159445646D01*
X143038456Y-159593216D01*
X143106376Y-159757188D01*
X143141000Y-159931259D01*
X143141000Y-160108741D01*
X143106376Y-160282812D01*
X143038456Y-160446784D01*
X142939853Y-160594354D01*
X142814354Y-160719853D01*
X142666784Y-160818456D01*
X142502812Y-160886376D01*
X142353512Y-160916073D01*
X142328742Y-160921000D01*
X142151258Y-160921000D01*
X142126488Y-160916073D01*
X141977188Y-160886376D01*
X141813216Y-160818456D01*
X141665646Y-160719853D01*
X141540147Y-160594354D01*
X141441544Y-160446784D01*
X141373624Y-160282812D01*
X141339000Y-160108741D01*
X141339000Y-159931259D01*
X141373624Y-159757188D01*
X141441544Y-159593216D01*
X141540147Y-159445646D01*
X141665646Y-159320147D01*
X141813216Y-159221544D01*
X141977188Y-159153624D01*
X142126488Y-159123927D01*
X142151258Y-159119000D01*
X142328742Y-159119000D01*
X142353512Y-159123927D01*
G37*
G36*
X139813512Y-159123927D02*
G01*
X139962812Y-159153624D01*
X140126784Y-159221544D01*
X140274354Y-159320147D01*
X140399853Y-159445646D01*
X140498456Y-159593216D01*
X140566376Y-159757188D01*
X140601000Y-159931259D01*
X140601000Y-160108741D01*
X140566376Y-160282812D01*
X140498456Y-160446784D01*
X140399853Y-160594354D01*
X140274354Y-160719853D01*
X140126784Y-160818456D01*
X139962812Y-160886376D01*
X139813512Y-160916073D01*
X139788742Y-160921000D01*
X139611258Y-160921000D01*
X139586488Y-160916073D01*
X139437188Y-160886376D01*
X139273216Y-160818456D01*
X139125646Y-160719853D01*
X139000147Y-160594354D01*
X138901544Y-160446784D01*
X138833624Y-160282812D01*
X138799000Y-160108741D01*
X138799000Y-159931259D01*
X138833624Y-159757188D01*
X138901544Y-159593216D01*
X139000147Y-159445646D01*
X139125646Y-159320147D01*
X139273216Y-159221544D01*
X139437188Y-159153624D01*
X139586488Y-159123927D01*
X139611258Y-159119000D01*
X139788742Y-159119000D01*
X139813512Y-159123927D01*
G37*
G36*
X137273512Y-159123927D02*
G01*
X137422812Y-159153624D01*
X137586784Y-159221544D01*
X137734354Y-159320147D01*
X137859853Y-159445646D01*
X137958456Y-159593216D01*
X138026376Y-159757188D01*
X138061000Y-159931259D01*
X138061000Y-160108741D01*
X138026376Y-160282812D01*
X137958456Y-160446784D01*
X137859853Y-160594354D01*
X137734354Y-160719853D01*
X137586784Y-160818456D01*
X137422812Y-160886376D01*
X137273512Y-160916073D01*
X137248742Y-160921000D01*
X137071258Y-160921000D01*
X137046488Y-160916073D01*
X136897188Y-160886376D01*
X136733216Y-160818456D01*
X136585646Y-160719853D01*
X136460147Y-160594354D01*
X136361544Y-160446784D01*
X136293624Y-160282812D01*
X136259000Y-160108741D01*
X136259000Y-159931259D01*
X136293624Y-159757188D01*
X136361544Y-159593216D01*
X136460147Y-159445646D01*
X136585646Y-159320147D01*
X136733216Y-159221544D01*
X136897188Y-159153624D01*
X137046488Y-159123927D01*
X137071258Y-159119000D01*
X137248742Y-159119000D01*
X137273512Y-159123927D01*
G37*
G36*
X134733512Y-159123927D02*
G01*
X134882812Y-159153624D01*
X135046784Y-159221544D01*
X135194354Y-159320147D01*
X135319853Y-159445646D01*
X135418456Y-159593216D01*
X135486376Y-159757188D01*
X135521000Y-159931259D01*
X135521000Y-160108741D01*
X135486376Y-160282812D01*
X135418456Y-160446784D01*
X135319853Y-160594354D01*
X135194354Y-160719853D01*
X135046784Y-160818456D01*
X134882812Y-160886376D01*
X134733512Y-160916073D01*
X134708742Y-160921000D01*
X134531258Y-160921000D01*
X134506488Y-160916073D01*
X134357188Y-160886376D01*
X134193216Y-160818456D01*
X134045646Y-160719853D01*
X133920147Y-160594354D01*
X133821544Y-160446784D01*
X133753624Y-160282812D01*
X133719000Y-160108741D01*
X133719000Y-159931259D01*
X133753624Y-159757188D01*
X133821544Y-159593216D01*
X133920147Y-159445646D01*
X134045646Y-159320147D01*
X134193216Y-159221544D01*
X134357188Y-159153624D01*
X134506488Y-159123927D01*
X134531258Y-159119000D01*
X134708742Y-159119000D01*
X134733512Y-159123927D01*
G37*
G36*
X132981000Y-154571000D02*
G01*
X131179000Y-154571000D01*
X131179000Y-152769000D01*
X132981000Y-152769000D01*
X132981000Y-154571000D01*
G37*
G36*
X153301000Y-154571000D02*
G01*
X151499000Y-154571000D01*
X151499000Y-152769000D01*
X153301000Y-152769000D01*
X153301000Y-154571000D01*
G37*
G36*
X135471000Y-154521000D02*
G01*
X133769000Y-154521000D01*
X133769000Y-152819000D01*
X135471000Y-152819000D01*
X135471000Y-154521000D01*
G37*
G36*
X150108228Y-152851703D02*
G01*
X150263100Y-152915853D01*
X150402481Y-153008985D01*
X150521015Y-153127519D01*
X150614147Y-153266900D01*
X150678297Y-153421772D01*
X150711000Y-153586184D01*
X150711000Y-153753816D01*
X150678297Y-153918228D01*
X150614147Y-154073100D01*
X150521015Y-154212481D01*
X150402481Y-154331015D01*
X150263100Y-154424147D01*
X150108228Y-154488297D01*
X149943816Y-154521000D01*
X149776184Y-154521000D01*
X149611772Y-154488297D01*
X149456900Y-154424147D01*
X149317519Y-154331015D01*
X149198985Y-154212481D01*
X149105853Y-154073100D01*
X149041703Y-153918228D01*
X149009000Y-153753816D01*
X149009000Y-153586184D01*
X149041703Y-153421772D01*
X149105853Y-153266900D01*
X149198985Y-153127519D01*
X149317519Y-153008985D01*
X149456900Y-152915853D01*
X149611772Y-152851703D01*
X149776184Y-152819000D01*
X149943816Y-152819000D01*
X150108228Y-152851703D01*
G37*
G36*
X132193512Y-150233927D02*
G01*
X132342812Y-150263624D01*
X132506784Y-150331544D01*
X132654354Y-150430147D01*
X132779853Y-150555646D01*
X132878456Y-150703216D01*
X132946376Y-150867188D01*
X132981000Y-151041259D01*
X132981000Y-151218741D01*
X132946376Y-151392812D01*
X132878456Y-151556784D01*
X132779853Y-151704354D01*
X132654354Y-151829853D01*
X132506784Y-151928456D01*
X132342812Y-151996376D01*
X132193512Y-152026073D01*
X132168742Y-152031000D01*
X131991258Y-152031000D01*
X131966488Y-152026073D01*
X131817188Y-151996376D01*
X131653216Y-151928456D01*
X131505646Y-151829853D01*
X131380147Y-151704354D01*
X131281544Y-151556784D01*
X131213624Y-151392812D01*
X131179000Y-151218741D01*
X131179000Y-151041259D01*
X131213624Y-150867188D01*
X131281544Y-150703216D01*
X131380147Y-150555646D01*
X131505646Y-150430147D01*
X131653216Y-150331544D01*
X131817188Y-150263624D01*
X131966488Y-150233927D01*
X131991258Y-150229000D01*
X132168742Y-150229000D01*
X132193512Y-150233927D01*
G37*
G36*
X152513512Y-150233927D02*
G01*
X152662812Y-150263624D01*
X152826784Y-150331544D01*
X152974354Y-150430147D01*
X153099853Y-150555646D01*
X153198456Y-150703216D01*
X153266376Y-150867188D01*
X153301000Y-151041259D01*
X153301000Y-151218741D01*
X153266376Y-151392812D01*
X153198456Y-151556784D01*
X153099853Y-151704354D01*
X152974354Y-151829853D01*
X152826784Y-151928456D01*
X152662812Y-151996376D01*
X152513512Y-152026073D01*
X152488742Y-152031000D01*
X152311258Y-152031000D01*
X152286488Y-152026073D01*
X152137188Y-151996376D01*
X151973216Y-151928456D01*
X151825646Y-151829853D01*
X151700147Y-151704354D01*
X151601544Y-151556784D01*
X151533624Y-151392812D01*
X151499000Y-151218741D01*
X151499000Y-151041259D01*
X151533624Y-150867188D01*
X151601544Y-150703216D01*
X151700147Y-150555646D01*
X151825646Y-150430147D01*
X151973216Y-150331544D01*
X152137188Y-150263624D01*
X152286488Y-150233927D01*
X152311258Y-150229000D01*
X152488742Y-150229000D01*
X152513512Y-150233927D01*
G37*
G36*
X150108228Y-150311703D02*
G01*
X150263100Y-150375853D01*
X150402481Y-150468985D01*
X150521015Y-150587519D01*
X150614147Y-150726900D01*
X150678297Y-150881772D01*
X150711000Y-151046184D01*
X150711000Y-151213816D01*
X150678297Y-151378228D01*
X150614147Y-151533100D01*
X150521015Y-151672481D01*
X150402481Y-151791015D01*
X150263100Y-151884147D01*
X150108228Y-151948297D01*
X149943816Y-151981000D01*
X149776184Y-151981000D01*
X149611772Y-151948297D01*
X149456900Y-151884147D01*
X149317519Y-151791015D01*
X149198985Y-151672481D01*
X149105853Y-151533100D01*
X149041703Y-151378228D01*
X149009000Y-151213816D01*
X149009000Y-151046184D01*
X149041703Y-150881772D01*
X149105853Y-150726900D01*
X149198985Y-150587519D01*
X149317519Y-150468985D01*
X149456900Y-150375853D01*
X149611772Y-150311703D01*
X149776184Y-150279000D01*
X149943816Y-150279000D01*
X150108228Y-150311703D01*
G37*
G36*
X134868228Y-150311703D02*
G01*
X135023100Y-150375853D01*
X135162481Y-150468985D01*
X135281015Y-150587519D01*
X135374147Y-150726900D01*
X135438297Y-150881772D01*
X135471000Y-151046184D01*
X135471000Y-151213816D01*
X135438297Y-151378228D01*
X135374147Y-151533100D01*
X135281015Y-151672481D01*
X135162481Y-151791015D01*
X135023100Y-151884147D01*
X134868228Y-151948297D01*
X134703816Y-151981000D01*
X134536184Y-151981000D01*
X134371772Y-151948297D01*
X134216900Y-151884147D01*
X134077519Y-151791015D01*
X133958985Y-151672481D01*
X133865853Y-151533100D01*
X133801703Y-151378228D01*
X133769000Y-151213816D01*
X133769000Y-151046184D01*
X133801703Y-150881772D01*
X133865853Y-150726900D01*
X133958985Y-150587519D01*
X134077519Y-150468985D01*
X134216900Y-150375853D01*
X134371772Y-150311703D01*
X134536184Y-150279000D01*
X134703816Y-150279000D01*
X134868228Y-150311703D01*
G37*
G36*
X119011000Y-150761000D02*
G01*
X117209000Y-150761000D01*
X117209000Y-148959000D01*
X119011000Y-148959000D01*
X119011000Y-150761000D01*
G37*
G36*
X152513512Y-147693927D02*
G01*
X152662812Y-147723624D01*
X152826784Y-147791544D01*
X152974354Y-147890147D01*
X153099853Y-148015646D01*
X153198456Y-148163216D01*
X153266376Y-148327188D01*
X153301000Y-148501259D01*
X153301000Y-148678741D01*
X153266376Y-148852812D01*
X153198456Y-149016784D01*
X153099853Y-149164354D01*
X152974354Y-149289853D01*
X152826784Y-149388456D01*
X152662812Y-149456376D01*
X152513512Y-149486073D01*
X152488742Y-149491000D01*
X152311258Y-149491000D01*
X152286488Y-149486073D01*
X152137188Y-149456376D01*
X151973216Y-149388456D01*
X151825646Y-149289853D01*
X151700147Y-149164354D01*
X151601544Y-149016784D01*
X151533624Y-148852812D01*
X151499000Y-148678741D01*
X151499000Y-148501259D01*
X151533624Y-148327188D01*
X151601544Y-148163216D01*
X151700147Y-148015646D01*
X151825646Y-147890147D01*
X151973216Y-147791544D01*
X152137188Y-147723624D01*
X152286488Y-147693927D01*
X152311258Y-147689000D01*
X152488742Y-147689000D01*
X152513512Y-147693927D01*
G37*
G36*
X132193512Y-147693927D02*
G01*
X132342812Y-147723624D01*
X132506784Y-147791544D01*
X132654354Y-147890147D01*
X132779853Y-148015646D01*
X132878456Y-148163216D01*
X132946376Y-148327188D01*
X132981000Y-148501259D01*
X132981000Y-148678741D01*
X132946376Y-148852812D01*
X132878456Y-149016784D01*
X132779853Y-149164354D01*
X132654354Y-149289853D01*
X132506784Y-149388456D01*
X132342812Y-149456376D01*
X132193512Y-149486073D01*
X132168742Y-149491000D01*
X131991258Y-149491000D01*
X131966488Y-149486073D01*
X131817188Y-149456376D01*
X131653216Y-149388456D01*
X131505646Y-149289853D01*
X131380147Y-149164354D01*
X131281544Y-149016784D01*
X131213624Y-148852812D01*
X131179000Y-148678741D01*
X131179000Y-148501259D01*
X131213624Y-148327188D01*
X131281544Y-148163216D01*
X131380147Y-148015646D01*
X131505646Y-147890147D01*
X131653216Y-147791544D01*
X131817188Y-147723624D01*
X131966488Y-147693927D01*
X131991258Y-147689000D01*
X132168742Y-147689000D01*
X132193512Y-147693927D01*
G37*
G36*
X150108228Y-147771703D02*
G01*
X150263100Y-147835853D01*
X150402481Y-147928985D01*
X150521015Y-148047519D01*
X150614147Y-148186900D01*
X150678297Y-148341772D01*
X150711000Y-148506184D01*
X150711000Y-148673816D01*
X150678297Y-148838228D01*
X150614147Y-148993100D01*
X150521015Y-149132481D01*
X150402481Y-149251015D01*
X150263100Y-149344147D01*
X150108228Y-149408297D01*
X149943816Y-149441000D01*
X149776184Y-149441000D01*
X149611772Y-149408297D01*
X149456900Y-149344147D01*
X149317519Y-149251015D01*
X149198985Y-149132481D01*
X149105853Y-148993100D01*
X149041703Y-148838228D01*
X149009000Y-148673816D01*
X149009000Y-148506184D01*
X149041703Y-148341772D01*
X149105853Y-148186900D01*
X149198985Y-148047519D01*
X149317519Y-147928985D01*
X149456900Y-147835853D01*
X149611772Y-147771703D01*
X149776184Y-147739000D01*
X149943816Y-147739000D01*
X150108228Y-147771703D01*
G37*
G36*
X134868228Y-147771703D02*
G01*
X135023100Y-147835853D01*
X135162481Y-147928985D01*
X135281015Y-148047519D01*
X135374147Y-148186900D01*
X135438297Y-148341772D01*
X135471000Y-148506184D01*
X135471000Y-148673816D01*
X135438297Y-148838228D01*
X135374147Y-148993100D01*
X135281015Y-149132481D01*
X135162481Y-149251015D01*
X135023100Y-149344147D01*
X134868228Y-149408297D01*
X134703816Y-149441000D01*
X134536184Y-149441000D01*
X134371772Y-149408297D01*
X134216900Y-149344147D01*
X134077519Y-149251015D01*
X133958985Y-149132481D01*
X133865853Y-148993100D01*
X133801703Y-148838228D01*
X133769000Y-148673816D01*
X133769000Y-148506184D01*
X133801703Y-148341772D01*
X133865853Y-148186900D01*
X133958985Y-148047519D01*
X134077519Y-147928985D01*
X134216900Y-147835853D01*
X134371772Y-147771703D01*
X134536184Y-147739000D01*
X134703816Y-147739000D01*
X134868228Y-147771703D01*
G37*
G36*
X118223512Y-146423927D02*
G01*
X118372812Y-146453624D01*
X118536784Y-146521544D01*
X118684354Y-146620147D01*
X118809853Y-146745646D01*
X118908456Y-146893216D01*
X118976376Y-147057188D01*
X119011000Y-147231259D01*
X119011000Y-147408741D01*
X118976376Y-147582812D01*
X118908456Y-147746784D01*
X118809853Y-147894354D01*
X118684354Y-148019853D01*
X118536784Y-148118456D01*
X118372812Y-148186376D01*
X118223512Y-148216073D01*
X118198742Y-148221000D01*
X118021258Y-148221000D01*
X117996488Y-148216073D01*
X117847188Y-148186376D01*
X117683216Y-148118456D01*
X117535646Y-148019853D01*
X117410147Y-147894354D01*
X117311544Y-147746784D01*
X117243624Y-147582812D01*
X117209000Y-147408741D01*
X117209000Y-147231259D01*
X117243624Y-147057188D01*
X117311544Y-146893216D01*
X117410147Y-146745646D01*
X117535646Y-146620147D01*
X117683216Y-146521544D01*
X117847188Y-146453624D01*
X117996488Y-146423927D01*
X118021258Y-146419000D01*
X118198742Y-146419000D01*
X118223512Y-146423927D01*
G37*
G36*
X132193512Y-145153927D02*
G01*
X132342812Y-145183624D01*
X132506784Y-145251544D01*
X132654354Y-145350147D01*
X132779853Y-145475646D01*
X132878456Y-145623216D01*
X132946376Y-145787188D01*
X132981000Y-145961259D01*
X132981000Y-146138741D01*
X132946376Y-146312812D01*
X132878456Y-146476784D01*
X132779853Y-146624354D01*
X132654354Y-146749853D01*
X132506784Y-146848456D01*
X132342812Y-146916376D01*
X132193512Y-146946073D01*
X132168742Y-146951000D01*
X131991258Y-146951000D01*
X131966488Y-146946073D01*
X131817188Y-146916376D01*
X131653216Y-146848456D01*
X131505646Y-146749853D01*
X131380147Y-146624354D01*
X131281544Y-146476784D01*
X131213624Y-146312812D01*
X131179000Y-146138741D01*
X131179000Y-145961259D01*
X131213624Y-145787188D01*
X131281544Y-145623216D01*
X131380147Y-145475646D01*
X131505646Y-145350147D01*
X131653216Y-145251544D01*
X131817188Y-145183624D01*
X131966488Y-145153927D01*
X131991258Y-145149000D01*
X132168742Y-145149000D01*
X132193512Y-145153927D01*
G37*
G36*
X152513512Y-145153927D02*
G01*
X152662812Y-145183624D01*
X152826784Y-145251544D01*
X152974354Y-145350147D01*
X153099853Y-145475646D01*
X153198456Y-145623216D01*
X153266376Y-145787188D01*
X153301000Y-145961259D01*
X153301000Y-146138741D01*
X153266376Y-146312812D01*
X153198456Y-146476784D01*
X153099853Y-146624354D01*
X152974354Y-146749853D01*
X152826784Y-146848456D01*
X152662812Y-146916376D01*
X152513512Y-146946073D01*
X152488742Y-146951000D01*
X152311258Y-146951000D01*
X152286488Y-146946073D01*
X152137188Y-146916376D01*
X151973216Y-146848456D01*
X151825646Y-146749853D01*
X151700147Y-146624354D01*
X151601544Y-146476784D01*
X151533624Y-146312812D01*
X151499000Y-146138741D01*
X151499000Y-145961259D01*
X151533624Y-145787188D01*
X151601544Y-145623216D01*
X151700147Y-145475646D01*
X151825646Y-145350147D01*
X151973216Y-145251544D01*
X152137188Y-145183624D01*
X152286488Y-145153927D01*
X152311258Y-145149000D01*
X152488742Y-145149000D01*
X152513512Y-145153927D01*
G37*
G36*
X150108228Y-145231703D02*
G01*
X150263100Y-145295853D01*
X150402481Y-145388985D01*
X150521015Y-145507519D01*
X150614147Y-145646900D01*
X150678297Y-145801772D01*
X150711000Y-145966184D01*
X150711000Y-146133816D01*
X150678297Y-146298228D01*
X150614147Y-146453100D01*
X150521015Y-146592481D01*
X150402481Y-146711015D01*
X150263100Y-146804147D01*
X150108228Y-146868297D01*
X149943816Y-146901000D01*
X149776184Y-146901000D01*
X149611772Y-146868297D01*
X149456900Y-146804147D01*
X149317519Y-146711015D01*
X149198985Y-146592481D01*
X149105853Y-146453100D01*
X149041703Y-146298228D01*
X149009000Y-146133816D01*
X149009000Y-145966184D01*
X149041703Y-145801772D01*
X149105853Y-145646900D01*
X149198985Y-145507519D01*
X149317519Y-145388985D01*
X149456900Y-145295853D01*
X149611772Y-145231703D01*
X149776184Y-145199000D01*
X149943816Y-145199000D01*
X150108228Y-145231703D01*
G37*
G36*
X134868228Y-145231703D02*
G01*
X135023100Y-145295853D01*
X135162481Y-145388985D01*
X135281015Y-145507519D01*
X135374147Y-145646900D01*
X135438297Y-145801772D01*
X135471000Y-145966184D01*
X135471000Y-146133816D01*
X135438297Y-146298228D01*
X135374147Y-146453100D01*
X135281015Y-146592481D01*
X135162481Y-146711015D01*
X135023100Y-146804147D01*
X134868228Y-146868297D01*
X134703816Y-146901000D01*
X134536184Y-146901000D01*
X134371772Y-146868297D01*
X134216900Y-146804147D01*
X134077519Y-146711015D01*
X133958985Y-146592481D01*
X133865853Y-146453100D01*
X133801703Y-146298228D01*
X133769000Y-146133816D01*
X133769000Y-145966184D01*
X133801703Y-145801772D01*
X133865853Y-145646900D01*
X133958985Y-145507519D01*
X134077519Y-145388985D01*
X134216900Y-145295853D01*
X134371772Y-145231703D01*
X134536184Y-145199000D01*
X134703816Y-145199000D01*
X134868228Y-145231703D01*
G37*
G36*
X118223512Y-143883927D02*
G01*
X118372812Y-143913624D01*
X118536784Y-143981544D01*
X118684354Y-144080147D01*
X118809853Y-144205646D01*
X118908456Y-144353216D01*
X118976376Y-144517188D01*
X119011000Y-144691259D01*
X119011000Y-144868741D01*
X118976376Y-145042812D01*
X118908456Y-145206784D01*
X118809853Y-145354354D01*
X118684354Y-145479853D01*
X118536784Y-145578456D01*
X118372812Y-145646376D01*
X118223512Y-145676073D01*
X118198742Y-145681000D01*
X118021258Y-145681000D01*
X117996488Y-145676073D01*
X117847188Y-145646376D01*
X117683216Y-145578456D01*
X117535646Y-145479853D01*
X117410147Y-145354354D01*
X117311544Y-145206784D01*
X117243624Y-145042812D01*
X117209000Y-144868741D01*
X117209000Y-144691259D01*
X117243624Y-144517188D01*
X117311544Y-144353216D01*
X117410147Y-144205646D01*
X117535646Y-144080147D01*
X117683216Y-143981544D01*
X117847188Y-143913624D01*
X117996488Y-143883927D01*
X118021258Y-143879000D01*
X118198742Y-143879000D01*
X118223512Y-143883927D01*
G37*
G36*
X152513512Y-142613927D02*
G01*
X152662812Y-142643624D01*
X152826784Y-142711544D01*
X152974354Y-142810147D01*
X153099853Y-142935646D01*
X153198456Y-143083216D01*
X153266376Y-143247188D01*
X153301000Y-143421259D01*
X153301000Y-143598741D01*
X153266376Y-143772812D01*
X153198456Y-143936784D01*
X153099853Y-144084354D01*
X152974354Y-144209853D01*
X152826784Y-144308456D01*
X152662812Y-144376376D01*
X152513512Y-144406073D01*
X152488742Y-144411000D01*
X152311258Y-144411000D01*
X152286488Y-144406073D01*
X152137188Y-144376376D01*
X151973216Y-144308456D01*
X151825646Y-144209853D01*
X151700147Y-144084354D01*
X151601544Y-143936784D01*
X151533624Y-143772812D01*
X151499000Y-143598741D01*
X151499000Y-143421259D01*
X151533624Y-143247188D01*
X151601544Y-143083216D01*
X151700147Y-142935646D01*
X151825646Y-142810147D01*
X151973216Y-142711544D01*
X152137188Y-142643624D01*
X152286488Y-142613927D01*
X152311258Y-142609000D01*
X152488742Y-142609000D01*
X152513512Y-142613927D01*
G37*
G36*
X132193512Y-142613927D02*
G01*
X132342812Y-142643624D01*
X132506784Y-142711544D01*
X132654354Y-142810147D01*
X132779853Y-142935646D01*
X132878456Y-143083216D01*
X132946376Y-143247188D01*
X132981000Y-143421259D01*
X132981000Y-143598741D01*
X132946376Y-143772812D01*
X132878456Y-143936784D01*
X132779853Y-144084354D01*
X132654354Y-144209853D01*
X132506784Y-144308456D01*
X132342812Y-144376376D01*
X132193512Y-144406073D01*
X132168742Y-144411000D01*
X131991258Y-144411000D01*
X131966488Y-144406073D01*
X131817188Y-144376376D01*
X131653216Y-144308456D01*
X131505646Y-144209853D01*
X131380147Y-144084354D01*
X131281544Y-143936784D01*
X131213624Y-143772812D01*
X131179000Y-143598741D01*
X131179000Y-143421259D01*
X131213624Y-143247188D01*
X131281544Y-143083216D01*
X131380147Y-142935646D01*
X131505646Y-142810147D01*
X131653216Y-142711544D01*
X131817188Y-142643624D01*
X131966488Y-142613927D01*
X131991258Y-142609000D01*
X132168742Y-142609000D01*
X132193512Y-142613927D01*
G37*
G36*
X134868228Y-142691703D02*
G01*
X135023100Y-142755853D01*
X135162481Y-142848985D01*
X135281015Y-142967519D01*
X135374147Y-143106900D01*
X135438297Y-143261772D01*
X135471000Y-143426184D01*
X135471000Y-143593816D01*
X135438297Y-143758228D01*
X135374147Y-143913100D01*
X135281015Y-144052481D01*
X135162481Y-144171015D01*
X135023100Y-144264147D01*
X134868228Y-144328297D01*
X134703816Y-144361000D01*
X134536184Y-144361000D01*
X134371772Y-144328297D01*
X134216900Y-144264147D01*
X134077519Y-144171015D01*
X133958985Y-144052481D01*
X133865853Y-143913100D01*
X133801703Y-143758228D01*
X133769000Y-143593816D01*
X133769000Y-143426184D01*
X133801703Y-143261772D01*
X133865853Y-143106900D01*
X133958985Y-142967519D01*
X134077519Y-142848985D01*
X134216900Y-142755853D01*
X134371772Y-142691703D01*
X134536184Y-142659000D01*
X134703816Y-142659000D01*
X134868228Y-142691703D01*
G37*
G36*
X150108228Y-142691703D02*
G01*
X150263100Y-142755853D01*
X150402481Y-142848985D01*
X150521015Y-142967519D01*
X150614147Y-143106900D01*
X150678297Y-143261772D01*
X150711000Y-143426184D01*
X150711000Y-143593816D01*
X150678297Y-143758228D01*
X150614147Y-143913100D01*
X150521015Y-144052481D01*
X150402481Y-144171015D01*
X150263100Y-144264147D01*
X150108228Y-144328297D01*
X149943816Y-144361000D01*
X149776184Y-144361000D01*
X149611772Y-144328297D01*
X149456900Y-144264147D01*
X149317519Y-144171015D01*
X149198985Y-144052481D01*
X149105853Y-143913100D01*
X149041703Y-143758228D01*
X149009000Y-143593816D01*
X149009000Y-143426184D01*
X149041703Y-143261772D01*
X149105853Y-143106900D01*
X149198985Y-142967519D01*
X149317519Y-142848985D01*
X149456900Y-142755853D01*
X149611772Y-142691703D01*
X149776184Y-142659000D01*
X149943816Y-142659000D01*
X150108228Y-142691703D01*
G37*
G36*
X118223512Y-141343927D02*
G01*
X118372812Y-141373624D01*
X118536784Y-141441544D01*
X118684354Y-141540147D01*
X118809853Y-141665646D01*
X118908456Y-141813216D01*
X118976376Y-141977188D01*
X119011000Y-142151259D01*
X119011000Y-142328741D01*
X118976376Y-142502812D01*
X118908456Y-142666784D01*
X118809853Y-142814354D01*
X118684354Y-142939853D01*
X118536784Y-143038456D01*
X118372812Y-143106376D01*
X118223512Y-143136073D01*
X118198742Y-143141000D01*
X118021258Y-143141000D01*
X117996488Y-143136073D01*
X117847188Y-143106376D01*
X117683216Y-143038456D01*
X117535646Y-142939853D01*
X117410147Y-142814354D01*
X117311544Y-142666784D01*
X117243624Y-142502812D01*
X117209000Y-142328741D01*
X117209000Y-142151259D01*
X117243624Y-141977188D01*
X117311544Y-141813216D01*
X117410147Y-141665646D01*
X117535646Y-141540147D01*
X117683216Y-141441544D01*
X117847188Y-141373624D01*
X117996488Y-141343927D01*
X118021258Y-141339000D01*
X118198742Y-141339000D01*
X118223512Y-141343927D01*
G37*
G36*
X132193512Y-140073927D02*
G01*
X132342812Y-140103624D01*
X132506784Y-140171544D01*
X132654354Y-140270147D01*
X132779853Y-140395646D01*
X132878456Y-140543216D01*
X132946376Y-140707188D01*
X132981000Y-140881259D01*
X132981000Y-141058741D01*
X132946376Y-141232812D01*
X132878456Y-141396784D01*
X132779853Y-141544354D01*
X132654354Y-141669853D01*
X132506784Y-141768456D01*
X132342812Y-141836376D01*
X132193512Y-141866073D01*
X132168742Y-141871000D01*
X131991258Y-141871000D01*
X131966488Y-141866073D01*
X131817188Y-141836376D01*
X131653216Y-141768456D01*
X131505646Y-141669853D01*
X131380147Y-141544354D01*
X131281544Y-141396784D01*
X131213624Y-141232812D01*
X131179000Y-141058741D01*
X131179000Y-140881259D01*
X131213624Y-140707188D01*
X131281544Y-140543216D01*
X131380147Y-140395646D01*
X131505646Y-140270147D01*
X131653216Y-140171544D01*
X131817188Y-140103624D01*
X131966488Y-140073927D01*
X131991258Y-140069000D01*
X132168742Y-140069000D01*
X132193512Y-140073927D01*
G37*
G36*
X152513512Y-140073927D02*
G01*
X152662812Y-140103624D01*
X152826784Y-140171544D01*
X152974354Y-140270147D01*
X153099853Y-140395646D01*
X153198456Y-140543216D01*
X153266376Y-140707188D01*
X153301000Y-140881259D01*
X153301000Y-141058741D01*
X153266376Y-141232812D01*
X153198456Y-141396784D01*
X153099853Y-141544354D01*
X152974354Y-141669853D01*
X152826784Y-141768456D01*
X152662812Y-141836376D01*
X152513512Y-141866073D01*
X152488742Y-141871000D01*
X152311258Y-141871000D01*
X152286488Y-141866073D01*
X152137188Y-141836376D01*
X151973216Y-141768456D01*
X151825646Y-141669853D01*
X151700147Y-141544354D01*
X151601544Y-141396784D01*
X151533624Y-141232812D01*
X151499000Y-141058741D01*
X151499000Y-140881259D01*
X151533624Y-140707188D01*
X151601544Y-140543216D01*
X151700147Y-140395646D01*
X151825646Y-140270147D01*
X151973216Y-140171544D01*
X152137188Y-140103624D01*
X152286488Y-140073927D01*
X152311258Y-140069000D01*
X152488742Y-140069000D01*
X152513512Y-140073927D01*
G37*
G36*
X150108228Y-140151703D02*
G01*
X150263100Y-140215853D01*
X150402481Y-140308985D01*
X150521015Y-140427519D01*
X150614147Y-140566900D01*
X150678297Y-140721772D01*
X150711000Y-140886184D01*
X150711000Y-141053816D01*
X150678297Y-141218228D01*
X150614147Y-141373100D01*
X150521015Y-141512481D01*
X150402481Y-141631015D01*
X150263100Y-141724147D01*
X150108228Y-141788297D01*
X149943816Y-141821000D01*
X149776184Y-141821000D01*
X149611772Y-141788297D01*
X149456900Y-141724147D01*
X149317519Y-141631015D01*
X149198985Y-141512481D01*
X149105853Y-141373100D01*
X149041703Y-141218228D01*
X149009000Y-141053816D01*
X149009000Y-140886184D01*
X149041703Y-140721772D01*
X149105853Y-140566900D01*
X149198985Y-140427519D01*
X149317519Y-140308985D01*
X149456900Y-140215853D01*
X149611772Y-140151703D01*
X149776184Y-140119000D01*
X149943816Y-140119000D01*
X150108228Y-140151703D01*
G37*
G36*
X134868228Y-140151703D02*
G01*
X135023100Y-140215853D01*
X135162481Y-140308985D01*
X135281015Y-140427519D01*
X135374147Y-140566900D01*
X135438297Y-140721772D01*
X135471000Y-140886184D01*
X135471000Y-141053816D01*
X135438297Y-141218228D01*
X135374147Y-141373100D01*
X135281015Y-141512481D01*
X135162481Y-141631015D01*
X135023100Y-141724147D01*
X134868228Y-141788297D01*
X134703816Y-141821000D01*
X134536184Y-141821000D01*
X134371772Y-141788297D01*
X134216900Y-141724147D01*
X134077519Y-141631015D01*
X133958985Y-141512481D01*
X133865853Y-141373100D01*
X133801703Y-141218228D01*
X133769000Y-141053816D01*
X133769000Y-140886184D01*
X133801703Y-140721772D01*
X133865853Y-140566900D01*
X133958985Y-140427519D01*
X134077519Y-140308985D01*
X134216900Y-140215853D01*
X134371772Y-140151703D01*
X134536184Y-140119000D01*
X134703816Y-140119000D01*
X134868228Y-140151703D01*
G37*
G36*
X132193512Y-137533927D02*
G01*
X132342812Y-137563624D01*
X132506784Y-137631544D01*
X132654354Y-137730147D01*
X132779853Y-137855646D01*
X132878456Y-138003216D01*
X132946376Y-138167188D01*
X132981000Y-138341259D01*
X132981000Y-138518741D01*
X132946376Y-138692812D01*
X132878456Y-138856784D01*
X132779853Y-139004354D01*
X132654354Y-139129853D01*
X132506784Y-139228456D01*
X132342812Y-139296376D01*
X132193512Y-139326073D01*
X132168742Y-139331000D01*
X131991258Y-139331000D01*
X131966488Y-139326073D01*
X131817188Y-139296376D01*
X131653216Y-139228456D01*
X131505646Y-139129853D01*
X131380147Y-139004354D01*
X131281544Y-138856784D01*
X131213624Y-138692812D01*
X131179000Y-138518741D01*
X131179000Y-138341259D01*
X131213624Y-138167188D01*
X131281544Y-138003216D01*
X131380147Y-137855646D01*
X131505646Y-137730147D01*
X131653216Y-137631544D01*
X131817188Y-137563624D01*
X131966488Y-137533927D01*
X131991258Y-137529000D01*
X132168742Y-137529000D01*
X132193512Y-137533927D01*
G37*
G36*
X152513512Y-137533927D02*
G01*
X152662812Y-137563624D01*
X152826784Y-137631544D01*
X152974354Y-137730147D01*
X153099853Y-137855646D01*
X153198456Y-138003216D01*
X153266376Y-138167188D01*
X153301000Y-138341259D01*
X153301000Y-138518741D01*
X153266376Y-138692812D01*
X153198456Y-138856784D01*
X153099853Y-139004354D01*
X152974354Y-139129853D01*
X152826784Y-139228456D01*
X152662812Y-139296376D01*
X152513512Y-139326073D01*
X152488742Y-139331000D01*
X152311258Y-139331000D01*
X152286488Y-139326073D01*
X152137188Y-139296376D01*
X151973216Y-139228456D01*
X151825646Y-139129853D01*
X151700147Y-139004354D01*
X151601544Y-138856784D01*
X151533624Y-138692812D01*
X151499000Y-138518741D01*
X151499000Y-138341259D01*
X151533624Y-138167188D01*
X151601544Y-138003216D01*
X151700147Y-137855646D01*
X151825646Y-137730147D01*
X151973216Y-137631544D01*
X152137188Y-137563624D01*
X152286488Y-137533927D01*
X152311258Y-137529000D01*
X152488742Y-137529000D01*
X152513512Y-137533927D01*
G37*
G36*
X150108228Y-137611703D02*
G01*
X150263100Y-137675853D01*
X150402481Y-137768985D01*
X150521015Y-137887519D01*
X150614147Y-138026900D01*
X150678297Y-138181772D01*
X150711000Y-138346184D01*
X150711000Y-138513816D01*
X150678297Y-138678228D01*
X150614147Y-138833100D01*
X150521015Y-138972481D01*
X150402481Y-139091015D01*
X150263100Y-139184147D01*
X150108228Y-139248297D01*
X149943816Y-139281000D01*
X149776184Y-139281000D01*
X149611772Y-139248297D01*
X149456900Y-139184147D01*
X149317519Y-139091015D01*
X149198985Y-138972481D01*
X149105853Y-138833100D01*
X149041703Y-138678228D01*
X149009000Y-138513816D01*
X149009000Y-138346184D01*
X149041703Y-138181772D01*
X149105853Y-138026900D01*
X149198985Y-137887519D01*
X149317519Y-137768985D01*
X149456900Y-137675853D01*
X149611772Y-137611703D01*
X149776184Y-137579000D01*
X149943816Y-137579000D01*
X150108228Y-137611703D01*
G37*
G36*
X134868228Y-137611703D02*
G01*
X135023100Y-137675853D01*
X135162481Y-137768985D01*
X135281015Y-137887519D01*
X135374147Y-138026900D01*
X135438297Y-138181772D01*
X135471000Y-138346184D01*
X135471000Y-138513816D01*
X135438297Y-138678228D01*
X135374147Y-138833100D01*
X135281015Y-138972481D01*
X135162481Y-139091015D01*
X135023100Y-139184147D01*
X134868228Y-139248297D01*
X134703816Y-139281000D01*
X134536184Y-139281000D01*
X134371772Y-139248297D01*
X134216900Y-139184147D01*
X134077519Y-139091015D01*
X133958985Y-138972481D01*
X133865853Y-138833100D01*
X133801703Y-138678228D01*
X133769000Y-138513816D01*
X133769000Y-138346184D01*
X133801703Y-138181772D01*
X133865853Y-138026900D01*
X133958985Y-137887519D01*
X134077519Y-137768985D01*
X134216900Y-137675853D01*
X134371772Y-137611703D01*
X134536184Y-137579000D01*
X134703816Y-137579000D01*
X134868228Y-137611703D01*
G37*
G36*
X152513512Y-134993927D02*
G01*
X152662812Y-135023624D01*
X152826784Y-135091544D01*
X152974354Y-135190147D01*
X153099853Y-135315646D01*
X153198456Y-135463216D01*
X153266376Y-135627188D01*
X153301000Y-135801259D01*
X153301000Y-135978741D01*
X153266376Y-136152812D01*
X153198456Y-136316784D01*
X153099853Y-136464354D01*
X152974354Y-136589853D01*
X152826784Y-136688456D01*
X152662812Y-136756376D01*
X152513512Y-136786073D01*
X152488742Y-136791000D01*
X152311258Y-136791000D01*
X152286488Y-136786073D01*
X152137188Y-136756376D01*
X151973216Y-136688456D01*
X151825646Y-136589853D01*
X151700147Y-136464354D01*
X151601544Y-136316784D01*
X151533624Y-136152812D01*
X151499000Y-135978741D01*
X151499000Y-135801259D01*
X151533624Y-135627188D01*
X151601544Y-135463216D01*
X151700147Y-135315646D01*
X151825646Y-135190147D01*
X151973216Y-135091544D01*
X152137188Y-135023624D01*
X152286488Y-134993927D01*
X152311258Y-134989000D01*
X152488742Y-134989000D01*
X152513512Y-134993927D01*
G37*
G36*
X132193512Y-134993927D02*
G01*
X132342812Y-135023624D01*
X132506784Y-135091544D01*
X132654354Y-135190147D01*
X132779853Y-135315646D01*
X132878456Y-135463216D01*
X132946376Y-135627188D01*
X132981000Y-135801259D01*
X132981000Y-135978741D01*
X132946376Y-136152812D01*
X132878456Y-136316784D01*
X132779853Y-136464354D01*
X132654354Y-136589853D01*
X132506784Y-136688456D01*
X132342812Y-136756376D01*
X132193512Y-136786073D01*
X132168742Y-136791000D01*
X131991258Y-136791000D01*
X131966488Y-136786073D01*
X131817188Y-136756376D01*
X131653216Y-136688456D01*
X131505646Y-136589853D01*
X131380147Y-136464354D01*
X131281544Y-136316784D01*
X131213624Y-136152812D01*
X131179000Y-135978741D01*
X131179000Y-135801259D01*
X131213624Y-135627188D01*
X131281544Y-135463216D01*
X131380147Y-135315646D01*
X131505646Y-135190147D01*
X131653216Y-135091544D01*
X131817188Y-135023624D01*
X131966488Y-134993927D01*
X131991258Y-134989000D01*
X132168742Y-134989000D01*
X132193512Y-134993927D01*
G37*
G36*
X134868228Y-135071703D02*
G01*
X135023100Y-135135853D01*
X135162481Y-135228985D01*
X135281015Y-135347519D01*
X135374147Y-135486900D01*
X135438297Y-135641772D01*
X135471000Y-135806184D01*
X135471000Y-135973816D01*
X135438297Y-136138228D01*
X135374147Y-136293100D01*
X135281015Y-136432481D01*
X135162481Y-136551015D01*
X135023100Y-136644147D01*
X134868228Y-136708297D01*
X134703816Y-136741000D01*
X134536184Y-136741000D01*
X134371772Y-136708297D01*
X134216900Y-136644147D01*
X134077519Y-136551015D01*
X133958985Y-136432481D01*
X133865853Y-136293100D01*
X133801703Y-136138228D01*
X133769000Y-135973816D01*
X133769000Y-135806184D01*
X133801703Y-135641772D01*
X133865853Y-135486900D01*
X133958985Y-135347519D01*
X134077519Y-135228985D01*
X134216900Y-135135853D01*
X134371772Y-135071703D01*
X134536184Y-135039000D01*
X134703816Y-135039000D01*
X134868228Y-135071703D01*
G37*
G36*
X150108228Y-135071703D02*
G01*
X150263100Y-135135853D01*
X150402481Y-135228985D01*
X150521015Y-135347519D01*
X150614147Y-135486900D01*
X150678297Y-135641772D01*
X150711000Y-135806184D01*
X150711000Y-135973816D01*
X150678297Y-136138228D01*
X150614147Y-136293100D01*
X150521015Y-136432481D01*
X150402481Y-136551015D01*
X150263100Y-136644147D01*
X150108228Y-136708297D01*
X149943816Y-136741000D01*
X149776184Y-136741000D01*
X149611772Y-136708297D01*
X149456900Y-136644147D01*
X149317519Y-136551015D01*
X149198985Y-136432481D01*
X149105853Y-136293100D01*
X149041703Y-136138228D01*
X149009000Y-135973816D01*
X149009000Y-135806184D01*
X149041703Y-135641772D01*
X149105853Y-135486900D01*
X149198985Y-135347519D01*
X149317519Y-135228985D01*
X149456900Y-135135853D01*
X149611772Y-135071703D01*
X149776184Y-135039000D01*
X149943816Y-135039000D01*
X150108228Y-135071703D01*
G37*
G36*
X119011000Y-135521000D02*
G01*
X117209000Y-135521000D01*
X117209000Y-133719000D01*
X119011000Y-133719000D01*
X119011000Y-135521000D01*
G37*
G36*
X152513512Y-132453927D02*
G01*
X152662812Y-132483624D01*
X152826784Y-132551544D01*
X152974354Y-132650147D01*
X153099853Y-132775646D01*
X153198456Y-132923216D01*
X153266376Y-133087188D01*
X153301000Y-133261259D01*
X153301000Y-133438741D01*
X153266376Y-133612812D01*
X153198456Y-133776784D01*
X153099853Y-133924354D01*
X152974354Y-134049853D01*
X152826784Y-134148456D01*
X152662812Y-134216376D01*
X152513512Y-134246073D01*
X152488742Y-134251000D01*
X152311258Y-134251000D01*
X152286488Y-134246073D01*
X152137188Y-134216376D01*
X151973216Y-134148456D01*
X151825646Y-134049853D01*
X151700147Y-133924354D01*
X151601544Y-133776784D01*
X151533624Y-133612812D01*
X151499000Y-133438741D01*
X151499000Y-133261259D01*
X151533624Y-133087188D01*
X151601544Y-132923216D01*
X151700147Y-132775646D01*
X151825646Y-132650147D01*
X151973216Y-132551544D01*
X152137188Y-132483624D01*
X152286488Y-132453927D01*
X152311258Y-132449000D01*
X152488742Y-132449000D01*
X152513512Y-132453927D01*
G37*
G36*
X132193512Y-132453927D02*
G01*
X132342812Y-132483624D01*
X132506784Y-132551544D01*
X132654354Y-132650147D01*
X132779853Y-132775646D01*
X132878456Y-132923216D01*
X132946376Y-133087188D01*
X132981000Y-133261259D01*
X132981000Y-133438741D01*
X132946376Y-133612812D01*
X132878456Y-133776784D01*
X132779853Y-133924354D01*
X132654354Y-134049853D01*
X132506784Y-134148456D01*
X132342812Y-134216376D01*
X132193512Y-134246073D01*
X132168742Y-134251000D01*
X131991258Y-134251000D01*
X131966488Y-134246073D01*
X131817188Y-134216376D01*
X131653216Y-134148456D01*
X131505646Y-134049853D01*
X131380147Y-133924354D01*
X131281544Y-133776784D01*
X131213624Y-133612812D01*
X131179000Y-133438741D01*
X131179000Y-133261259D01*
X131213624Y-133087188D01*
X131281544Y-132923216D01*
X131380147Y-132775646D01*
X131505646Y-132650147D01*
X131653216Y-132551544D01*
X131817188Y-132483624D01*
X131966488Y-132453927D01*
X131991258Y-132449000D01*
X132168742Y-132449000D01*
X132193512Y-132453927D01*
G37*
G36*
X134868228Y-132531703D02*
G01*
X135023100Y-132595853D01*
X135162481Y-132688985D01*
X135281015Y-132807519D01*
X135374147Y-132946900D01*
X135438297Y-133101772D01*
X135471000Y-133266184D01*
X135471000Y-133433816D01*
X135438297Y-133598228D01*
X135374147Y-133753100D01*
X135281015Y-133892481D01*
X135162481Y-134011015D01*
X135023100Y-134104147D01*
X134868228Y-134168297D01*
X134703816Y-134201000D01*
X134536184Y-134201000D01*
X134371772Y-134168297D01*
X134216900Y-134104147D01*
X134077519Y-134011015D01*
X133958985Y-133892481D01*
X133865853Y-133753100D01*
X133801703Y-133598228D01*
X133769000Y-133433816D01*
X133769000Y-133266184D01*
X133801703Y-133101772D01*
X133865853Y-132946900D01*
X133958985Y-132807519D01*
X134077519Y-132688985D01*
X134216900Y-132595853D01*
X134371772Y-132531703D01*
X134536184Y-132499000D01*
X134703816Y-132499000D01*
X134868228Y-132531703D01*
G37*
G36*
X150108228Y-132531703D02*
G01*
X150263100Y-132595853D01*
X150402481Y-132688985D01*
X150521015Y-132807519D01*
X150614147Y-132946900D01*
X150678297Y-133101772D01*
X150711000Y-133266184D01*
X150711000Y-133433816D01*
X150678297Y-133598228D01*
X150614147Y-133753100D01*
X150521015Y-133892481D01*
X150402481Y-134011015D01*
X150263100Y-134104147D01*
X150108228Y-134168297D01*
X149943816Y-134201000D01*
X149776184Y-134201000D01*
X149611772Y-134168297D01*
X149456900Y-134104147D01*
X149317519Y-134011015D01*
X149198985Y-133892481D01*
X149105853Y-133753100D01*
X149041703Y-133598228D01*
X149009000Y-133433816D01*
X149009000Y-133266184D01*
X149041703Y-133101772D01*
X149105853Y-132946900D01*
X149198985Y-132807519D01*
X149317519Y-132688985D01*
X149456900Y-132595853D01*
X149611772Y-132531703D01*
X149776184Y-132499000D01*
X149943816Y-132499000D01*
X150108228Y-132531703D01*
G37*
G36*
X118223512Y-131183927D02*
G01*
X118372812Y-131213624D01*
X118536784Y-131281544D01*
X118684354Y-131380147D01*
X118809853Y-131505646D01*
X118908456Y-131653216D01*
X118976376Y-131817188D01*
X119011000Y-131991259D01*
X119011000Y-132168741D01*
X118976376Y-132342812D01*
X118908456Y-132506784D01*
X118809853Y-132654354D01*
X118684354Y-132779853D01*
X118536784Y-132878456D01*
X118372812Y-132946376D01*
X118223512Y-132976073D01*
X118198742Y-132981000D01*
X118021258Y-132981000D01*
X117996488Y-132976073D01*
X117847188Y-132946376D01*
X117683216Y-132878456D01*
X117535646Y-132779853D01*
X117410147Y-132654354D01*
X117311544Y-132506784D01*
X117243624Y-132342812D01*
X117209000Y-132168741D01*
X117209000Y-131991259D01*
X117243624Y-131817188D01*
X117311544Y-131653216D01*
X117410147Y-131505646D01*
X117535646Y-131380147D01*
X117683216Y-131281544D01*
X117847188Y-131213624D01*
X117996488Y-131183927D01*
X118021258Y-131179000D01*
X118198742Y-131179000D01*
X118223512Y-131183927D01*
G37*
G36*
X152513512Y-129913927D02*
G01*
X152662812Y-129943624D01*
X152826784Y-130011544D01*
X152974354Y-130110147D01*
X153099853Y-130235646D01*
X153198456Y-130383216D01*
X153266376Y-130547188D01*
X153301000Y-130721259D01*
X153301000Y-130898741D01*
X153266376Y-131072812D01*
X153198456Y-131236784D01*
X153099853Y-131384354D01*
X152974354Y-131509853D01*
X152826784Y-131608456D01*
X152662812Y-131676376D01*
X152513512Y-131706073D01*
X152488742Y-131711000D01*
X152311258Y-131711000D01*
X152286488Y-131706073D01*
X152137188Y-131676376D01*
X151973216Y-131608456D01*
X151825646Y-131509853D01*
X151700147Y-131384354D01*
X151601544Y-131236784D01*
X151533624Y-131072812D01*
X151499000Y-130898741D01*
X151499000Y-130721259D01*
X151533624Y-130547188D01*
X151601544Y-130383216D01*
X151700147Y-130235646D01*
X151825646Y-130110147D01*
X151973216Y-130011544D01*
X152137188Y-129943624D01*
X152286488Y-129913927D01*
X152311258Y-129909000D01*
X152488742Y-129909000D01*
X152513512Y-129913927D01*
G37*
G36*
X132193512Y-129913927D02*
G01*
X132342812Y-129943624D01*
X132506784Y-130011544D01*
X132654354Y-130110147D01*
X132779853Y-130235646D01*
X132878456Y-130383216D01*
X132946376Y-130547188D01*
X132981000Y-130721259D01*
X132981000Y-130898741D01*
X132946376Y-131072812D01*
X132878456Y-131236784D01*
X132779853Y-131384354D01*
X132654354Y-131509853D01*
X132506784Y-131608456D01*
X132342812Y-131676376D01*
X132193512Y-131706073D01*
X132168742Y-131711000D01*
X131991258Y-131711000D01*
X131966488Y-131706073D01*
X131817188Y-131676376D01*
X131653216Y-131608456D01*
X131505646Y-131509853D01*
X131380147Y-131384354D01*
X131281544Y-131236784D01*
X131213624Y-131072812D01*
X131179000Y-130898741D01*
X131179000Y-130721259D01*
X131213624Y-130547188D01*
X131281544Y-130383216D01*
X131380147Y-130235646D01*
X131505646Y-130110147D01*
X131653216Y-130011544D01*
X131817188Y-129943624D01*
X131966488Y-129913927D01*
X131991258Y-129909000D01*
X132168742Y-129909000D01*
X132193512Y-129913927D01*
G37*
G36*
X134868228Y-129991703D02*
G01*
X135023100Y-130055853D01*
X135162481Y-130148985D01*
X135281015Y-130267519D01*
X135374147Y-130406900D01*
X135438297Y-130561772D01*
X135471000Y-130726184D01*
X135471000Y-130893816D01*
X135438297Y-131058228D01*
X135374147Y-131213100D01*
X135281015Y-131352481D01*
X135162481Y-131471015D01*
X135023100Y-131564147D01*
X134868228Y-131628297D01*
X134703816Y-131661000D01*
X134536184Y-131661000D01*
X134371772Y-131628297D01*
X134216900Y-131564147D01*
X134077519Y-131471015D01*
X133958985Y-131352481D01*
X133865853Y-131213100D01*
X133801703Y-131058228D01*
X133769000Y-130893816D01*
X133769000Y-130726184D01*
X133801703Y-130561772D01*
X133865853Y-130406900D01*
X133958985Y-130267519D01*
X134077519Y-130148985D01*
X134216900Y-130055853D01*
X134371772Y-129991703D01*
X134536184Y-129959000D01*
X134703816Y-129959000D01*
X134868228Y-129991703D01*
G37*
G36*
X150108228Y-129991703D02*
G01*
X150263100Y-130055853D01*
X150402481Y-130148985D01*
X150521015Y-130267519D01*
X150614147Y-130406900D01*
X150678297Y-130561772D01*
X150711000Y-130726184D01*
X150711000Y-130893816D01*
X150678297Y-131058228D01*
X150614147Y-131213100D01*
X150521015Y-131352481D01*
X150402481Y-131471015D01*
X150263100Y-131564147D01*
X150108228Y-131628297D01*
X149943816Y-131661000D01*
X149776184Y-131661000D01*
X149611772Y-131628297D01*
X149456900Y-131564147D01*
X149317519Y-131471015D01*
X149198985Y-131352481D01*
X149105853Y-131213100D01*
X149041703Y-131058228D01*
X149009000Y-130893816D01*
X149009000Y-130726184D01*
X149041703Y-130561772D01*
X149105853Y-130406900D01*
X149198985Y-130267519D01*
X149317519Y-130148985D01*
X149456900Y-130055853D01*
X149611772Y-129991703D01*
X149776184Y-129959000D01*
X149943816Y-129959000D01*
X150108228Y-129991703D01*
G37*
G36*
X118223512Y-128643927D02*
G01*
X118372812Y-128673624D01*
X118536784Y-128741544D01*
X118684354Y-128840147D01*
X118809853Y-128965646D01*
X118908456Y-129113216D01*
X118976376Y-129277188D01*
X119011000Y-129451259D01*
X119011000Y-129628741D01*
X118976376Y-129802812D01*
X118908456Y-129966784D01*
X118809853Y-130114354D01*
X118684354Y-130239853D01*
X118536784Y-130338456D01*
X118372812Y-130406376D01*
X118223512Y-130436073D01*
X118198742Y-130441000D01*
X118021258Y-130441000D01*
X117996488Y-130436073D01*
X117847188Y-130406376D01*
X117683216Y-130338456D01*
X117535646Y-130239853D01*
X117410147Y-130114354D01*
X117311544Y-129966784D01*
X117243624Y-129802812D01*
X117209000Y-129628741D01*
X117209000Y-129451259D01*
X117243624Y-129277188D01*
X117311544Y-129113216D01*
X117410147Y-128965646D01*
X117535646Y-128840147D01*
X117683216Y-128741544D01*
X117847188Y-128673624D01*
X117996488Y-128643927D01*
X118021258Y-128639000D01*
X118198742Y-128639000D01*
X118223512Y-128643927D01*
G37*
G36*
X132193512Y-127373927D02*
G01*
X132342812Y-127403624D01*
X132506784Y-127471544D01*
X132654354Y-127570147D01*
X132779853Y-127695646D01*
X132878456Y-127843216D01*
X132946376Y-128007188D01*
X132981000Y-128181259D01*
X132981000Y-128358741D01*
X132946376Y-128532812D01*
X132878456Y-128696784D01*
X132779853Y-128844354D01*
X132654354Y-128969853D01*
X132506784Y-129068456D01*
X132342812Y-129136376D01*
X132193512Y-129166073D01*
X132168742Y-129171000D01*
X131991258Y-129171000D01*
X131966488Y-129166073D01*
X131817188Y-129136376D01*
X131653216Y-129068456D01*
X131505646Y-128969853D01*
X131380147Y-128844354D01*
X131281544Y-128696784D01*
X131213624Y-128532812D01*
X131179000Y-128358741D01*
X131179000Y-128181259D01*
X131213624Y-128007188D01*
X131281544Y-127843216D01*
X131380147Y-127695646D01*
X131505646Y-127570147D01*
X131653216Y-127471544D01*
X131817188Y-127403624D01*
X131966488Y-127373927D01*
X131991258Y-127369000D01*
X132168742Y-127369000D01*
X132193512Y-127373927D01*
G37*
G36*
X152513512Y-127373927D02*
G01*
X152662812Y-127403624D01*
X152826784Y-127471544D01*
X152974354Y-127570147D01*
X153099853Y-127695646D01*
X153198456Y-127843216D01*
X153266376Y-128007188D01*
X153301000Y-128181259D01*
X153301000Y-128358741D01*
X153266376Y-128532812D01*
X153198456Y-128696784D01*
X153099853Y-128844354D01*
X152974354Y-128969853D01*
X152826784Y-129068456D01*
X152662812Y-129136376D01*
X152513512Y-129166073D01*
X152488742Y-129171000D01*
X152311258Y-129171000D01*
X152286488Y-129166073D01*
X152137188Y-129136376D01*
X151973216Y-129068456D01*
X151825646Y-128969853D01*
X151700147Y-128844354D01*
X151601544Y-128696784D01*
X151533624Y-128532812D01*
X151499000Y-128358741D01*
X151499000Y-128181259D01*
X151533624Y-128007188D01*
X151601544Y-127843216D01*
X151700147Y-127695646D01*
X151825646Y-127570147D01*
X151973216Y-127471544D01*
X152137188Y-127403624D01*
X152286488Y-127373927D01*
X152311258Y-127369000D01*
X152488742Y-127369000D01*
X152513512Y-127373927D01*
G37*
G36*
X134868228Y-127451703D02*
G01*
X135023100Y-127515853D01*
X135162481Y-127608985D01*
X135281015Y-127727519D01*
X135374147Y-127866900D01*
X135438297Y-128021772D01*
X135471000Y-128186184D01*
X135471000Y-128353816D01*
X135438297Y-128518228D01*
X135374147Y-128673100D01*
X135281015Y-128812481D01*
X135162481Y-128931015D01*
X135023100Y-129024147D01*
X134868228Y-129088297D01*
X134703816Y-129121000D01*
X134536184Y-129121000D01*
X134371772Y-129088297D01*
X134216900Y-129024147D01*
X134077519Y-128931015D01*
X133958985Y-128812481D01*
X133865853Y-128673100D01*
X133801703Y-128518228D01*
X133769000Y-128353816D01*
X133769000Y-128186184D01*
X133801703Y-128021772D01*
X133865853Y-127866900D01*
X133958985Y-127727519D01*
X134077519Y-127608985D01*
X134216900Y-127515853D01*
X134371772Y-127451703D01*
X134536184Y-127419000D01*
X134703816Y-127419000D01*
X134868228Y-127451703D01*
G37*
G36*
X150108228Y-127451703D02*
G01*
X150263100Y-127515853D01*
X150402481Y-127608985D01*
X150521015Y-127727519D01*
X150614147Y-127866900D01*
X150678297Y-128021772D01*
X150711000Y-128186184D01*
X150711000Y-128353816D01*
X150678297Y-128518228D01*
X150614147Y-128673100D01*
X150521015Y-128812481D01*
X150402481Y-128931015D01*
X150263100Y-129024147D01*
X150108228Y-129088297D01*
X149943816Y-129121000D01*
X149776184Y-129121000D01*
X149611772Y-129088297D01*
X149456900Y-129024147D01*
X149317519Y-128931015D01*
X149198985Y-128812481D01*
X149105853Y-128673100D01*
X149041703Y-128518228D01*
X149009000Y-128353816D01*
X149009000Y-128186184D01*
X149041703Y-128021772D01*
X149105853Y-127866900D01*
X149198985Y-127727519D01*
X149317519Y-127608985D01*
X149456900Y-127515853D01*
X149611772Y-127451703D01*
X149776184Y-127419000D01*
X149943816Y-127419000D01*
X150108228Y-127451703D01*
G37*
G36*
X118223512Y-126103927D02*
G01*
X118372812Y-126133624D01*
X118536784Y-126201544D01*
X118684354Y-126300147D01*
X118809853Y-126425646D01*
X118908456Y-126573216D01*
X118976376Y-126737188D01*
X119011000Y-126911259D01*
X119011000Y-127088741D01*
X118976376Y-127262812D01*
X118908456Y-127426784D01*
X118809853Y-127574354D01*
X118684354Y-127699853D01*
X118536784Y-127798456D01*
X118372812Y-127866376D01*
X118223512Y-127896073D01*
X118198742Y-127901000D01*
X118021258Y-127901000D01*
X117996488Y-127896073D01*
X117847188Y-127866376D01*
X117683216Y-127798456D01*
X117535646Y-127699853D01*
X117410147Y-127574354D01*
X117311544Y-127426784D01*
X117243624Y-127262812D01*
X117209000Y-127088741D01*
X117209000Y-126911259D01*
X117243624Y-126737188D01*
X117311544Y-126573216D01*
X117410147Y-126425646D01*
X117535646Y-126300147D01*
X117683216Y-126201544D01*
X117847188Y-126133624D01*
X117996488Y-126103927D01*
X118021258Y-126099000D01*
X118198742Y-126099000D01*
X118223512Y-126103927D01*
G37*
G36*
X132193512Y-124833927D02*
G01*
X132342812Y-124863624D01*
X132506784Y-124931544D01*
X132654354Y-125030147D01*
X132779853Y-125155646D01*
X132878456Y-125303216D01*
X132946376Y-125467188D01*
X132981000Y-125641259D01*
X132981000Y-125818741D01*
X132946376Y-125992812D01*
X132878456Y-126156784D01*
X132779853Y-126304354D01*
X132654354Y-126429853D01*
X132506784Y-126528456D01*
X132342812Y-126596376D01*
X132193512Y-126626073D01*
X132168742Y-126631000D01*
X131991258Y-126631000D01*
X131966488Y-126626073D01*
X131817188Y-126596376D01*
X131653216Y-126528456D01*
X131505646Y-126429853D01*
X131380147Y-126304354D01*
X131281544Y-126156784D01*
X131213624Y-125992812D01*
X131179000Y-125818741D01*
X131179000Y-125641259D01*
X131213624Y-125467188D01*
X131281544Y-125303216D01*
X131380147Y-125155646D01*
X131505646Y-125030147D01*
X131653216Y-124931544D01*
X131817188Y-124863624D01*
X131966488Y-124833927D01*
X131991258Y-124829000D01*
X132168742Y-124829000D01*
X132193512Y-124833927D01*
G37*
G36*
X152513512Y-124833927D02*
G01*
X152662812Y-124863624D01*
X152826784Y-124931544D01*
X152974354Y-125030147D01*
X153099853Y-125155646D01*
X153198456Y-125303216D01*
X153266376Y-125467188D01*
X153301000Y-125641259D01*
X153301000Y-125818741D01*
X153266376Y-125992812D01*
X153198456Y-126156784D01*
X153099853Y-126304354D01*
X152974354Y-126429853D01*
X152826784Y-126528456D01*
X152662812Y-126596376D01*
X152513512Y-126626073D01*
X152488742Y-126631000D01*
X152311258Y-126631000D01*
X152286488Y-126626073D01*
X152137188Y-126596376D01*
X151973216Y-126528456D01*
X151825646Y-126429853D01*
X151700147Y-126304354D01*
X151601544Y-126156784D01*
X151533624Y-125992812D01*
X151499000Y-125818741D01*
X151499000Y-125641259D01*
X151533624Y-125467188D01*
X151601544Y-125303216D01*
X151700147Y-125155646D01*
X151825646Y-125030147D01*
X151973216Y-124931544D01*
X152137188Y-124863624D01*
X152286488Y-124833927D01*
X152311258Y-124829000D01*
X152488742Y-124829000D01*
X152513512Y-124833927D01*
G37*
G36*
X134868228Y-124911703D02*
G01*
X135023100Y-124975853D01*
X135162481Y-125068985D01*
X135281015Y-125187519D01*
X135374147Y-125326900D01*
X135438297Y-125481772D01*
X135471000Y-125646184D01*
X135471000Y-125813816D01*
X135438297Y-125978228D01*
X135374147Y-126133100D01*
X135281015Y-126272481D01*
X135162481Y-126391015D01*
X135023100Y-126484147D01*
X134868228Y-126548297D01*
X134703816Y-126581000D01*
X134536184Y-126581000D01*
X134371772Y-126548297D01*
X134216900Y-126484147D01*
X134077519Y-126391015D01*
X133958985Y-126272481D01*
X133865853Y-126133100D01*
X133801703Y-125978228D01*
X133769000Y-125813816D01*
X133769000Y-125646184D01*
X133801703Y-125481772D01*
X133865853Y-125326900D01*
X133958985Y-125187519D01*
X134077519Y-125068985D01*
X134216900Y-124975853D01*
X134371772Y-124911703D01*
X134536184Y-124879000D01*
X134703816Y-124879000D01*
X134868228Y-124911703D01*
G37*
G36*
X150108228Y-124911703D02*
G01*
X150263100Y-124975853D01*
X150402481Y-125068985D01*
X150521015Y-125187519D01*
X150614147Y-125326900D01*
X150678297Y-125481772D01*
X150711000Y-125646184D01*
X150711000Y-125813816D01*
X150678297Y-125978228D01*
X150614147Y-126133100D01*
X150521015Y-126272481D01*
X150402481Y-126391015D01*
X150263100Y-126484147D01*
X150108228Y-126548297D01*
X149943816Y-126581000D01*
X149776184Y-126581000D01*
X149611772Y-126548297D01*
X149456900Y-126484147D01*
X149317519Y-126391015D01*
X149198985Y-126272481D01*
X149105853Y-126133100D01*
X149041703Y-125978228D01*
X149009000Y-125813816D01*
X149009000Y-125646184D01*
X149041703Y-125481772D01*
X149105853Y-125326900D01*
X149198985Y-125187519D01*
X149317519Y-125068985D01*
X149456900Y-124975853D01*
X149611772Y-124911703D01*
X149776184Y-124879000D01*
X149943816Y-124879000D01*
X150108228Y-124911703D01*
G37*
G36*
X152513512Y-122293927D02*
G01*
X152662812Y-122323624D01*
X152826784Y-122391544D01*
X152974354Y-122490147D01*
X153099853Y-122615646D01*
X153198456Y-122763216D01*
X153266376Y-122927188D01*
X153301000Y-123101259D01*
X153301000Y-123278741D01*
X153266376Y-123452812D01*
X153198456Y-123616784D01*
X153099853Y-123764354D01*
X152974354Y-123889853D01*
X152826784Y-123988456D01*
X152662812Y-124056376D01*
X152513512Y-124086073D01*
X152488742Y-124091000D01*
X152311258Y-124091000D01*
X152286488Y-124086073D01*
X152137188Y-124056376D01*
X151973216Y-123988456D01*
X151825646Y-123889853D01*
X151700147Y-123764354D01*
X151601544Y-123616784D01*
X151533624Y-123452812D01*
X151499000Y-123278741D01*
X151499000Y-123101259D01*
X151533624Y-122927188D01*
X151601544Y-122763216D01*
X151700147Y-122615646D01*
X151825646Y-122490147D01*
X151973216Y-122391544D01*
X152137188Y-122323624D01*
X152286488Y-122293927D01*
X152311258Y-122289000D01*
X152488742Y-122289000D01*
X152513512Y-122293927D01*
G37*
G36*
X132193512Y-122293927D02*
G01*
X132342812Y-122323624D01*
X132506784Y-122391544D01*
X132654354Y-122490147D01*
X132779853Y-122615646D01*
X132878456Y-122763216D01*
X132946376Y-122927188D01*
X132981000Y-123101259D01*
X132981000Y-123278741D01*
X132946376Y-123452812D01*
X132878456Y-123616784D01*
X132779853Y-123764354D01*
X132654354Y-123889853D01*
X132506784Y-123988456D01*
X132342812Y-124056376D01*
X132193512Y-124086073D01*
X132168742Y-124091000D01*
X131991258Y-124091000D01*
X131966488Y-124086073D01*
X131817188Y-124056376D01*
X131653216Y-123988456D01*
X131505646Y-123889853D01*
X131380147Y-123764354D01*
X131281544Y-123616784D01*
X131213624Y-123452812D01*
X131179000Y-123278741D01*
X131179000Y-123101259D01*
X131213624Y-122927188D01*
X131281544Y-122763216D01*
X131380147Y-122615646D01*
X131505646Y-122490147D01*
X131653216Y-122391544D01*
X131817188Y-122323624D01*
X131966488Y-122293927D01*
X131991258Y-122289000D01*
X132168742Y-122289000D01*
X132193512Y-122293927D01*
G37*
G36*
X134868228Y-122371703D02*
G01*
X135023100Y-122435853D01*
X135162481Y-122528985D01*
X135281015Y-122647519D01*
X135374147Y-122786900D01*
X135438297Y-122941772D01*
X135471000Y-123106184D01*
X135471000Y-123273816D01*
X135438297Y-123438228D01*
X135374147Y-123593100D01*
X135281015Y-123732481D01*
X135162481Y-123851015D01*
X135023100Y-123944147D01*
X134868228Y-124008297D01*
X134703816Y-124041000D01*
X134536184Y-124041000D01*
X134371772Y-124008297D01*
X134216900Y-123944147D01*
X134077519Y-123851015D01*
X133958985Y-123732481D01*
X133865853Y-123593100D01*
X133801703Y-123438228D01*
X133769000Y-123273816D01*
X133769000Y-123106184D01*
X133801703Y-122941772D01*
X133865853Y-122786900D01*
X133958985Y-122647519D01*
X134077519Y-122528985D01*
X134216900Y-122435853D01*
X134371772Y-122371703D01*
X134536184Y-122339000D01*
X134703816Y-122339000D01*
X134868228Y-122371703D01*
G37*
G36*
X150108228Y-122371703D02*
G01*
X150263100Y-122435853D01*
X150402481Y-122528985D01*
X150521015Y-122647519D01*
X150614147Y-122786900D01*
X150678297Y-122941772D01*
X150711000Y-123106184D01*
X150711000Y-123273816D01*
X150678297Y-123438228D01*
X150614147Y-123593100D01*
X150521015Y-123732481D01*
X150402481Y-123851015D01*
X150263100Y-123944147D01*
X150108228Y-124008297D01*
X149943816Y-124041000D01*
X149776184Y-124041000D01*
X149611772Y-124008297D01*
X149456900Y-123944147D01*
X149317519Y-123851015D01*
X149198985Y-123732481D01*
X149105853Y-123593100D01*
X149041703Y-123438228D01*
X149009000Y-123273816D01*
X149009000Y-123106184D01*
X149041703Y-122941772D01*
X149105853Y-122786900D01*
X149198985Y-122647519D01*
X149317519Y-122528985D01*
X149456900Y-122435853D01*
X149611772Y-122371703D01*
X149776184Y-122339000D01*
X149943816Y-122339000D01*
X150108228Y-122371703D01*
G37*
G36*
X125361000Y-122821000D02*
G01*
X123559000Y-122821000D01*
X123559000Y-121019000D01*
X125361000Y-121019000D01*
X125361000Y-122821000D01*
G37*
G36*
X132193512Y-119753927D02*
G01*
X132342812Y-119783624D01*
X132506784Y-119851544D01*
X132654354Y-119950147D01*
X132779853Y-120075646D01*
X132878456Y-120223216D01*
X132946376Y-120387188D01*
X132981000Y-120561259D01*
X132981000Y-120738741D01*
X132946376Y-120912812D01*
X132878456Y-121076784D01*
X132779853Y-121224354D01*
X132654354Y-121349853D01*
X132506784Y-121448456D01*
X132342812Y-121516376D01*
X132193512Y-121546073D01*
X132168742Y-121551000D01*
X131991258Y-121551000D01*
X131966488Y-121546073D01*
X131817188Y-121516376D01*
X131653216Y-121448456D01*
X131505646Y-121349853D01*
X131380147Y-121224354D01*
X131281544Y-121076784D01*
X131213624Y-120912812D01*
X131179000Y-120738741D01*
X131179000Y-120561259D01*
X131213624Y-120387188D01*
X131281544Y-120223216D01*
X131380147Y-120075646D01*
X131505646Y-119950147D01*
X131653216Y-119851544D01*
X131817188Y-119783624D01*
X131966488Y-119753927D01*
X131991258Y-119749000D01*
X132168742Y-119749000D01*
X132193512Y-119753927D01*
G37*
G36*
X152513512Y-119753927D02*
G01*
X152662812Y-119783624D01*
X152826784Y-119851544D01*
X152974354Y-119950147D01*
X153099853Y-120075646D01*
X153198456Y-120223216D01*
X153266376Y-120387188D01*
X153301000Y-120561259D01*
X153301000Y-120738741D01*
X153266376Y-120912812D01*
X153198456Y-121076784D01*
X153099853Y-121224354D01*
X152974354Y-121349853D01*
X152826784Y-121448456D01*
X152662812Y-121516376D01*
X152513512Y-121546073D01*
X152488742Y-121551000D01*
X152311258Y-121551000D01*
X152286488Y-121546073D01*
X152137188Y-121516376D01*
X151973216Y-121448456D01*
X151825646Y-121349853D01*
X151700147Y-121224354D01*
X151601544Y-121076784D01*
X151533624Y-120912812D01*
X151499000Y-120738741D01*
X151499000Y-120561259D01*
X151533624Y-120387188D01*
X151601544Y-120223216D01*
X151700147Y-120075646D01*
X151825646Y-119950147D01*
X151973216Y-119851544D01*
X152137188Y-119783624D01*
X152286488Y-119753927D01*
X152311258Y-119749000D01*
X152488742Y-119749000D01*
X152513512Y-119753927D01*
G37*
G36*
X150108228Y-119831703D02*
G01*
X150263100Y-119895853D01*
X150402481Y-119988985D01*
X150521015Y-120107519D01*
X150614147Y-120246900D01*
X150678297Y-120401772D01*
X150711000Y-120566184D01*
X150711000Y-120733816D01*
X150678297Y-120898228D01*
X150614147Y-121053100D01*
X150521015Y-121192481D01*
X150402481Y-121311015D01*
X150263100Y-121404147D01*
X150108228Y-121468297D01*
X149943816Y-121501000D01*
X149776184Y-121501000D01*
X149611772Y-121468297D01*
X149456900Y-121404147D01*
X149317519Y-121311015D01*
X149198985Y-121192481D01*
X149105853Y-121053100D01*
X149041703Y-120898228D01*
X149009000Y-120733816D01*
X149009000Y-120566184D01*
X149041703Y-120401772D01*
X149105853Y-120246900D01*
X149198985Y-120107519D01*
X149317519Y-119988985D01*
X149456900Y-119895853D01*
X149611772Y-119831703D01*
X149776184Y-119799000D01*
X149943816Y-119799000D01*
X150108228Y-119831703D01*
G37*
G36*
X134868228Y-119831703D02*
G01*
X135023100Y-119895853D01*
X135162481Y-119988985D01*
X135281015Y-120107519D01*
X135374147Y-120246900D01*
X135438297Y-120401772D01*
X135471000Y-120566184D01*
X135471000Y-120733816D01*
X135438297Y-120898228D01*
X135374147Y-121053100D01*
X135281015Y-121192481D01*
X135162481Y-121311015D01*
X135023100Y-121404147D01*
X134868228Y-121468297D01*
X134703816Y-121501000D01*
X134536184Y-121501000D01*
X134371772Y-121468297D01*
X134216900Y-121404147D01*
X134077519Y-121311015D01*
X133958985Y-121192481D01*
X133865853Y-121053100D01*
X133801703Y-120898228D01*
X133769000Y-120733816D01*
X133769000Y-120566184D01*
X133801703Y-120401772D01*
X133865853Y-120246900D01*
X133958985Y-120107519D01*
X134077519Y-119988985D01*
X134216900Y-119895853D01*
X134371772Y-119831703D01*
X134536184Y-119799000D01*
X134703816Y-119799000D01*
X134868228Y-119831703D01*
G37*
G36*
X121197645Y-117014651D02*
G01*
X121339176Y-117073275D01*
X121539330Y-117156181D01*
X121846836Y-117361651D01*
X122108349Y-117623164D01*
X122313819Y-117930670D01*
X122353382Y-118026185D01*
X122455349Y-118272355D01*
X122527500Y-118635081D01*
X122527500Y-119004919D01*
X122455349Y-119367645D01*
X122396725Y-119509176D01*
X122313819Y-119709330D01*
X122108349Y-120016836D01*
X121846836Y-120278349D01*
X121539330Y-120483819D01*
X121352374Y-120561258D01*
X121197645Y-120625349D01*
X120834919Y-120697500D01*
X120465081Y-120697500D01*
X120102355Y-120625349D01*
X119947626Y-120561258D01*
X119760670Y-120483819D01*
X119453164Y-120278349D01*
X119191651Y-120016836D01*
X118986181Y-119709330D01*
X118903275Y-119509176D01*
X118844651Y-119367645D01*
X118772500Y-119004919D01*
X118772500Y-118635081D01*
X118844651Y-118272355D01*
X118946618Y-118026185D01*
X118986181Y-117930670D01*
X119191651Y-117623164D01*
X119453164Y-117361651D01*
X119760670Y-117156181D01*
X119960824Y-117073275D01*
X120102355Y-117014651D01*
X120465081Y-116942500D01*
X120834919Y-116942500D01*
X121197645Y-117014651D01*
G37*
G36*
X152513512Y-117213927D02*
G01*
X152662812Y-117243624D01*
X152826784Y-117311544D01*
X152974354Y-117410147D01*
X153099853Y-117535646D01*
X153198456Y-117683216D01*
X153266376Y-117847188D01*
X153301000Y-118021259D01*
X153301000Y-118198741D01*
X153266376Y-118372812D01*
X153198456Y-118536784D01*
X153099853Y-118684354D01*
X152974354Y-118809853D01*
X152826784Y-118908456D01*
X152662812Y-118976376D01*
X152519318Y-119004918D01*
X152488742Y-119011000D01*
X152311258Y-119011000D01*
X152280682Y-119004918D01*
X152137188Y-118976376D01*
X151973216Y-118908456D01*
X151825646Y-118809853D01*
X151700147Y-118684354D01*
X151601544Y-118536784D01*
X151533624Y-118372812D01*
X151499000Y-118198741D01*
X151499000Y-118021259D01*
X151533624Y-117847188D01*
X151601544Y-117683216D01*
X151700147Y-117535646D01*
X151825646Y-117410147D01*
X151973216Y-117311544D01*
X152137188Y-117243624D01*
X152286488Y-117213927D01*
X152311258Y-117209000D01*
X152488742Y-117209000D01*
X152513512Y-117213927D01*
G37*
G36*
X132193512Y-117213927D02*
G01*
X132342812Y-117243624D01*
X132506784Y-117311544D01*
X132654354Y-117410147D01*
X132779853Y-117535646D01*
X132878456Y-117683216D01*
X132946376Y-117847188D01*
X132981000Y-118021259D01*
X132981000Y-118198741D01*
X132946376Y-118372812D01*
X132878456Y-118536784D01*
X132779853Y-118684354D01*
X132654354Y-118809853D01*
X132506784Y-118908456D01*
X132342812Y-118976376D01*
X132199318Y-119004918D01*
X132168742Y-119011000D01*
X131991258Y-119011000D01*
X131960682Y-119004918D01*
X131817188Y-118976376D01*
X131653216Y-118908456D01*
X131505646Y-118809853D01*
X131380147Y-118684354D01*
X131281544Y-118536784D01*
X131213624Y-118372812D01*
X131179000Y-118198741D01*
X131179000Y-118021259D01*
X131213624Y-117847188D01*
X131281544Y-117683216D01*
X131380147Y-117535646D01*
X131505646Y-117410147D01*
X131653216Y-117311544D01*
X131817188Y-117243624D01*
X131966488Y-117213927D01*
X131991258Y-117209000D01*
X132168742Y-117209000D01*
X132193512Y-117213927D01*
G37*
G36*
X150108228Y-117291703D02*
G01*
X150263100Y-117355853D01*
X150402481Y-117448985D01*
X150521015Y-117567519D01*
X150614147Y-117706900D01*
X150678297Y-117861772D01*
X150711000Y-118026184D01*
X150711000Y-118193816D01*
X150678297Y-118358228D01*
X150614147Y-118513100D01*
X150521015Y-118652481D01*
X150402481Y-118771015D01*
X150263100Y-118864147D01*
X150108228Y-118928297D01*
X149943816Y-118961000D01*
X149776184Y-118961000D01*
X149611772Y-118928297D01*
X149456900Y-118864147D01*
X149317519Y-118771015D01*
X149198985Y-118652481D01*
X149105853Y-118513100D01*
X149041703Y-118358228D01*
X149009000Y-118193816D01*
X149009000Y-118026184D01*
X149041703Y-117861772D01*
X149105853Y-117706900D01*
X149198985Y-117567519D01*
X149317519Y-117448985D01*
X149456900Y-117355853D01*
X149611772Y-117291703D01*
X149776184Y-117259000D01*
X149943816Y-117259000D01*
X150108228Y-117291703D01*
G37*
G36*
X134868228Y-117291703D02*
G01*
X135023100Y-117355853D01*
X135162481Y-117448985D01*
X135281015Y-117567519D01*
X135374147Y-117706900D01*
X135438297Y-117861772D01*
X135471000Y-118026184D01*
X135471000Y-118193816D01*
X135438297Y-118358228D01*
X135374147Y-118513100D01*
X135281015Y-118652481D01*
X135162481Y-118771015D01*
X135023100Y-118864147D01*
X134868228Y-118928297D01*
X134703816Y-118961000D01*
X134536184Y-118961000D01*
X134371772Y-118928297D01*
X134216900Y-118864147D01*
X134077519Y-118771015D01*
X133958985Y-118652481D01*
X133865853Y-118513100D01*
X133801703Y-118358228D01*
X133769000Y-118193816D01*
X133769000Y-118026184D01*
X133801703Y-117861772D01*
X133865853Y-117706900D01*
X133958985Y-117567519D01*
X134077519Y-117448985D01*
X134216900Y-117355853D01*
X134371772Y-117291703D01*
X134536184Y-117259000D01*
X134703816Y-117259000D01*
X134868228Y-117291703D01*
G37*
G36*
X120869059Y-114847860D02*
G01*
X121005732Y-114904472D01*
X121128735Y-114986660D01*
X121233340Y-115091265D01*
X121315528Y-115214268D01*
X121372140Y-115350941D01*
X121401000Y-115496033D01*
X121401000Y-115643967D01*
X121372140Y-115789059D01*
X121315528Y-115925732D01*
X121233340Y-116048735D01*
X121128735Y-116153340D01*
X121005732Y-116235528D01*
X121005731Y-116235529D01*
X121005730Y-116235529D01*
X120869059Y-116292140D01*
X120723968Y-116321000D01*
X120576032Y-116321000D01*
X120430941Y-116292140D01*
X120294270Y-116235529D01*
X120294269Y-116235529D01*
X120294268Y-116235528D01*
X120171265Y-116153340D01*
X120066660Y-116048735D01*
X119984472Y-115925732D01*
X119927860Y-115789059D01*
X119899000Y-115643967D01*
X119899000Y-115496033D01*
X119927860Y-115350941D01*
X119984472Y-115214268D01*
X120066660Y-115091265D01*
X120171265Y-114986660D01*
X120294268Y-114904472D01*
X120430941Y-114847860D01*
X120576032Y-114819000D01*
X120723968Y-114819000D01*
X120869059Y-114847860D01*
G37*
G36*
X132489473Y-111658413D02*
G01*
X132585040Y-111667825D01*
X132830280Y-111742218D01*
X133056294Y-111863025D01*
X133106796Y-111904471D01*
X133254397Y-112025603D01*
X133374624Y-112172101D01*
X133416975Y-112223706D01*
X133537782Y-112449720D01*
X133612175Y-112694960D01*
X133637294Y-112950000D01*
X133612175Y-113205040D01*
X133537782Y-113450280D01*
X133416975Y-113676294D01*
X133374624Y-113727899D01*
X133254397Y-113874397D01*
X133107899Y-113994624D01*
X133056294Y-114036975D01*
X132830280Y-114157782D01*
X132585040Y-114232175D01*
X132489473Y-114241587D01*
X132393906Y-114251000D01*
X131766094Y-114251000D01*
X131670527Y-114241587D01*
X131574960Y-114232175D01*
X131329720Y-114157782D01*
X131103706Y-114036975D01*
X131052101Y-113994624D01*
X130905603Y-113874397D01*
X130785376Y-113727899D01*
X130743025Y-113676294D01*
X130622218Y-113450280D01*
X130547825Y-113205040D01*
X130522706Y-112950000D01*
X130547825Y-112694960D01*
X130622218Y-112449720D01*
X130743025Y-112223706D01*
X130785376Y-112172101D01*
X130905603Y-112025603D01*
X131053204Y-111904471D01*
X131103706Y-111863025D01*
X131329720Y-111742218D01*
X131574960Y-111667825D01*
X131670527Y-111658413D01*
X131766094Y-111649000D01*
X132393906Y-111649000D01*
X132489473Y-111658413D01*
G37*
G36*
X144989473Y-111658413D02*
G01*
X145085040Y-111667825D01*
X145330280Y-111742218D01*
X145556294Y-111863025D01*
X145606796Y-111904471D01*
X145754397Y-112025603D01*
X145874624Y-112172101D01*
X145916975Y-112223706D01*
X146037782Y-112449720D01*
X146112175Y-112694960D01*
X146137294Y-112950000D01*
X146112175Y-113205040D01*
X146037782Y-113450280D01*
X145916975Y-113676294D01*
X145874624Y-113727899D01*
X145754397Y-113874397D01*
X145607899Y-113994624D01*
X145556294Y-114036975D01*
X145330280Y-114157782D01*
X145085040Y-114232175D01*
X144989473Y-114241587D01*
X144893906Y-114251000D01*
X144266094Y-114251000D01*
X144170527Y-114241587D01*
X144074960Y-114232175D01*
X143829720Y-114157782D01*
X143603706Y-114036975D01*
X143552101Y-113994624D01*
X143405603Y-113874397D01*
X143285376Y-113727899D01*
X143243025Y-113676294D01*
X143122218Y-113450280D01*
X143047825Y-113205040D01*
X143022706Y-112950000D01*
X143047825Y-112694960D01*
X143122218Y-112449720D01*
X143243025Y-112223706D01*
X143285376Y-112172101D01*
X143405603Y-112025603D01*
X143553204Y-111904471D01*
X143603706Y-111863025D01*
X143829720Y-111742218D01*
X144074960Y-111667825D01*
X144170527Y-111658413D01*
X144266094Y-111649000D01*
X144893906Y-111649000D01*
X144989473Y-111658413D01*
G37*
G36*
X120869059Y-111847860D02*
G01*
X120905671Y-111863025D01*
X121005732Y-111904472D01*
X121128735Y-111986660D01*
X121233340Y-112091265D01*
X121233341Y-112091267D01*
X121315529Y-112214270D01*
X121319438Y-112223708D01*
X121372140Y-112350941D01*
X121401000Y-112496033D01*
X121401000Y-112643967D01*
X121372140Y-112789059D01*
X121315528Y-112925732D01*
X121233340Y-113048735D01*
X121128735Y-113153340D01*
X121005732Y-113235528D01*
X121005731Y-113235529D01*
X121005730Y-113235529D01*
X120869059Y-113292140D01*
X120723968Y-113321000D01*
X120576032Y-113321000D01*
X120430941Y-113292140D01*
X120294270Y-113235529D01*
X120294269Y-113235529D01*
X120294268Y-113235528D01*
X120171265Y-113153340D01*
X120066660Y-113048735D01*
X119984472Y-112925732D01*
X119927860Y-112789059D01*
X119899000Y-112643967D01*
X119899000Y-112496033D01*
X119927860Y-112350941D01*
X119980562Y-112223708D01*
X119984471Y-112214270D01*
X120066659Y-112091267D01*
X120066660Y-112091265D01*
X120171265Y-111986660D01*
X120294268Y-111904472D01*
X120394330Y-111863025D01*
X120430941Y-111847860D01*
X120576032Y-111819000D01*
X120723968Y-111819000D01*
X120869059Y-111847860D01*
G37*
G36*
X120869059Y-108847860D02*
G01*
X120933123Y-108874396D01*
X121005732Y-108904472D01*
X121128735Y-108986660D01*
X121233340Y-109091265D01*
X121315528Y-109214268D01*
X121372140Y-109350941D01*
X121401000Y-109496033D01*
X121401000Y-109643967D01*
X121372140Y-109789059D01*
X121315528Y-109925732D01*
X121233340Y-110048735D01*
X121128735Y-110153340D01*
X121005732Y-110235528D01*
X121005731Y-110235529D01*
X121005730Y-110235529D01*
X120869059Y-110292140D01*
X120723968Y-110321000D01*
X120576032Y-110321000D01*
X120430941Y-110292140D01*
X120294270Y-110235529D01*
X120294269Y-110235529D01*
X120294268Y-110235528D01*
X120171265Y-110153340D01*
X120066660Y-110048735D01*
X119984472Y-109925732D01*
X119927860Y-109789059D01*
X119899000Y-109643967D01*
X119899000Y-109496033D01*
X119927860Y-109350941D01*
X119984472Y-109214268D01*
X120066660Y-109091265D01*
X120171265Y-108986660D01*
X120294268Y-108904472D01*
X120366878Y-108874396D01*
X120430941Y-108847860D01*
X120576032Y-108819000D01*
X120723968Y-108819000D01*
X120869059Y-108847860D01*
G37*
G36*
X132489473Y-106658413D02*
G01*
X132585040Y-106667825D01*
X132830280Y-106742218D01*
X133056294Y-106863025D01*
X133107899Y-106905376D01*
X133254397Y-107025603D01*
X133374624Y-107172101D01*
X133416975Y-107223706D01*
X133537782Y-107449720D01*
X133612175Y-107694960D01*
X133637294Y-107950000D01*
X133612175Y-108205040D01*
X133537782Y-108450280D01*
X133416975Y-108676294D01*
X133374624Y-108727899D01*
X133254397Y-108874397D01*
X133117604Y-108986659D01*
X133056294Y-109036975D01*
X132830280Y-109157782D01*
X132585040Y-109232175D01*
X132489472Y-109241588D01*
X132393906Y-109251000D01*
X131766094Y-109251000D01*
X131670528Y-109241588D01*
X131574960Y-109232175D01*
X131329720Y-109157782D01*
X131103706Y-109036975D01*
X131042396Y-108986659D01*
X130905603Y-108874397D01*
X130785376Y-108727899D01*
X130743025Y-108676294D01*
X130622218Y-108450280D01*
X130547825Y-108205040D01*
X130522706Y-107950000D01*
X130547825Y-107694960D01*
X130622218Y-107449720D01*
X130743025Y-107223706D01*
X130785376Y-107172101D01*
X130905603Y-107025603D01*
X131052101Y-106905376D01*
X131103706Y-106863025D01*
X131329720Y-106742218D01*
X131574960Y-106667825D01*
X131670527Y-106658413D01*
X131766094Y-106649000D01*
X132393906Y-106649000D01*
X132489473Y-106658413D01*
G37*
G36*
X144989473Y-106658413D02*
G01*
X145085040Y-106667825D01*
X145330280Y-106742218D01*
X145556294Y-106863025D01*
X145607899Y-106905376D01*
X145754397Y-107025603D01*
X145874624Y-107172101D01*
X145916975Y-107223706D01*
X146037782Y-107449720D01*
X146112175Y-107694960D01*
X146137294Y-107950000D01*
X146112175Y-108205040D01*
X146037782Y-108450280D01*
X145916975Y-108676294D01*
X145874624Y-108727899D01*
X145754397Y-108874397D01*
X145617604Y-108986659D01*
X145556294Y-109036975D01*
X145330280Y-109157782D01*
X145085040Y-109232175D01*
X144989472Y-109241588D01*
X144893906Y-109251000D01*
X144266094Y-109251000D01*
X144170528Y-109241588D01*
X144074960Y-109232175D01*
X143829720Y-109157782D01*
X143603706Y-109036975D01*
X143542396Y-108986659D01*
X143405603Y-108874397D01*
X143285376Y-108727899D01*
X143243025Y-108676294D01*
X143122218Y-108450280D01*
X143047825Y-108205040D01*
X143022706Y-107950000D01*
X143047825Y-107694960D01*
X143122218Y-107449720D01*
X143243025Y-107223706D01*
X143285376Y-107172101D01*
X143405603Y-107025603D01*
X143552101Y-106905376D01*
X143603706Y-106863025D01*
X143829720Y-106742218D01*
X144074960Y-106667825D01*
X144170527Y-106658413D01*
X144266094Y-106649000D01*
X144893906Y-106649000D01*
X144989473Y-106658413D01*
G37*
G36*
X149491000Y-108851000D02*
G01*
X147689000Y-108851000D01*
X147689000Y-107049000D01*
X149491000Y-107049000D01*
X149491000Y-108851000D01*
G37*
G36*
X121197645Y-104514651D02*
G01*
X121339176Y-104573275D01*
X121539330Y-104656181D01*
X121846836Y-104861651D01*
X122108349Y-105123164D01*
X122313819Y-105430670D01*
X122396725Y-105630824D01*
X122455349Y-105772355D01*
X122527500Y-106135081D01*
X122527500Y-106504919D01*
X122455349Y-106867645D01*
X122396725Y-107009176D01*
X122313819Y-107209330D01*
X122108349Y-107516836D01*
X121846836Y-107778349D01*
X121539330Y-107983819D01*
X121339176Y-108066725D01*
X121197645Y-108125349D01*
X120834919Y-108197500D01*
X120465081Y-108197500D01*
X120102355Y-108125349D01*
X119960824Y-108066725D01*
X119760670Y-107983819D01*
X119453164Y-107778349D01*
X119191651Y-107516836D01*
X118986181Y-107209330D01*
X118903275Y-107009176D01*
X118844651Y-106867645D01*
X118772500Y-106504919D01*
X118772500Y-106135081D01*
X118844651Y-105772355D01*
X118903275Y-105630824D01*
X118986181Y-105430670D01*
X119191651Y-105123164D01*
X119453164Y-104861651D01*
X119760670Y-104656181D01*
X119960824Y-104573275D01*
X120102355Y-104514651D01*
X120465081Y-104442500D01*
X120834919Y-104442500D01*
X121197645Y-104514651D01*
G37*
G36*
X139977395Y-96875546D02*
G01*
X140150466Y-96947234D01*
X140150467Y-96947235D01*
X140306227Y-97051310D01*
X140438690Y-97183773D01*
X140438691Y-97183775D01*
X140542766Y-97339534D01*
X140614454Y-97512605D01*
X140651000Y-97696333D01*
X140651000Y-97883667D01*
X140614454Y-98067395D01*
X140542766Y-98240466D01*
X140542765Y-98240467D01*
X140438690Y-98396227D01*
X140306227Y-98528690D01*
X140227818Y-98581081D01*
X140150466Y-98632766D01*
X139977395Y-98704454D01*
X139793667Y-98741000D01*
X139606333Y-98741000D01*
X139422605Y-98704454D01*
X139249534Y-98632766D01*
X139172182Y-98581081D01*
X139093773Y-98528690D01*
X138961310Y-98396227D01*
X138857235Y-98240467D01*
X138857234Y-98240466D01*
X138785546Y-98067395D01*
X138749000Y-97883667D01*
X138749000Y-97696333D01*
X138785546Y-97512605D01*
X138857234Y-97339534D01*
X138961309Y-97183775D01*
X138961310Y-97183773D01*
X139093773Y-97051310D01*
X139249533Y-96947235D01*
X139249534Y-96947234D01*
X139422605Y-96875546D01*
X139606333Y-96839000D01*
X139793667Y-96839000D01*
X139977395Y-96875546D01*
G37*
G36*
X137477395Y-96875546D02*
G01*
X137650466Y-96947234D01*
X137650467Y-96947235D01*
X137806227Y-97051310D01*
X137938690Y-97183773D01*
X137938691Y-97183775D01*
X138042766Y-97339534D01*
X138114454Y-97512605D01*
X138151000Y-97696333D01*
X138151000Y-97883667D01*
X138114454Y-98067395D01*
X138042766Y-98240466D01*
X138042765Y-98240467D01*
X137938690Y-98396227D01*
X137806227Y-98528690D01*
X137727818Y-98581081D01*
X137650466Y-98632766D01*
X137477395Y-98704454D01*
X137293667Y-98741000D01*
X137106333Y-98741000D01*
X136922605Y-98704454D01*
X136749534Y-98632766D01*
X136672182Y-98581081D01*
X136593773Y-98528690D01*
X136461310Y-98396227D01*
X136357235Y-98240467D01*
X136357234Y-98240466D01*
X136285546Y-98067395D01*
X136249000Y-97883667D01*
X136249000Y-97696333D01*
X136285546Y-97512605D01*
X136357234Y-97339534D01*
X136461309Y-97183775D01*
X136461310Y-97183773D01*
X136593773Y-97051310D01*
X136749533Y-96947235D01*
X136749534Y-96947234D01*
X136922605Y-96875546D01*
X137106333Y-96839000D01*
X137293667Y-96839000D01*
X137477395Y-96875546D01*
G37*
G36*
X134977395Y-96875546D02*
G01*
X135150466Y-96947234D01*
X135150467Y-96947235D01*
X135306227Y-97051310D01*
X135438690Y-97183773D01*
X135438691Y-97183775D01*
X135542766Y-97339534D01*
X135614454Y-97512605D01*
X135651000Y-97696333D01*
X135651000Y-97883667D01*
X135614454Y-98067395D01*
X135542766Y-98240466D01*
X135542765Y-98240467D01*
X135438690Y-98396227D01*
X135306227Y-98528690D01*
X135227818Y-98581081D01*
X135150466Y-98632766D01*
X134977395Y-98704454D01*
X134793667Y-98741000D01*
X134606333Y-98741000D01*
X134422605Y-98704454D01*
X134249534Y-98632766D01*
X134172182Y-98581081D01*
X134093773Y-98528690D01*
X133961310Y-98396227D01*
X133857235Y-98240467D01*
X133857234Y-98240466D01*
X133785546Y-98067395D01*
X133749000Y-97883667D01*
X133749000Y-97696333D01*
X133785546Y-97512605D01*
X133857234Y-97339534D01*
X133961309Y-97183775D01*
X133961310Y-97183773D01*
X134093773Y-97051310D01*
X134249533Y-96947235D01*
X134249534Y-96947234D01*
X134422605Y-96875546D01*
X134606333Y-96839000D01*
X134793667Y-96839000D01*
X134977395Y-96875546D01*
G37*
G36*
X123507395Y-96875546D02*
G01*
X123680466Y-96947234D01*
X123680467Y-96947235D01*
X123836227Y-97051310D01*
X123968690Y-97183773D01*
X123968691Y-97183775D01*
X124072766Y-97339534D01*
X124144454Y-97512605D01*
X124181000Y-97696333D01*
X124181000Y-97883667D01*
X124144454Y-98067395D01*
X124072766Y-98240466D01*
X124072765Y-98240467D01*
X123968690Y-98396227D01*
X123836227Y-98528690D01*
X123757818Y-98581081D01*
X123680466Y-98632766D01*
X123507395Y-98704454D01*
X123323667Y-98741000D01*
X123136333Y-98741000D01*
X122952605Y-98704454D01*
X122779534Y-98632766D01*
X122702182Y-98581081D01*
X122623773Y-98528690D01*
X122491310Y-98396227D01*
X122387235Y-98240467D01*
X122387234Y-98240466D01*
X122315546Y-98067395D01*
X122279000Y-97883667D01*
X122279000Y-97696333D01*
X122315546Y-97512605D01*
X122387234Y-97339534D01*
X122491309Y-97183775D01*
X122491310Y-97183773D01*
X122623773Y-97051310D01*
X122779533Y-96947235D01*
X122779534Y-96947234D01*
X122952605Y-96875546D01*
X123136333Y-96839000D01*
X123323667Y-96839000D01*
X123507395Y-96875546D01*
G37*
G36*
X121007395Y-96875546D02*
G01*
X121180466Y-96947234D01*
X121180467Y-96947235D01*
X121336227Y-97051310D01*
X121468690Y-97183773D01*
X121468691Y-97183775D01*
X121572766Y-97339534D01*
X121644454Y-97512605D01*
X121681000Y-97696333D01*
X121681000Y-97883667D01*
X121644454Y-98067395D01*
X121572766Y-98240466D01*
X121572765Y-98240467D01*
X121468690Y-98396227D01*
X121336227Y-98528690D01*
X121257818Y-98581081D01*
X121180466Y-98632766D01*
X121007395Y-98704454D01*
X120823667Y-98741000D01*
X120636333Y-98741000D01*
X120452605Y-98704454D01*
X120279534Y-98632766D01*
X120202182Y-98581081D01*
X120123773Y-98528690D01*
X119991310Y-98396227D01*
X119887235Y-98240467D01*
X119887234Y-98240466D01*
X119815546Y-98067395D01*
X119779000Y-97883667D01*
X119779000Y-97696333D01*
X119815546Y-97512605D01*
X119887234Y-97339534D01*
X119991309Y-97183775D01*
X119991310Y-97183773D01*
X120123773Y-97051310D01*
X120279533Y-96947235D01*
X120279534Y-96947234D01*
X120452605Y-96875546D01*
X120636333Y-96839000D01*
X120823667Y-96839000D01*
X121007395Y-96875546D01*
G37*
G36*
X126007395Y-96875546D02*
G01*
X126180466Y-96947234D01*
X126180467Y-96947235D01*
X126336227Y-97051310D01*
X126468690Y-97183773D01*
X126468691Y-97183775D01*
X126572766Y-97339534D01*
X126644454Y-97512605D01*
X126681000Y-97696333D01*
X126681000Y-97883667D01*
X126644454Y-98067395D01*
X126572766Y-98240466D01*
X126572765Y-98240467D01*
X126468690Y-98396227D01*
X126336227Y-98528690D01*
X126257818Y-98581081D01*
X126180466Y-98632766D01*
X126007395Y-98704454D01*
X125823667Y-98741000D01*
X125636333Y-98741000D01*
X125452605Y-98704454D01*
X125279534Y-98632766D01*
X125202182Y-98581081D01*
X125123773Y-98528690D01*
X124991310Y-98396227D01*
X124887235Y-98240467D01*
X124887234Y-98240466D01*
X124815546Y-98067395D01*
X124779000Y-97883667D01*
X124779000Y-97696333D01*
X124815546Y-97512605D01*
X124887234Y-97339534D01*
X124991309Y-97183775D01*
X124991310Y-97183773D01*
X125123773Y-97051310D01*
X125279533Y-96947235D01*
X125279534Y-96947234D01*
X125452605Y-96875546D01*
X125636333Y-96839000D01*
X125823667Y-96839000D01*
X126007395Y-96875546D01*
G37*
G36*
X119428254Y-88832818D02*
G01*
X119765300Y-88972427D01*
X119801513Y-88987427D01*
X120137436Y-89211884D01*
X120423116Y-89497564D01*
X120637552Y-89818489D01*
X120647574Y-89833489D01*
X120802182Y-90206746D01*
X120881000Y-90602993D01*
X120881000Y-91007007D01*
X120802182Y-91403254D01*
X120653787Y-91761511D01*
X120647573Y-91776513D01*
X120423116Y-92112436D01*
X120137436Y-92398116D01*
X119801513Y-92622573D01*
X119801512Y-92622574D01*
X119801511Y-92622574D01*
X119428254Y-92777182D01*
X119032007Y-92856000D01*
X118627993Y-92856000D01*
X118231746Y-92777182D01*
X117858489Y-92622574D01*
X117858488Y-92622574D01*
X117858487Y-92622573D01*
X117522564Y-92398116D01*
X117236884Y-92112436D01*
X117012427Y-91776513D01*
X117006213Y-91761511D01*
X116857818Y-91403254D01*
X116779000Y-91007007D01*
X116779000Y-90602993D01*
X116857818Y-90206746D01*
X117012426Y-89833489D01*
X117022449Y-89818489D01*
X117236884Y-89497564D01*
X117522564Y-89211884D01*
X117858487Y-88987427D01*
X117894700Y-88972427D01*
X118231746Y-88832818D01*
X118627993Y-88754000D01*
X119032007Y-88754000D01*
X119428254Y-88832818D01*
G37*
G36*
X133398254Y-88832818D02*
G01*
X133735300Y-88972427D01*
X133771513Y-88987427D01*
X134107436Y-89211884D01*
X134393116Y-89497564D01*
X134607552Y-89818489D01*
X134617574Y-89833489D01*
X134772182Y-90206746D01*
X134851000Y-90602993D01*
X134851000Y-91007007D01*
X134772182Y-91403254D01*
X134623787Y-91761511D01*
X134617573Y-91776513D01*
X134393116Y-92112436D01*
X134107436Y-92398116D01*
X133771513Y-92622573D01*
X133771512Y-92622574D01*
X133771511Y-92622574D01*
X133398254Y-92777182D01*
X133002007Y-92856000D01*
X132597993Y-92856000D01*
X132201746Y-92777182D01*
X131828489Y-92622574D01*
X131828488Y-92622574D01*
X131828487Y-92622573D01*
X131492564Y-92398116D01*
X131206884Y-92112436D01*
X130982427Y-91776513D01*
X130976213Y-91761511D01*
X130827818Y-91403254D01*
X130749000Y-91007007D01*
X130749000Y-90602993D01*
X130827818Y-90206746D01*
X130982426Y-89833489D01*
X130992449Y-89818489D01*
X131206884Y-89497564D01*
X131492564Y-89211884D01*
X131828487Y-88987427D01*
X131864700Y-88972427D01*
X132201746Y-88832818D01*
X132597993Y-88754000D01*
X133002007Y-88754000D01*
X133398254Y-88832818D01*
G37*
G36*
X142198254Y-88817818D02*
G01*
X142571511Y-88972426D01*
X142571513Y-88972427D01*
X142593962Y-88987427D01*
X142907436Y-89196884D01*
X143193116Y-89482564D01*
X143417574Y-89818489D01*
X143572182Y-90191746D01*
X143651000Y-90587993D01*
X143651000Y-90992007D01*
X143572182Y-91388254D01*
X143565968Y-91403255D01*
X143417573Y-91761513D01*
X143193116Y-92097436D01*
X142907436Y-92383116D01*
X142571513Y-92607573D01*
X142571512Y-92607574D01*
X142571511Y-92607574D01*
X142198254Y-92762182D01*
X141802007Y-92841000D01*
X141397993Y-92841000D01*
X141001746Y-92762182D01*
X140628489Y-92607574D01*
X140628488Y-92607574D01*
X140628487Y-92607573D01*
X140292564Y-92383116D01*
X140006884Y-92097436D01*
X139782427Y-91761513D01*
X139634032Y-91403255D01*
X139627818Y-91388254D01*
X139549000Y-90992007D01*
X139549000Y-90587993D01*
X139627818Y-90191746D01*
X139782426Y-89818489D01*
X140006884Y-89482564D01*
X140292564Y-89196884D01*
X140606038Y-88987427D01*
X140628487Y-88972427D01*
X140628489Y-88972426D01*
X141001746Y-88817818D01*
X141397993Y-88739000D01*
X141802007Y-88739000D01*
X142198254Y-88817818D01*
G37*
G36*
X128228254Y-88817818D02*
G01*
X128601511Y-88972426D01*
X128601513Y-88972427D01*
X128623962Y-88987427D01*
X128937436Y-89196884D01*
X129223116Y-89482564D01*
X129447574Y-89818489D01*
X129602182Y-90191746D01*
X129681000Y-90587993D01*
X129681000Y-90992007D01*
X129602182Y-91388254D01*
X129595968Y-91403255D01*
X129447573Y-91761513D01*
X129223116Y-92097436D01*
X128937436Y-92383116D01*
X128601513Y-92607573D01*
X128601512Y-92607574D01*
X128601511Y-92607574D01*
X128228254Y-92762182D01*
X127832007Y-92841000D01*
X127427993Y-92841000D01*
X127031746Y-92762182D01*
X126658489Y-92607574D01*
X126658488Y-92607574D01*
X126658487Y-92607573D01*
X126322564Y-92383116D01*
X126036884Y-92097436D01*
X125812427Y-91761513D01*
X125664032Y-91403255D01*
X125657818Y-91388254D01*
X125579000Y-90992007D01*
X125579000Y-90587993D01*
X125657818Y-90191746D01*
X125812426Y-89818489D01*
X126036884Y-89482564D01*
X126322564Y-89196884D01*
X126636038Y-88987427D01*
X126658487Y-88972427D01*
X126658489Y-88972426D01*
X127031746Y-88817818D01*
X127427993Y-88739000D01*
X127832007Y-88739000D01*
X128228254Y-88817818D01*
G37*
G36*
X123507395Y-77825546D02*
G01*
X123680466Y-77897234D01*
X123680467Y-77897235D01*
X123836227Y-78001310D01*
X123968690Y-78133773D01*
X123968691Y-78133775D01*
X124072766Y-78289534D01*
X124144454Y-78462605D01*
X124181000Y-78646333D01*
X124181000Y-78833667D01*
X124144454Y-79017395D01*
X124072766Y-79190466D01*
X124072765Y-79190467D01*
X123968690Y-79346227D01*
X123836227Y-79478690D01*
X123757818Y-79531081D01*
X123680466Y-79582766D01*
X123507395Y-79654454D01*
X123323667Y-79691000D01*
X123136333Y-79691000D01*
X122952605Y-79654454D01*
X122779534Y-79582766D01*
X122702182Y-79531081D01*
X122623773Y-79478690D01*
X122491310Y-79346227D01*
X122387235Y-79190467D01*
X122387234Y-79190466D01*
X122315546Y-79017395D01*
X122279000Y-78833667D01*
X122279000Y-78646333D01*
X122315546Y-78462605D01*
X122387234Y-78289534D01*
X122491309Y-78133775D01*
X122491310Y-78133773D01*
X122623773Y-78001310D01*
X122779533Y-77897235D01*
X122779534Y-77897234D01*
X122952605Y-77825546D01*
X123136333Y-77789000D01*
X123323667Y-77789000D01*
X123507395Y-77825546D01*
G37*
G36*
X134977395Y-77825546D02*
G01*
X135150466Y-77897234D01*
X135150467Y-77897235D01*
X135306227Y-78001310D01*
X135438690Y-78133773D01*
X135438691Y-78133775D01*
X135542766Y-78289534D01*
X135614454Y-78462605D01*
X135651000Y-78646333D01*
X135651000Y-78833667D01*
X135614454Y-79017395D01*
X135542766Y-79190466D01*
X135542765Y-79190467D01*
X135438690Y-79346227D01*
X135306227Y-79478690D01*
X135227818Y-79531081D01*
X135150466Y-79582766D01*
X134977395Y-79654454D01*
X134793667Y-79691000D01*
X134606333Y-79691000D01*
X134422605Y-79654454D01*
X134249534Y-79582766D01*
X134172182Y-79531081D01*
X134093773Y-79478690D01*
X133961310Y-79346227D01*
X133857235Y-79190467D01*
X133857234Y-79190466D01*
X133785546Y-79017395D01*
X133749000Y-78833667D01*
X133749000Y-78646333D01*
X133785546Y-78462605D01*
X133857234Y-78289534D01*
X133961309Y-78133775D01*
X133961310Y-78133773D01*
X134093773Y-78001310D01*
X134249533Y-77897235D01*
X134249534Y-77897234D01*
X134422605Y-77825546D01*
X134606333Y-77789000D01*
X134793667Y-77789000D01*
X134977395Y-77825546D01*
G37*
G36*
X126007395Y-77825546D02*
G01*
X126180466Y-77897234D01*
X126180467Y-77897235D01*
X126336227Y-78001310D01*
X126468690Y-78133773D01*
X126468691Y-78133775D01*
X126572766Y-78289534D01*
X126644454Y-78462605D01*
X126681000Y-78646333D01*
X126681000Y-78833667D01*
X126644454Y-79017395D01*
X126572766Y-79190466D01*
X126572765Y-79190467D01*
X126468690Y-79346227D01*
X126336227Y-79478690D01*
X126257818Y-79531081D01*
X126180466Y-79582766D01*
X126007395Y-79654454D01*
X125823667Y-79691000D01*
X125636333Y-79691000D01*
X125452605Y-79654454D01*
X125279534Y-79582766D01*
X125202182Y-79531081D01*
X125123773Y-79478690D01*
X124991310Y-79346227D01*
X124887235Y-79190467D01*
X124887234Y-79190466D01*
X124815546Y-79017395D01*
X124779000Y-78833667D01*
X124779000Y-78646333D01*
X124815546Y-78462605D01*
X124887234Y-78289534D01*
X124991309Y-78133775D01*
X124991310Y-78133773D01*
X125123773Y-78001310D01*
X125279533Y-77897235D01*
X125279534Y-77897234D01*
X125452605Y-77825546D01*
X125636333Y-77789000D01*
X125823667Y-77789000D01*
X126007395Y-77825546D01*
G37*
G36*
X121007395Y-77825546D02*
G01*
X121180466Y-77897234D01*
X121180467Y-77897235D01*
X121336227Y-78001310D01*
X121468690Y-78133773D01*
X121468691Y-78133775D01*
X121572766Y-78289534D01*
X121644454Y-78462605D01*
X121681000Y-78646333D01*
X121681000Y-78833667D01*
X121644454Y-79017395D01*
X121572766Y-79190466D01*
X121572765Y-79190467D01*
X121468690Y-79346227D01*
X121336227Y-79478690D01*
X121257818Y-79531081D01*
X121180466Y-79582766D01*
X121007395Y-79654454D01*
X120823667Y-79691000D01*
X120636333Y-79691000D01*
X120452605Y-79654454D01*
X120279534Y-79582766D01*
X120202182Y-79531081D01*
X120123773Y-79478690D01*
X119991310Y-79346227D01*
X119887235Y-79190467D01*
X119887234Y-79190466D01*
X119815546Y-79017395D01*
X119779000Y-78833667D01*
X119779000Y-78646333D01*
X119815546Y-78462605D01*
X119887234Y-78289534D01*
X119991309Y-78133775D01*
X119991310Y-78133773D01*
X120123773Y-78001310D01*
X120279533Y-77897235D01*
X120279534Y-77897234D01*
X120452605Y-77825546D01*
X120636333Y-77789000D01*
X120823667Y-77789000D01*
X121007395Y-77825546D01*
G37*
G36*
X137477395Y-77825546D02*
G01*
X137650466Y-77897234D01*
X137650467Y-77897235D01*
X137806227Y-78001310D01*
X137938690Y-78133773D01*
X137938691Y-78133775D01*
X138042766Y-78289534D01*
X138114454Y-78462605D01*
X138151000Y-78646333D01*
X138151000Y-78833667D01*
X138114454Y-79017395D01*
X138042766Y-79190466D01*
X138042765Y-79190467D01*
X137938690Y-79346227D01*
X137806227Y-79478690D01*
X137727818Y-79531081D01*
X137650466Y-79582766D01*
X137477395Y-79654454D01*
X137293667Y-79691000D01*
X137106333Y-79691000D01*
X136922605Y-79654454D01*
X136749534Y-79582766D01*
X136672182Y-79531081D01*
X136593773Y-79478690D01*
X136461310Y-79346227D01*
X136357235Y-79190467D01*
X136357234Y-79190466D01*
X136285546Y-79017395D01*
X136249000Y-78833667D01*
X136249000Y-78646333D01*
X136285546Y-78462605D01*
X136357234Y-78289534D01*
X136461309Y-78133775D01*
X136461310Y-78133773D01*
X136593773Y-78001310D01*
X136749533Y-77897235D01*
X136749534Y-77897234D01*
X136922605Y-77825546D01*
X137106333Y-77789000D01*
X137293667Y-77789000D01*
X137477395Y-77825546D01*
G37*
G36*
X139977395Y-77825546D02*
G01*
X140150466Y-77897234D01*
X140150467Y-77897235D01*
X140306227Y-78001310D01*
X140438690Y-78133773D01*
X140438691Y-78133775D01*
X140542766Y-78289534D01*
X140614454Y-78462605D01*
X140651000Y-78646333D01*
X140651000Y-78833667D01*
X140614454Y-79017395D01*
X140542766Y-79190466D01*
X140542765Y-79190467D01*
X140438690Y-79346227D01*
X140306227Y-79478690D01*
X140227818Y-79531081D01*
X140150466Y-79582766D01*
X139977395Y-79654454D01*
X139793667Y-79691000D01*
X139606333Y-79691000D01*
X139422605Y-79654454D01*
X139249534Y-79582766D01*
X139172182Y-79531081D01*
X139093773Y-79478690D01*
X138961310Y-79346227D01*
X138857235Y-79190467D01*
X138857234Y-79190466D01*
X138785546Y-79017395D01*
X138749000Y-78833667D01*
X138749000Y-78646333D01*
X138785546Y-78462605D01*
X138857234Y-78289534D01*
X138961309Y-78133775D01*
X138961310Y-78133773D01*
X139093773Y-78001310D01*
X139249533Y-77897235D01*
X139249534Y-77897234D01*
X139422605Y-77825546D01*
X139606333Y-77789000D01*
X139793667Y-77789000D01*
X139977395Y-77825546D01*
G37*
G36*
X146269059Y-74207860D02*
G01*
X146405732Y-74264472D01*
X146528735Y-74346660D01*
X146633340Y-74451265D01*
X146715528Y-74574268D01*
X146772140Y-74710941D01*
X146801000Y-74856033D01*
X146801000Y-75003967D01*
X146772140Y-75149059D01*
X146715528Y-75285732D01*
X146633340Y-75408735D01*
X146528735Y-75513340D01*
X146405732Y-75595528D01*
X146405731Y-75595529D01*
X146405730Y-75595529D01*
X146269059Y-75652140D01*
X146123968Y-75681000D01*
X145976032Y-75681000D01*
X145830941Y-75652140D01*
X145694270Y-75595529D01*
X145694269Y-75595529D01*
X145694268Y-75595528D01*
X145571265Y-75513340D01*
X145466660Y-75408735D01*
X145384472Y-75285732D01*
X145327860Y-75149059D01*
X145299000Y-75003967D01*
X145299000Y-74856033D01*
X145327860Y-74710941D01*
X145384472Y-74574268D01*
X145466660Y-74451265D01*
X145571265Y-74346660D01*
X145694268Y-74264472D01*
X145830941Y-74207860D01*
X145976032Y-74179000D01*
X146123968Y-74179000D01*
X146269059Y-74207860D01*
G37*
G36*
X119428254Y-69782818D02*
G01*
X119765300Y-69922427D01*
X119801513Y-69937427D01*
X120137436Y-70161884D01*
X120423116Y-70447564D01*
X120637552Y-70768489D01*
X120647574Y-70783489D01*
X120802182Y-71156746D01*
X120881000Y-71552993D01*
X120881000Y-71957007D01*
X120802182Y-72353254D01*
X120653787Y-72711511D01*
X120647573Y-72726513D01*
X120423116Y-73062436D01*
X120137436Y-73348116D01*
X119801513Y-73572573D01*
X119801512Y-73572574D01*
X119801511Y-73572574D01*
X119428254Y-73727182D01*
X119032007Y-73806000D01*
X118627993Y-73806000D01*
X118231746Y-73727182D01*
X117858489Y-73572574D01*
X117858488Y-73572574D01*
X117858487Y-73572573D01*
X117522564Y-73348116D01*
X117236884Y-73062436D01*
X117012427Y-72726513D01*
X117006213Y-72711511D01*
X116857818Y-72353254D01*
X116779000Y-71957007D01*
X116779000Y-71552993D01*
X116857818Y-71156746D01*
X117012426Y-70783489D01*
X117022449Y-70768489D01*
X117236884Y-70447564D01*
X117522564Y-70161884D01*
X117858487Y-69937427D01*
X117894700Y-69922427D01*
X118231746Y-69782818D01*
X118627993Y-69704000D01*
X119032007Y-69704000D01*
X119428254Y-69782818D01*
G37*
G36*
X133398254Y-69782818D02*
G01*
X133735300Y-69922427D01*
X133771513Y-69937427D01*
X134107436Y-70161884D01*
X134393116Y-70447564D01*
X134607552Y-70768489D01*
X134617574Y-70783489D01*
X134772182Y-71156746D01*
X134851000Y-71552993D01*
X134851000Y-71957007D01*
X134772182Y-72353254D01*
X134623787Y-72711511D01*
X134617573Y-72726513D01*
X134393116Y-73062436D01*
X134107436Y-73348116D01*
X133771513Y-73572573D01*
X133771512Y-73572574D01*
X133771511Y-73572574D01*
X133398254Y-73727182D01*
X133002007Y-73806000D01*
X132597993Y-73806000D01*
X132201746Y-73727182D01*
X131828489Y-73572574D01*
X131828488Y-73572574D01*
X131828487Y-73572573D01*
X131492564Y-73348116D01*
X131206884Y-73062436D01*
X130982427Y-72726513D01*
X130976213Y-72711511D01*
X130827818Y-72353254D01*
X130749000Y-71957007D01*
X130749000Y-71552993D01*
X130827818Y-71156746D01*
X130982426Y-70783489D01*
X130992449Y-70768489D01*
X131206884Y-70447564D01*
X131492564Y-70161884D01*
X131828487Y-69937427D01*
X131864700Y-69922427D01*
X132201746Y-69782818D01*
X132597993Y-69704000D01*
X133002007Y-69704000D01*
X133398254Y-69782818D01*
G37*
G36*
X128228254Y-69767818D02*
G01*
X128601511Y-69922426D01*
X128601513Y-69922427D01*
X128937436Y-70146884D01*
X129223116Y-70432564D01*
X129381455Y-70669534D01*
X129447574Y-70768489D01*
X129602182Y-71141746D01*
X129681000Y-71537993D01*
X129681000Y-71942007D01*
X129602182Y-72338254D01*
X129595968Y-72353255D01*
X129447573Y-72711513D01*
X129223116Y-73047436D01*
X128937436Y-73333116D01*
X128601513Y-73557573D01*
X128601512Y-73557574D01*
X128601511Y-73557574D01*
X128228254Y-73712182D01*
X127832007Y-73791000D01*
X127427993Y-73791000D01*
X127031746Y-73712182D01*
X126658489Y-73557574D01*
X126658488Y-73557574D01*
X126658487Y-73557573D01*
X126322564Y-73333116D01*
X126036884Y-73047436D01*
X125812427Y-72711513D01*
X125664032Y-72353255D01*
X125657818Y-72338254D01*
X125579000Y-71942007D01*
X125579000Y-71537993D01*
X125657818Y-71141746D01*
X125812426Y-70768489D01*
X125878546Y-70669534D01*
X126036884Y-70432564D01*
X126322564Y-70146884D01*
X126658487Y-69922427D01*
X126658489Y-69922426D01*
X127031746Y-69767818D01*
X127427993Y-69689000D01*
X127832007Y-69689000D01*
X128228254Y-69767818D01*
G37*
G36*
X142198254Y-69767818D02*
G01*
X142571511Y-69922426D01*
X142571513Y-69922427D01*
X142907436Y-70146884D01*
X143193116Y-70432564D01*
X143351455Y-70669534D01*
X143417574Y-70768489D01*
X143572182Y-71141746D01*
X143651000Y-71537993D01*
X143651000Y-71942007D01*
X143572182Y-72338254D01*
X143565968Y-72353255D01*
X143417573Y-72711513D01*
X143193116Y-73047436D01*
X142907436Y-73333116D01*
X142571513Y-73557573D01*
X142571512Y-73557574D01*
X142571511Y-73557574D01*
X142198254Y-73712182D01*
X141802007Y-73791000D01*
X141397993Y-73791000D01*
X141001746Y-73712182D01*
X140628489Y-73557574D01*
X140628488Y-73557574D01*
X140628487Y-73557573D01*
X140292564Y-73333116D01*
X140006884Y-73047436D01*
X139782427Y-72711513D01*
X139634032Y-72353255D01*
X139627818Y-72338254D01*
X139549000Y-71942007D01*
X139549000Y-71537993D01*
X139627818Y-71141746D01*
X139782426Y-70768489D01*
X139848546Y-70669534D01*
X140006884Y-70432564D01*
X140292564Y-70146884D01*
X140628487Y-69922427D01*
X140628489Y-69922426D01*
X141001746Y-69767818D01*
X141397993Y-69689000D01*
X141802007Y-69689000D01*
X142198254Y-69767818D01*
G37*
G36*
X149541000Y-72071000D02*
G01*
X147639000Y-72071000D01*
X147639000Y-70169000D01*
X149541000Y-70169000D01*
X149541000Y-72071000D01*
G37*
G36*
X151407395Y-70205546D02*
G01*
X151580466Y-70277234D01*
X151580467Y-70277235D01*
X151736227Y-70381310D01*
X151868690Y-70513773D01*
X151868691Y-70513775D01*
X151972766Y-70669534D01*
X152044454Y-70842605D01*
X152081000Y-71026333D01*
X152081000Y-71213667D01*
X152044454Y-71397395D01*
X151972766Y-71570466D01*
X151972765Y-71570467D01*
X151868690Y-71726227D01*
X151736227Y-71858690D01*
X151657818Y-71911081D01*
X151580466Y-71962766D01*
X151407395Y-72034454D01*
X151223667Y-72071000D01*
X151036333Y-72071000D01*
X150852605Y-72034454D01*
X150679534Y-71962766D01*
X150602182Y-71911081D01*
X150523773Y-71858690D01*
X150391310Y-71726227D01*
X150287235Y-71570467D01*
X150287234Y-71570466D01*
X150215546Y-71397395D01*
X150179000Y-71213667D01*
X150179000Y-71026333D01*
X150215546Y-70842605D01*
X150287234Y-70669534D01*
X150391309Y-70513775D01*
X150391310Y-70513773D01*
X150523773Y-70381310D01*
X150679533Y-70277235D01*
X150679534Y-70277234D01*
X150852605Y-70205546D01*
X151036333Y-70169000D01*
X151223667Y-70169000D01*
X151407395Y-70205546D01*
G37*
G36*
X146269059Y-66587860D02*
G01*
X146405732Y-66644472D01*
X146528735Y-66726660D01*
X146633340Y-66831265D01*
X146715528Y-66954268D01*
X146772140Y-67090941D01*
X146801000Y-67236033D01*
X146801000Y-67383967D01*
X146772140Y-67529059D01*
X146715528Y-67665732D01*
X146633340Y-67788735D01*
X146528735Y-67893340D01*
X146405732Y-67975528D01*
X146405731Y-67975529D01*
X146405730Y-67975529D01*
X146269059Y-68032140D01*
X146123968Y-68061000D01*
X145976032Y-68061000D01*
X145830941Y-68032140D01*
X145694270Y-67975529D01*
X145694269Y-67975529D01*
X145694268Y-67975528D01*
X145571265Y-67893340D01*
X145466660Y-67788735D01*
X145384472Y-67665732D01*
X145327860Y-67529059D01*
X145299000Y-67383967D01*
X145299000Y-67236033D01*
X145327860Y-67090941D01*
X145384472Y-66954268D01*
X145466660Y-66831265D01*
X145571265Y-66726660D01*
X145694268Y-66644472D01*
X145830941Y-66587860D01*
X145976032Y-66559000D01*
X146123968Y-66559000D01*
X146269059Y-66587860D01*
G37*
G36*
X137477395Y-58775546D02*
G01*
X137650466Y-58847234D01*
X137650467Y-58847235D01*
X137806227Y-58951310D01*
X137938690Y-59083773D01*
X137938691Y-59083775D01*
X138042766Y-59239534D01*
X138114454Y-59412605D01*
X138151000Y-59596333D01*
X138151000Y-59783667D01*
X138114454Y-59967395D01*
X138042766Y-60140466D01*
X138042765Y-60140467D01*
X137938690Y-60296227D01*
X137806227Y-60428690D01*
X137727818Y-60481081D01*
X137650466Y-60532766D01*
X137477395Y-60604454D01*
X137293667Y-60641000D01*
X137106333Y-60641000D01*
X136922605Y-60604454D01*
X136749534Y-60532766D01*
X136672182Y-60481081D01*
X136593773Y-60428690D01*
X136461310Y-60296227D01*
X136357235Y-60140467D01*
X136357234Y-60140466D01*
X136285546Y-59967395D01*
X136249000Y-59783667D01*
X136249000Y-59596333D01*
X136285546Y-59412605D01*
X136357234Y-59239534D01*
X136461309Y-59083775D01*
X136461310Y-59083773D01*
X136593773Y-58951310D01*
X136749533Y-58847235D01*
X136749534Y-58847234D01*
X136922605Y-58775546D01*
X137106333Y-58739000D01*
X137293667Y-58739000D01*
X137477395Y-58775546D01*
G37*
G36*
X126007395Y-58775546D02*
G01*
X126180466Y-58847234D01*
X126180467Y-58847235D01*
X126336227Y-58951310D01*
X126468690Y-59083773D01*
X126468691Y-59083775D01*
X126572766Y-59239534D01*
X126644454Y-59412605D01*
X126681000Y-59596333D01*
X126681000Y-59783667D01*
X126644454Y-59967395D01*
X126572766Y-60140466D01*
X126572765Y-60140467D01*
X126468690Y-60296227D01*
X126336227Y-60428690D01*
X126257818Y-60481081D01*
X126180466Y-60532766D01*
X126007395Y-60604454D01*
X125823667Y-60641000D01*
X125636333Y-60641000D01*
X125452605Y-60604454D01*
X125279534Y-60532766D01*
X125202182Y-60481081D01*
X125123773Y-60428690D01*
X124991310Y-60296227D01*
X124887235Y-60140467D01*
X124887234Y-60140466D01*
X124815546Y-59967395D01*
X124779000Y-59783667D01*
X124779000Y-59596333D01*
X124815546Y-59412605D01*
X124887234Y-59239534D01*
X124991309Y-59083775D01*
X124991310Y-59083773D01*
X125123773Y-58951310D01*
X125279533Y-58847235D01*
X125279534Y-58847234D01*
X125452605Y-58775546D01*
X125636333Y-58739000D01*
X125823667Y-58739000D01*
X126007395Y-58775546D01*
G37*
G36*
X123507395Y-58775546D02*
G01*
X123680466Y-58847234D01*
X123680467Y-58847235D01*
X123836227Y-58951310D01*
X123968690Y-59083773D01*
X123968691Y-59083775D01*
X124072766Y-59239534D01*
X124144454Y-59412605D01*
X124181000Y-59596333D01*
X124181000Y-59783667D01*
X124144454Y-59967395D01*
X124072766Y-60140466D01*
X124072765Y-60140467D01*
X123968690Y-60296227D01*
X123836227Y-60428690D01*
X123757818Y-60481081D01*
X123680466Y-60532766D01*
X123507395Y-60604454D01*
X123323667Y-60641000D01*
X123136333Y-60641000D01*
X122952605Y-60604454D01*
X122779534Y-60532766D01*
X122702182Y-60481081D01*
X122623773Y-60428690D01*
X122491310Y-60296227D01*
X122387235Y-60140467D01*
X122387234Y-60140466D01*
X122315546Y-59967395D01*
X122279000Y-59783667D01*
X122279000Y-59596333D01*
X122315546Y-59412605D01*
X122387234Y-59239534D01*
X122491309Y-59083775D01*
X122491310Y-59083773D01*
X122623773Y-58951310D01*
X122779533Y-58847235D01*
X122779534Y-58847234D01*
X122952605Y-58775546D01*
X123136333Y-58739000D01*
X123323667Y-58739000D01*
X123507395Y-58775546D01*
G37*
G36*
X121007395Y-58775546D02*
G01*
X121180466Y-58847234D01*
X121180467Y-58847235D01*
X121336227Y-58951310D01*
X121468690Y-59083773D01*
X121468691Y-59083775D01*
X121572766Y-59239534D01*
X121644454Y-59412605D01*
X121681000Y-59596333D01*
X121681000Y-59783667D01*
X121644454Y-59967395D01*
X121572766Y-60140466D01*
X121572765Y-60140467D01*
X121468690Y-60296227D01*
X121336227Y-60428690D01*
X121257818Y-60481081D01*
X121180466Y-60532766D01*
X121007395Y-60604454D01*
X120823667Y-60641000D01*
X120636333Y-60641000D01*
X120452605Y-60604454D01*
X120279534Y-60532766D01*
X120202182Y-60481081D01*
X120123773Y-60428690D01*
X119991310Y-60296227D01*
X119887235Y-60140467D01*
X119887234Y-60140466D01*
X119815546Y-59967395D01*
X119779000Y-59783667D01*
X119779000Y-59596333D01*
X119815546Y-59412605D01*
X119887234Y-59239534D01*
X119991309Y-59083775D01*
X119991310Y-59083773D01*
X120123773Y-58951310D01*
X120279533Y-58847235D01*
X120279534Y-58847234D01*
X120452605Y-58775546D01*
X120636333Y-58739000D01*
X120823667Y-58739000D01*
X121007395Y-58775546D01*
G37*
G36*
X134977395Y-58775546D02*
G01*
X135150466Y-58847234D01*
X135150467Y-58847235D01*
X135306227Y-58951310D01*
X135438690Y-59083773D01*
X135438691Y-59083775D01*
X135542766Y-59239534D01*
X135614454Y-59412605D01*
X135651000Y-59596333D01*
X135651000Y-59783667D01*
X135614454Y-59967395D01*
X135542766Y-60140466D01*
X135542765Y-60140467D01*
X135438690Y-60296227D01*
X135306227Y-60428690D01*
X135227818Y-60481081D01*
X135150466Y-60532766D01*
X134977395Y-60604454D01*
X134793667Y-60641000D01*
X134606333Y-60641000D01*
X134422605Y-60604454D01*
X134249534Y-60532766D01*
X134172182Y-60481081D01*
X134093773Y-60428690D01*
X133961310Y-60296227D01*
X133857235Y-60140467D01*
X133857234Y-60140466D01*
X133785546Y-59967395D01*
X133749000Y-59783667D01*
X133749000Y-59596333D01*
X133785546Y-59412605D01*
X133857234Y-59239534D01*
X133961309Y-59083775D01*
X133961310Y-59083773D01*
X134093773Y-58951310D01*
X134249533Y-58847235D01*
X134249534Y-58847234D01*
X134422605Y-58775546D01*
X134606333Y-58739000D01*
X134793667Y-58739000D01*
X134977395Y-58775546D01*
G37*
G36*
X139977395Y-58775546D02*
G01*
X140150466Y-58847234D01*
X140150467Y-58847235D01*
X140306227Y-58951310D01*
X140438690Y-59083773D01*
X140438691Y-59083775D01*
X140542766Y-59239534D01*
X140614454Y-59412605D01*
X140651000Y-59596333D01*
X140651000Y-59783667D01*
X140614454Y-59967395D01*
X140542766Y-60140466D01*
X140542765Y-60140467D01*
X140438690Y-60296227D01*
X140306227Y-60428690D01*
X140227818Y-60481081D01*
X140150466Y-60532766D01*
X139977395Y-60604454D01*
X139793667Y-60641000D01*
X139606333Y-60641000D01*
X139422605Y-60604454D01*
X139249534Y-60532766D01*
X139172182Y-60481081D01*
X139093773Y-60428690D01*
X138961310Y-60296227D01*
X138857235Y-60140467D01*
X138857234Y-60140466D01*
X138785546Y-59967395D01*
X138749000Y-59783667D01*
X138749000Y-59596333D01*
X138785546Y-59412605D01*
X138857234Y-59239534D01*
X138961309Y-59083775D01*
X138961310Y-59083773D01*
X139093773Y-58951310D01*
X139249533Y-58847235D01*
X139249534Y-58847234D01*
X139422605Y-58775546D01*
X139606333Y-58739000D01*
X139793667Y-58739000D01*
X139977395Y-58775546D01*
G37*
G36*
X146269059Y-55157860D02*
G01*
X146405732Y-55214472D01*
X146528735Y-55296660D01*
X146633340Y-55401265D01*
X146715528Y-55524268D01*
X146772140Y-55660941D01*
X146801000Y-55806033D01*
X146801000Y-55953967D01*
X146772140Y-56099059D01*
X146715528Y-56235732D01*
X146633340Y-56358735D01*
X146528735Y-56463340D01*
X146405732Y-56545528D01*
X146405731Y-56545529D01*
X146405730Y-56545529D01*
X146269059Y-56602140D01*
X146123968Y-56631000D01*
X145976032Y-56631000D01*
X145830941Y-56602140D01*
X145694270Y-56545529D01*
X145694269Y-56545529D01*
X145694268Y-56545528D01*
X145571265Y-56463340D01*
X145466660Y-56358735D01*
X145384472Y-56235732D01*
X145327860Y-56099059D01*
X145299000Y-55953967D01*
X145299000Y-55806033D01*
X145327860Y-55660941D01*
X145384472Y-55524268D01*
X145466660Y-55401265D01*
X145571265Y-55296660D01*
X145694268Y-55214472D01*
X145830941Y-55157860D01*
X145976032Y-55129000D01*
X146123968Y-55129000D01*
X146269059Y-55157860D01*
G37*
G36*
X119428254Y-50732818D02*
G01*
X119765300Y-50872427D01*
X119801513Y-50887427D01*
X120137436Y-51111884D01*
X120423116Y-51397564D01*
X120637552Y-51718489D01*
X120647574Y-51733489D01*
X120802182Y-52106746D01*
X120881000Y-52502993D01*
X120881000Y-52907007D01*
X120802182Y-53303254D01*
X120653787Y-53661511D01*
X120647573Y-53676513D01*
X120423116Y-54012436D01*
X120137436Y-54298116D01*
X119801513Y-54522573D01*
X119801512Y-54522574D01*
X119801511Y-54522574D01*
X119428254Y-54677182D01*
X119032007Y-54756000D01*
X118627993Y-54756000D01*
X118231746Y-54677182D01*
X117858489Y-54522574D01*
X117858488Y-54522574D01*
X117858487Y-54522573D01*
X117522564Y-54298116D01*
X117236884Y-54012436D01*
X117012427Y-53676513D01*
X117006213Y-53661511D01*
X116857818Y-53303254D01*
X116779000Y-52907007D01*
X116779000Y-52502993D01*
X116857818Y-52106746D01*
X117012426Y-51733489D01*
X117022449Y-51718489D01*
X117236884Y-51397564D01*
X117522564Y-51111884D01*
X117858487Y-50887427D01*
X117894700Y-50872427D01*
X118231746Y-50732818D01*
X118627993Y-50654000D01*
X119032007Y-50654000D01*
X119428254Y-50732818D01*
G37*
G36*
X133398254Y-50732818D02*
G01*
X133735300Y-50872427D01*
X133771513Y-50887427D01*
X134107436Y-51111884D01*
X134393116Y-51397564D01*
X134607552Y-51718489D01*
X134617574Y-51733489D01*
X134772182Y-52106746D01*
X134851000Y-52502993D01*
X134851000Y-52907007D01*
X134772182Y-53303254D01*
X134623787Y-53661511D01*
X134617573Y-53676513D01*
X134393116Y-54012436D01*
X134107436Y-54298116D01*
X133771513Y-54522573D01*
X133771512Y-54522574D01*
X133771511Y-54522574D01*
X133398254Y-54677182D01*
X133002007Y-54756000D01*
X132597993Y-54756000D01*
X132201746Y-54677182D01*
X131828489Y-54522574D01*
X131828488Y-54522574D01*
X131828487Y-54522573D01*
X131492564Y-54298116D01*
X131206884Y-54012436D01*
X130982427Y-53676513D01*
X130976213Y-53661511D01*
X130827818Y-53303254D01*
X130749000Y-52907007D01*
X130749000Y-52502993D01*
X130827818Y-52106746D01*
X130982426Y-51733489D01*
X130992449Y-51718489D01*
X131206884Y-51397564D01*
X131492564Y-51111884D01*
X131828487Y-50887427D01*
X131864700Y-50872427D01*
X132201746Y-50732818D01*
X132597993Y-50654000D01*
X133002007Y-50654000D01*
X133398254Y-50732818D01*
G37*
G36*
X128228254Y-50717818D02*
G01*
X128601511Y-50872426D01*
X128601513Y-50872427D01*
X128937436Y-51096884D01*
X129223116Y-51382564D01*
X129381455Y-51619534D01*
X129447574Y-51718489D01*
X129602182Y-52091746D01*
X129681000Y-52487993D01*
X129681000Y-52892007D01*
X129602182Y-53288254D01*
X129595968Y-53303255D01*
X129447573Y-53661513D01*
X129223116Y-53997436D01*
X128937436Y-54283116D01*
X128601513Y-54507573D01*
X128601512Y-54507574D01*
X128601511Y-54507574D01*
X128228254Y-54662182D01*
X127832007Y-54741000D01*
X127427993Y-54741000D01*
X127031746Y-54662182D01*
X126658489Y-54507574D01*
X126658488Y-54507574D01*
X126658487Y-54507573D01*
X126322564Y-54283116D01*
X126036884Y-53997436D01*
X125812427Y-53661513D01*
X125664032Y-53303255D01*
X125657818Y-53288254D01*
X125579000Y-52892007D01*
X125579000Y-52487993D01*
X125657818Y-52091746D01*
X125812426Y-51718489D01*
X125878546Y-51619534D01*
X126036884Y-51382564D01*
X126322564Y-51096884D01*
X126658487Y-50872427D01*
X126658489Y-50872426D01*
X127031746Y-50717818D01*
X127427993Y-50639000D01*
X127832007Y-50639000D01*
X128228254Y-50717818D01*
G37*
G36*
X142198254Y-50717818D02*
G01*
X142571511Y-50872426D01*
X142571513Y-50872427D01*
X142907436Y-51096884D01*
X143193116Y-51382564D01*
X143351455Y-51619534D01*
X143417574Y-51718489D01*
X143572182Y-52091746D01*
X143651000Y-52487993D01*
X143651000Y-52892007D01*
X143572182Y-53288254D01*
X143565968Y-53303255D01*
X143417573Y-53661513D01*
X143193116Y-53997436D01*
X142907436Y-54283116D01*
X142571513Y-54507573D01*
X142571512Y-54507574D01*
X142571511Y-54507574D01*
X142198254Y-54662182D01*
X141802007Y-54741000D01*
X141397993Y-54741000D01*
X141001746Y-54662182D01*
X140628489Y-54507574D01*
X140628488Y-54507574D01*
X140628487Y-54507573D01*
X140292564Y-54283116D01*
X140006884Y-53997436D01*
X139782427Y-53661513D01*
X139634032Y-53303255D01*
X139627818Y-53288254D01*
X139549000Y-52892007D01*
X139549000Y-52487993D01*
X139627818Y-52091746D01*
X139782426Y-51718489D01*
X139848546Y-51619534D01*
X140006884Y-51382564D01*
X140292564Y-51096884D01*
X140628487Y-50872427D01*
X140628489Y-50872426D01*
X141001746Y-50717818D01*
X141397993Y-50639000D01*
X141802007Y-50639000D01*
X142198254Y-50717818D01*
G37*
G36*
X149541000Y-53021000D02*
G01*
X147639000Y-53021000D01*
X147639000Y-51119000D01*
X149541000Y-51119000D01*
X149541000Y-53021000D01*
G37*
G36*
X151407395Y-51155546D02*
G01*
X151580466Y-51227234D01*
X151580467Y-51227235D01*
X151736227Y-51331310D01*
X151868690Y-51463773D01*
X151868691Y-51463775D01*
X151972766Y-51619534D01*
X152044454Y-51792605D01*
X152081000Y-51976333D01*
X152081000Y-52163667D01*
X152044454Y-52347395D01*
X151972766Y-52520466D01*
X151972765Y-52520467D01*
X151868690Y-52676227D01*
X151736227Y-52808690D01*
X151657818Y-52861081D01*
X151580466Y-52912766D01*
X151407395Y-52984454D01*
X151223667Y-53021000D01*
X151036333Y-53021000D01*
X150852605Y-52984454D01*
X150679534Y-52912766D01*
X150602182Y-52861081D01*
X150523773Y-52808690D01*
X150391310Y-52676227D01*
X150287235Y-52520467D01*
X150287234Y-52520466D01*
X150215546Y-52347395D01*
X150179000Y-52163667D01*
X150179000Y-51976333D01*
X150215546Y-51792605D01*
X150287234Y-51619534D01*
X150391309Y-51463775D01*
X150391310Y-51463773D01*
X150523773Y-51331310D01*
X150679533Y-51227235D01*
X150679534Y-51227234D01*
X150852605Y-51155546D01*
X151036333Y-51119000D01*
X151223667Y-51119000D01*
X151407395Y-51155546D01*
G37*
G36*
X146269059Y-47537860D02*
G01*
X146405732Y-47594472D01*
X146528735Y-47676660D01*
X146633340Y-47781265D01*
X146715528Y-47904268D01*
X146772140Y-48040941D01*
X146801000Y-48186033D01*
X146801000Y-48333967D01*
X146772140Y-48479059D01*
X146715528Y-48615732D01*
X146633340Y-48738735D01*
X146528735Y-48843340D01*
X146405732Y-48925528D01*
X146405731Y-48925529D01*
X146405730Y-48925529D01*
X146269059Y-48982140D01*
X146123968Y-49011000D01*
X145976032Y-49011000D01*
X145830941Y-48982140D01*
X145694270Y-48925529D01*
X145694269Y-48925529D01*
X145694268Y-48925528D01*
X145571265Y-48843340D01*
X145466660Y-48738735D01*
X145384472Y-48615732D01*
X145327860Y-48479059D01*
X145299000Y-48333967D01*
X145299000Y-48186033D01*
X145327860Y-48040941D01*
X145384472Y-47904268D01*
X145466660Y-47781265D01*
X145571265Y-47676660D01*
X145694268Y-47594472D01*
X145830941Y-47537860D01*
X145976032Y-47509000D01*
X146123968Y-47509000D01*
X146269059Y-47537860D01*
G37*
G36*
X123375256Y-38891298D02*
G01*
X123481579Y-38912447D01*
X123782042Y-39036903D01*
X124052451Y-39217585D01*
X124282415Y-39447549D01*
X124463097Y-39717958D01*
X124587553Y-40018421D01*
X124651000Y-40337391D01*
X124651000Y-40662609D01*
X124587553Y-40981579D01*
X124463097Y-41282042D01*
X124282415Y-41552451D01*
X124052451Y-41782415D01*
X123782042Y-41963097D01*
X123481579Y-42087553D01*
X123375256Y-42108702D01*
X123162611Y-42151000D01*
X122837389Y-42151000D01*
X122624744Y-42108702D01*
X122518421Y-42087553D01*
X122217958Y-41963097D01*
X121947549Y-41782415D01*
X121717585Y-41552451D01*
X121536903Y-41282042D01*
X121412447Y-40981579D01*
X121349000Y-40662609D01*
X121349000Y-40337391D01*
X121412447Y-40018421D01*
X121536903Y-39717958D01*
X121717585Y-39447549D01*
X121947549Y-39217585D01*
X122217958Y-39036903D01*
X122518421Y-38912447D01*
X122624744Y-38891298D01*
X122837389Y-38849000D01*
X123162611Y-38849000D01*
X123375256Y-38891298D01*
G37*
M02*
