G04 #@! TF.GenerationSoftware,KiCad,Pcbnew,(5.1.5)-3*
G04 #@! TF.CreationDate,2020-08-18T12:44:29+01:00*
G04 #@! TF.ProjectId,modulepcb,6d6f6475-6c65-4706-9362-2e6b69636164,rev?*
G04 #@! TF.SameCoordinates,Original*
G04 #@! TF.FileFunction,Legend,Bot*
G04 #@! TF.FilePolarity,Positive*
%FSLAX46Y46*%
G04 Gerber Fmt 4.6, Leading zero omitted, Abs format (unit mm)*
G04 Created by KiCad (PCBNEW (5.1.5)-3) date 2020-08-18 12:44:29*
%MOMM*%
%LPD*%
G04 APERTURE LIST*
%ADD10C,0.150000*%
%ADD11C,0.125000*%
%ADD12C,0.120000*%
G04 APERTURE END LIST*
D10*
X147038095Y-118752380D02*
X147038095Y-119561904D01*
X146990476Y-119657142D01*
X146942857Y-119704761D01*
X146847619Y-119752380D01*
X146657142Y-119752380D01*
X146561904Y-119704761D01*
X146514285Y-119657142D01*
X146466666Y-119561904D01*
X146466666Y-118752380D01*
X146038095Y-119704761D02*
X145895238Y-119752380D01*
X145657142Y-119752380D01*
X145561904Y-119704761D01*
X145514285Y-119657142D01*
X145466666Y-119561904D01*
X145466666Y-119466666D01*
X145514285Y-119371428D01*
X145561904Y-119323809D01*
X145657142Y-119276190D01*
X145847619Y-119228571D01*
X145942857Y-119180952D01*
X145990476Y-119133333D01*
X146038095Y-119038095D01*
X146038095Y-118942857D01*
X145990476Y-118847619D01*
X145942857Y-118800000D01*
X145847619Y-118752380D01*
X145609523Y-118752380D01*
X145466666Y-118800000D01*
X144704761Y-119228571D02*
X144561904Y-119276190D01*
X144514285Y-119323809D01*
X144466666Y-119419047D01*
X144466666Y-119561904D01*
X144514285Y-119657142D01*
X144561904Y-119704761D01*
X144657142Y-119752380D01*
X145038095Y-119752380D01*
X145038095Y-118752380D01*
X144704761Y-118752380D01*
X144609523Y-118800000D01*
X144561904Y-118847619D01*
X144514285Y-118942857D01*
X144514285Y-119038095D01*
X144561904Y-119133333D01*
X144609523Y-119180952D01*
X144704761Y-119228571D01*
X145038095Y-119228571D01*
X143419047Y-119085714D02*
X143038095Y-119085714D01*
X143276190Y-118752380D02*
X143276190Y-119609523D01*
X143228571Y-119704761D01*
X143133333Y-119752380D01*
X143038095Y-119752380D01*
X142704761Y-119752380D02*
X142704761Y-118752380D01*
X142276190Y-119752380D02*
X142276190Y-119228571D01*
X142323809Y-119133333D01*
X142419047Y-119085714D01*
X142561904Y-119085714D01*
X142657142Y-119133333D01*
X142704761Y-119180952D01*
X141800000Y-119752380D02*
X141800000Y-119085714D01*
X141800000Y-118752380D02*
X141847619Y-118800000D01*
X141800000Y-118847619D01*
X141752380Y-118800000D01*
X141800000Y-118752380D01*
X141800000Y-118847619D01*
X141371428Y-119704761D02*
X141276190Y-119752380D01*
X141085714Y-119752380D01*
X140990476Y-119704761D01*
X140942857Y-119609523D01*
X140942857Y-119561904D01*
X140990476Y-119466666D01*
X141085714Y-119419047D01*
X141228571Y-119419047D01*
X141323809Y-119371428D01*
X141371428Y-119276190D01*
X141371428Y-119228571D01*
X141323809Y-119133333D01*
X141228571Y-119085714D01*
X141085714Y-119085714D01*
X140990476Y-119133333D01*
X139371428Y-119704761D02*
X139466666Y-119752380D01*
X139657142Y-119752380D01*
X139752380Y-119704761D01*
X139800000Y-119609523D01*
X139800000Y-119228571D01*
X139752380Y-119133333D01*
X139657142Y-119085714D01*
X139466666Y-119085714D01*
X139371428Y-119133333D01*
X139323809Y-119228571D01*
X139323809Y-119323809D01*
X139800000Y-119419047D01*
X138895238Y-119085714D02*
X138895238Y-119752380D01*
X138895238Y-119180952D02*
X138847619Y-119133333D01*
X138752380Y-119085714D01*
X138609523Y-119085714D01*
X138514285Y-119133333D01*
X138466666Y-119228571D01*
X138466666Y-119752380D01*
X137561904Y-119752380D02*
X137561904Y-118752380D01*
X137561904Y-119704761D02*
X137657142Y-119752380D01*
X137847619Y-119752380D01*
X137942857Y-119704761D01*
X137990476Y-119657142D01*
X138038095Y-119561904D01*
X138038095Y-119276190D01*
X137990476Y-119180952D01*
X137942857Y-119133333D01*
X137847619Y-119085714D01*
X137657142Y-119085714D01*
X137561904Y-119133333D01*
D11*
X150440178Y-158639285D02*
X150440178Y-157889285D01*
X150083035Y-158639285D02*
X150083035Y-157889285D01*
X149904464Y-157889285D01*
X149797321Y-157925000D01*
X149725892Y-157996428D01*
X149690178Y-158067857D01*
X149654464Y-158210714D01*
X149654464Y-158317857D01*
X149690178Y-158460714D01*
X149725892Y-158532142D01*
X149797321Y-158603571D01*
X149904464Y-158639285D01*
X150083035Y-158639285D01*
X148261607Y-157889285D02*
X147761607Y-158639285D01*
X147761607Y-157889285D02*
X148261607Y-158639285D01*
X147083035Y-158639285D02*
X147511607Y-158639285D01*
X147297321Y-158639285D02*
X147297321Y-157889285D01*
X147368750Y-157996428D01*
X147440178Y-158067857D01*
X147511607Y-158103571D01*
X145261607Y-157889285D02*
X145618750Y-157889285D01*
X145654464Y-158246428D01*
X145618750Y-158210714D01*
X145547321Y-158175000D01*
X145368750Y-158175000D01*
X145297321Y-158210714D01*
X145261607Y-158246428D01*
X145225892Y-158317857D01*
X145225892Y-158496428D01*
X145261607Y-158567857D01*
X145297321Y-158603571D01*
X145368750Y-158639285D01*
X145547321Y-158639285D01*
X145618750Y-158603571D01*
X145654464Y-158567857D01*
X145011607Y-157889285D02*
X144761607Y-158639285D01*
X144511607Y-157889285D01*
X143190178Y-157889285D02*
X142690178Y-158639285D01*
X142690178Y-157889285D02*
X143190178Y-158639285D01*
X142440178Y-157960714D02*
X142404464Y-157925000D01*
X142333035Y-157889285D01*
X142154464Y-157889285D01*
X142083035Y-157925000D01*
X142047321Y-157960714D01*
X142011607Y-158032142D01*
X142011607Y-158103571D01*
X142047321Y-158210714D01*
X142475892Y-158639285D01*
X142011607Y-158639285D01*
X140154464Y-157925000D02*
X140225892Y-157889285D01*
X140333035Y-157889285D01*
X140440178Y-157925000D01*
X140511607Y-157996428D01*
X140547321Y-158067857D01*
X140583035Y-158210714D01*
X140583035Y-158317857D01*
X140547321Y-158460714D01*
X140511607Y-158532142D01*
X140440178Y-158603571D01*
X140333035Y-158639285D01*
X140261607Y-158639285D01*
X140154464Y-158603571D01*
X140118750Y-158567857D01*
X140118750Y-158317857D01*
X140261607Y-158317857D01*
X139797321Y-158639285D02*
X139797321Y-157889285D01*
X139368750Y-158639285D01*
X139368750Y-157889285D01*
X139011607Y-158639285D02*
X139011607Y-157889285D01*
X138833035Y-157889285D01*
X138725892Y-157925000D01*
X138654464Y-157996428D01*
X138618750Y-158067857D01*
X138583035Y-158210714D01*
X138583035Y-158317857D01*
X138618750Y-158460714D01*
X138654464Y-158532142D01*
X138725892Y-158603571D01*
X138833035Y-158639285D01*
X139011607Y-158639285D01*
X137725892Y-158603571D02*
X137618750Y-158639285D01*
X137440178Y-158639285D01*
X137368750Y-158603571D01*
X137333035Y-158567857D01*
X137297321Y-158496428D01*
X137297321Y-158425000D01*
X137333035Y-158353571D01*
X137368750Y-158317857D01*
X137440178Y-158282142D01*
X137583035Y-158246428D01*
X137654464Y-158210714D01*
X137690178Y-158175000D01*
X137725892Y-158103571D01*
X137725892Y-158032142D01*
X137690178Y-157960714D01*
X137654464Y-157925000D01*
X137583035Y-157889285D01*
X137404464Y-157889285D01*
X137297321Y-157925000D01*
X136975892Y-158639285D02*
X136975892Y-157889285D01*
X136797321Y-157889285D01*
X136690178Y-157925000D01*
X136618750Y-157996428D01*
X136583035Y-158067857D01*
X136547321Y-158210714D01*
X136547321Y-158317857D01*
X136583035Y-158460714D01*
X136618750Y-158532142D01*
X136690178Y-158603571D01*
X136797321Y-158639285D01*
X136975892Y-158639285D01*
X136261607Y-158425000D02*
X135904464Y-158425000D01*
X136333035Y-158639285D02*
X136083035Y-157889285D01*
X135833035Y-158639285D01*
X135047321Y-158603571D02*
X134940178Y-158639285D01*
X134761607Y-158639285D01*
X134690178Y-158603571D01*
X134654464Y-158567857D01*
X134618750Y-158496428D01*
X134618750Y-158425000D01*
X134654464Y-158353571D01*
X134690178Y-158317857D01*
X134761607Y-158282142D01*
X134904464Y-158246428D01*
X134975892Y-158210714D01*
X135011607Y-158175000D01*
X135047321Y-158103571D01*
X135047321Y-158032142D01*
X135011607Y-157960714D01*
X134975892Y-157925000D01*
X134904464Y-157889285D01*
X134725892Y-157889285D01*
X134618750Y-157925000D01*
X133868750Y-158567857D02*
X133904464Y-158603571D01*
X134011607Y-158639285D01*
X134083035Y-158639285D01*
X134190178Y-158603571D01*
X134261607Y-158532142D01*
X134297321Y-158460714D01*
X134333035Y-158317857D01*
X134333035Y-158210714D01*
X134297321Y-158067857D01*
X134261607Y-157996428D01*
X134190178Y-157925000D01*
X134083035Y-157889285D01*
X134011607Y-157889285D01*
X133904464Y-157925000D01*
X133868750Y-157960714D01*
X133190178Y-158639285D02*
X133547321Y-158639285D01*
X133547321Y-157889285D01*
X132440178Y-157889285D02*
X131940178Y-158639285D01*
X131940178Y-157889285D02*
X132440178Y-158639285D01*
X131725892Y-157889285D02*
X131261607Y-157889285D01*
X131511607Y-158175000D01*
X131404464Y-158175000D01*
X131333035Y-158210714D01*
X131297321Y-158246428D01*
X131261607Y-158317857D01*
X131261607Y-158496428D01*
X131297321Y-158567857D01*
X131333035Y-158603571D01*
X131404464Y-158639285D01*
X131618750Y-158639285D01*
X131690178Y-158603571D01*
X131725892Y-158567857D01*
D10*
X129944761Y-158932857D02*
X129992380Y-159075714D01*
X129992380Y-159313809D01*
X129944761Y-159409047D01*
X129897142Y-159456666D01*
X129801904Y-159504285D01*
X129706666Y-159504285D01*
X129611428Y-159456666D01*
X129563809Y-159409047D01*
X129516190Y-159313809D01*
X129468571Y-159123333D01*
X129420952Y-159028095D01*
X129373333Y-158980476D01*
X129278095Y-158932857D01*
X129182857Y-158932857D01*
X129087619Y-158980476D01*
X129040000Y-159028095D01*
X128992380Y-159123333D01*
X128992380Y-159361428D01*
X129040000Y-159504285D01*
X128992380Y-159790000D02*
X128992380Y-160361428D01*
X129992380Y-160075714D02*
X128992380Y-160075714D01*
X129992380Y-161266190D02*
X129516190Y-160932857D01*
X129992380Y-160694761D02*
X128992380Y-160694761D01*
X128992380Y-161075714D01*
X129040000Y-161170952D01*
X129087619Y-161218571D01*
X129182857Y-161266190D01*
X129325714Y-161266190D01*
X129420952Y-161218571D01*
X129468571Y-161170952D01*
X129516190Y-161075714D01*
X129516190Y-160694761D01*
X129992380Y-161694761D02*
X128992380Y-161694761D01*
X129992380Y-162170952D02*
X128992380Y-162170952D01*
X128992380Y-162551904D01*
X129040000Y-162647142D01*
X129087619Y-162694761D01*
X129182857Y-162742380D01*
X129325714Y-162742380D01*
X129420952Y-162694761D01*
X129468571Y-162647142D01*
X129516190Y-162551904D01*
X129516190Y-162170952D01*
X129468571Y-163170952D02*
X129468571Y-163504285D01*
X129992380Y-163647142D02*
X129992380Y-163170952D01*
X128992380Y-163170952D01*
X128992380Y-163647142D01*
X152946190Y-165552380D02*
X152946190Y-164552380D01*
X152708095Y-164552380D01*
X152565238Y-164600000D01*
X152470000Y-164695238D01*
X152422380Y-164790476D01*
X152374761Y-164980952D01*
X152374761Y-165123809D01*
X152422380Y-165314285D01*
X152470000Y-165409523D01*
X152565238Y-165504761D01*
X152708095Y-165552380D01*
X152946190Y-165552380D01*
X151755714Y-164552380D02*
X151565238Y-164552380D01*
X151470000Y-164600000D01*
X151374761Y-164695238D01*
X151327142Y-164885714D01*
X151327142Y-165219047D01*
X151374761Y-165409523D01*
X151470000Y-165504761D01*
X151565238Y-165552380D01*
X151755714Y-165552380D01*
X151850952Y-165504761D01*
X151946190Y-165409523D01*
X151993809Y-165219047D01*
X151993809Y-164885714D01*
X151946190Y-164695238D01*
X151850952Y-164600000D01*
X151755714Y-164552380D01*
X150136666Y-165552380D02*
X150136666Y-164552380D01*
X149565238Y-165552380D01*
X149565238Y-164552380D01*
X148898571Y-164552380D02*
X148708095Y-164552380D01*
X148612857Y-164600000D01*
X148517619Y-164695238D01*
X148470000Y-164885714D01*
X148470000Y-165219047D01*
X148517619Y-165409523D01*
X148612857Y-165504761D01*
X148708095Y-165552380D01*
X148898571Y-165552380D01*
X148993809Y-165504761D01*
X149089047Y-165409523D01*
X149136666Y-165219047D01*
X149136666Y-164885714D01*
X149089047Y-164695238D01*
X148993809Y-164600000D01*
X148898571Y-164552380D01*
X148184285Y-164552380D02*
X147612857Y-164552380D01*
X147898571Y-165552380D02*
X147898571Y-164552380D01*
X145946190Y-165457142D02*
X145993809Y-165504761D01*
X146136666Y-165552380D01*
X146231904Y-165552380D01*
X146374761Y-165504761D01*
X146470000Y-165409523D01*
X146517619Y-165314285D01*
X146565238Y-165123809D01*
X146565238Y-164980952D01*
X146517619Y-164790476D01*
X146470000Y-164695238D01*
X146374761Y-164600000D01*
X146231904Y-164552380D01*
X146136666Y-164552380D01*
X145993809Y-164600000D01*
X145946190Y-164647619D01*
X145327142Y-164552380D02*
X145136666Y-164552380D01*
X145041428Y-164600000D01*
X144946190Y-164695238D01*
X144898571Y-164885714D01*
X144898571Y-165219047D01*
X144946190Y-165409523D01*
X145041428Y-165504761D01*
X145136666Y-165552380D01*
X145327142Y-165552380D01*
X145422380Y-165504761D01*
X145517619Y-165409523D01*
X145565238Y-165219047D01*
X145565238Y-164885714D01*
X145517619Y-164695238D01*
X145422380Y-164600000D01*
X145327142Y-164552380D01*
X144470000Y-165552380D02*
X144470000Y-164552380D01*
X143898571Y-165552380D01*
X143898571Y-164552380D01*
X143422380Y-165552380D02*
X143422380Y-164552380D01*
X142850952Y-165552380D01*
X142850952Y-164552380D01*
X142374761Y-165028571D02*
X142041428Y-165028571D01*
X141898571Y-165552380D02*
X142374761Y-165552380D01*
X142374761Y-164552380D01*
X141898571Y-164552380D01*
X140898571Y-165457142D02*
X140946190Y-165504761D01*
X141089047Y-165552380D01*
X141184285Y-165552380D01*
X141327142Y-165504761D01*
X141422380Y-165409523D01*
X141470000Y-165314285D01*
X141517619Y-165123809D01*
X141517619Y-164980952D01*
X141470000Y-164790476D01*
X141422380Y-164695238D01*
X141327142Y-164600000D01*
X141184285Y-164552380D01*
X141089047Y-164552380D01*
X140946190Y-164600000D01*
X140898571Y-164647619D01*
X140612857Y-164552380D02*
X140041428Y-164552380D01*
X140327142Y-165552380D02*
X140327142Y-164552380D01*
X139089047Y-164552380D02*
X138517619Y-164552380D01*
X138803333Y-165552380D02*
X138803333Y-164552380D01*
X137993809Y-164552380D02*
X137803333Y-164552380D01*
X137708095Y-164600000D01*
X137612857Y-164695238D01*
X137565238Y-164885714D01*
X137565238Y-165219047D01*
X137612857Y-165409523D01*
X137708095Y-165504761D01*
X137803333Y-165552380D01*
X137993809Y-165552380D01*
X138089047Y-165504761D01*
X138184285Y-165409523D01*
X138231904Y-165219047D01*
X138231904Y-164885714D01*
X138184285Y-164695238D01*
X138089047Y-164600000D01*
X137993809Y-164552380D01*
X136374761Y-165028571D02*
X136041428Y-165028571D01*
X135898571Y-165552380D02*
X136374761Y-165552380D01*
X136374761Y-164552380D01*
X135898571Y-164552380D01*
X135470000Y-164552380D02*
X135470000Y-165361904D01*
X135422380Y-165457142D01*
X135374761Y-165504761D01*
X135279523Y-165552380D01*
X135089047Y-165552380D01*
X134993809Y-165504761D01*
X134946190Y-165457142D01*
X134898571Y-165361904D01*
X134898571Y-164552380D01*
X133850952Y-165552380D02*
X134184285Y-165076190D01*
X134422380Y-165552380D02*
X134422380Y-164552380D01*
X134041428Y-164552380D01*
X133946190Y-164600000D01*
X133898571Y-164647619D01*
X133850952Y-164742857D01*
X133850952Y-164885714D01*
X133898571Y-164980952D01*
X133946190Y-165028571D01*
X134041428Y-165076190D01*
X134422380Y-165076190D01*
X133231904Y-164552380D02*
X133041428Y-164552380D01*
X132946190Y-164600000D01*
X132850952Y-164695238D01*
X132803333Y-164885714D01*
X132803333Y-165219047D01*
X132850952Y-165409523D01*
X132946190Y-165504761D01*
X133041428Y-165552380D01*
X133231904Y-165552380D01*
X133327142Y-165504761D01*
X133422380Y-165409523D01*
X133470000Y-165219047D01*
X133470000Y-164885714D01*
X133422380Y-164695238D01*
X133327142Y-164600000D01*
X133231904Y-164552380D01*
X131803333Y-165552380D02*
X132136666Y-165076190D01*
X132374761Y-165552380D02*
X132374761Y-164552380D01*
X131993809Y-164552380D01*
X131898571Y-164600000D01*
X131850952Y-164647619D01*
X131803333Y-164742857D01*
X131803333Y-164885714D01*
X131850952Y-164980952D01*
X131898571Y-165028571D01*
X131993809Y-165076190D01*
X132374761Y-165076190D01*
X131422380Y-165266666D02*
X130946190Y-165266666D01*
X131517619Y-165552380D02*
X131184285Y-164552380D01*
X130850952Y-165552380D01*
X129946190Y-165457142D02*
X129993809Y-165504761D01*
X130136666Y-165552380D01*
X130231904Y-165552380D01*
X130374761Y-165504761D01*
X130470000Y-165409523D01*
X130517619Y-165314285D01*
X130565238Y-165123809D01*
X130565238Y-164980952D01*
X130517619Y-164790476D01*
X130470000Y-164695238D01*
X130374761Y-164600000D01*
X130231904Y-164552380D01*
X130136666Y-164552380D01*
X129993809Y-164600000D01*
X129946190Y-164647619D01*
X129517619Y-165552380D02*
X129517619Y-164552380D01*
X128946190Y-165552380D02*
X129374761Y-164980952D01*
X128946190Y-164552380D02*
X129517619Y-165123809D01*
D12*
X151190000Y-161350000D02*
X151190000Y-160020000D01*
X149860000Y-161350000D02*
X151190000Y-161350000D01*
X148590000Y-161350000D02*
X148590000Y-158690000D01*
X148590000Y-158690000D02*
X130750000Y-158690000D01*
X148590000Y-161350000D02*
X130750000Y-161350000D01*
X130750000Y-161350000D02*
X130750000Y-158690000D01*
X146050000Y-73990000D02*
X146050000Y-73040000D01*
X146050000Y-68250000D02*
X146050000Y-69200000D01*
X145130000Y-73040000D02*
X145130000Y-69200000D01*
X146970000Y-73040000D02*
X145130000Y-73040000D01*
X146970000Y-69200000D02*
X146970000Y-73040000D01*
X145130000Y-69200000D02*
X146970000Y-69200000D01*
X146050000Y-54940000D02*
X146050000Y-53990000D01*
X146050000Y-49200000D02*
X146050000Y-50150000D01*
X145130000Y-53990000D02*
X145130000Y-50150000D01*
X146970000Y-53990000D02*
X145130000Y-53990000D01*
X146970000Y-50150000D02*
X146970000Y-53990000D01*
X145130000Y-50150000D02*
X146970000Y-50150000D01*
X151190000Y-163890000D02*
X151190000Y-162560000D01*
X149860000Y-163890000D02*
X151190000Y-163890000D01*
X148590000Y-163890000D02*
X148590000Y-161230000D01*
X148590000Y-161230000D02*
X130750000Y-161230000D01*
X148590000Y-163890000D02*
X130750000Y-163890000D01*
X130750000Y-163890000D02*
X130750000Y-161230000D01*
X151070000Y-155000000D02*
X152400000Y-155000000D01*
X151070000Y-153670000D02*
X151070000Y-155000000D01*
X151070000Y-152400000D02*
X153730000Y-152400000D01*
X153730000Y-152400000D02*
X153730000Y-116780000D01*
X151070000Y-152400000D02*
X151070000Y-116780000D01*
X151070000Y-116780000D02*
X153730000Y-116780000D01*
X123130000Y-123250000D02*
X124460000Y-123250000D01*
X123130000Y-121920000D02*
X123130000Y-123250000D01*
X123130000Y-120650000D02*
X125790000Y-120650000D01*
X125790000Y-120650000D02*
X125790000Y-120590000D01*
X123130000Y-120650000D02*
X123130000Y-120590000D01*
X123130000Y-120590000D02*
X125790000Y-120590000D01*
X147260000Y-109280000D02*
X148590000Y-109280000D01*
X147260000Y-107950000D02*
X147260000Y-109280000D01*
X147260000Y-106680000D02*
X149920000Y-106680000D01*
X149920000Y-106680000D02*
X149920000Y-106620000D01*
X147260000Y-106680000D02*
X147260000Y-106620000D01*
X147260000Y-106620000D02*
X149920000Y-106620000D01*
X130750000Y-155000000D02*
X132080000Y-155000000D01*
X130750000Y-153670000D02*
X130750000Y-155000000D01*
X130750000Y-152400000D02*
X133410000Y-152400000D01*
X133410000Y-152400000D02*
X133410000Y-116780000D01*
X130750000Y-152400000D02*
X130750000Y-116780000D01*
X130750000Y-116780000D02*
X133410000Y-116780000D01*
X151260000Y-157610000D02*
X133220000Y-157610000D01*
X151260000Y-114170000D02*
X151260000Y-157610000D01*
X133220000Y-114170000D02*
X151260000Y-114170000D01*
X135890000Y-116840000D02*
X133220000Y-116840000D01*
X135890000Y-152400000D02*
X135890000Y-116840000D01*
X135890000Y-152400000D02*
X133220000Y-152400000D01*
X148590000Y-116840000D02*
X151260000Y-116840000D01*
X148590000Y-154940000D02*
X148590000Y-116840000D01*
X148590000Y-154940000D02*
X151260000Y-154940000D01*
X133220000Y-157610000D02*
X133220000Y-154940000D01*
X133220000Y-152400000D02*
X133220000Y-114170000D01*
X135890000Y-154940000D02*
X133220000Y-154940000D01*
X135890000Y-152400000D02*
X135890000Y-154940000D01*
D10*
X151642380Y-159686666D02*
X152356666Y-159686666D01*
X152499523Y-159639047D01*
X152594761Y-159543809D01*
X152642380Y-159400952D01*
X152642380Y-159305714D01*
X151642380Y-160591428D02*
X151642380Y-160400952D01*
X151690000Y-160305714D01*
X151737619Y-160258095D01*
X151880476Y-160162857D01*
X152070952Y-160115238D01*
X152451904Y-160115238D01*
X152547142Y-160162857D01*
X152594761Y-160210476D01*
X152642380Y-160305714D01*
X152642380Y-160496190D01*
X152594761Y-160591428D01*
X152547142Y-160639047D01*
X152451904Y-160686666D01*
X152213809Y-160686666D01*
X152118571Y-160639047D01*
X152070952Y-160591428D01*
X152023333Y-160496190D01*
X152023333Y-160305714D01*
X152070952Y-160210476D01*
X152118571Y-160162857D01*
X152213809Y-160115238D01*
X144582380Y-70953333D02*
X144106190Y-70620000D01*
X144582380Y-70381904D02*
X143582380Y-70381904D01*
X143582380Y-70762857D01*
X143630000Y-70858095D01*
X143677619Y-70905714D01*
X143772857Y-70953333D01*
X143915714Y-70953333D01*
X144010952Y-70905714D01*
X144058571Y-70858095D01*
X144106190Y-70762857D01*
X144106190Y-70381904D01*
X143677619Y-71334285D02*
X143630000Y-71381904D01*
X143582380Y-71477142D01*
X143582380Y-71715238D01*
X143630000Y-71810476D01*
X143677619Y-71858095D01*
X143772857Y-71905714D01*
X143868095Y-71905714D01*
X144010952Y-71858095D01*
X144582380Y-71286666D01*
X144582380Y-71905714D01*
X144582380Y-51903333D02*
X144106190Y-51570000D01*
X144582380Y-51331904D02*
X143582380Y-51331904D01*
X143582380Y-51712857D01*
X143630000Y-51808095D01*
X143677619Y-51855714D01*
X143772857Y-51903333D01*
X143915714Y-51903333D01*
X144010952Y-51855714D01*
X144058571Y-51808095D01*
X144106190Y-51712857D01*
X144106190Y-51331904D01*
X144582380Y-52855714D02*
X144582380Y-52284285D01*
X144582380Y-52570000D02*
X143582380Y-52570000D01*
X143725238Y-52474761D01*
X143820476Y-52379523D01*
X143868095Y-52284285D01*
X118443333Y-136842380D02*
X118443333Y-137556666D01*
X118490952Y-137699523D01*
X118586190Y-137794761D01*
X118729047Y-137842380D01*
X118824285Y-137842380D01*
X117824285Y-137270952D02*
X117919523Y-137223333D01*
X117967142Y-137175714D01*
X118014761Y-137080476D01*
X118014761Y-137032857D01*
X117967142Y-136937619D01*
X117919523Y-136890000D01*
X117824285Y-136842380D01*
X117633809Y-136842380D01*
X117538571Y-136890000D01*
X117490952Y-136937619D01*
X117443333Y-137032857D01*
X117443333Y-137080476D01*
X117490952Y-137175714D01*
X117538571Y-137223333D01*
X117633809Y-137270952D01*
X117824285Y-137270952D01*
X117919523Y-137318571D01*
X117967142Y-137366190D01*
X118014761Y-137461428D01*
X118014761Y-137651904D01*
X117967142Y-137747142D01*
X117919523Y-137794761D01*
X117824285Y-137842380D01*
X117633809Y-137842380D01*
X117538571Y-137794761D01*
X117490952Y-137747142D01*
X117443333Y-137651904D01*
X117443333Y-137461428D01*
X117490952Y-137366190D01*
X117538571Y-137318571D01*
X117633809Y-137270952D01*
X118443333Y-152082380D02*
X118443333Y-152796666D01*
X118490952Y-152939523D01*
X118586190Y-153034761D01*
X118729047Y-153082380D01*
X118824285Y-153082380D01*
X118062380Y-152082380D02*
X117395714Y-152082380D01*
X117824285Y-153082380D01*
X151642380Y-162226666D02*
X152356666Y-162226666D01*
X152499523Y-162179047D01*
X152594761Y-162083809D01*
X152642380Y-161940952D01*
X152642380Y-161845714D01*
X151642380Y-163179047D02*
X151642380Y-162702857D01*
X152118571Y-162655238D01*
X152070952Y-162702857D01*
X152023333Y-162798095D01*
X152023333Y-163036190D01*
X152070952Y-163131428D01*
X152118571Y-163179047D01*
X152213809Y-163226666D01*
X152451904Y-163226666D01*
X152547142Y-163179047D01*
X152594761Y-163131428D01*
X152642380Y-163036190D01*
X152642380Y-162798095D01*
X152594761Y-162702857D01*
X152547142Y-162655238D01*
X152733333Y-155452380D02*
X152733333Y-156166666D01*
X152780952Y-156309523D01*
X152876190Y-156404761D01*
X153019047Y-156452380D01*
X153114285Y-156452380D01*
X151828571Y-155785714D02*
X151828571Y-156452380D01*
X152066666Y-155404761D02*
X152304761Y-156119047D01*
X151685714Y-156119047D01*
X124793333Y-123702380D02*
X124793333Y-124416666D01*
X124840952Y-124559523D01*
X124936190Y-124654761D01*
X125079047Y-124702380D01*
X125174285Y-124702380D01*
X124412380Y-123702380D02*
X123793333Y-123702380D01*
X124126666Y-124083333D01*
X123983809Y-124083333D01*
X123888571Y-124130952D01*
X123840952Y-124178571D01*
X123793333Y-124273809D01*
X123793333Y-124511904D01*
X123840952Y-124607142D01*
X123888571Y-124654761D01*
X123983809Y-124702380D01*
X124269523Y-124702380D01*
X124364761Y-124654761D01*
X124412380Y-124607142D01*
X148923333Y-109732380D02*
X148923333Y-110446666D01*
X148970952Y-110589523D01*
X149066190Y-110684761D01*
X149209047Y-110732380D01*
X149304285Y-110732380D01*
X148494761Y-109827619D02*
X148447142Y-109780000D01*
X148351904Y-109732380D01*
X148113809Y-109732380D01*
X148018571Y-109780000D01*
X147970952Y-109827619D01*
X147923333Y-109922857D01*
X147923333Y-110018095D01*
X147970952Y-110160952D01*
X148542380Y-110732380D01*
X147923333Y-110732380D01*
X132413333Y-155452380D02*
X132413333Y-156166666D01*
X132460952Y-156309523D01*
X132556190Y-156404761D01*
X132699047Y-156452380D01*
X132794285Y-156452380D01*
X131413333Y-156452380D02*
X131984761Y-156452380D01*
X131699047Y-156452380D02*
X131699047Y-155452380D01*
X131794285Y-155595238D01*
X131889523Y-155690476D01*
X131984761Y-155738095D01*
X123761904Y-159252380D02*
X123761904Y-158252380D01*
X123761904Y-158728571D02*
X123190476Y-158728571D01*
X123190476Y-159252380D02*
X123190476Y-158252380D01*
X122761904Y-158347619D02*
X122714285Y-158300000D01*
X122619047Y-158252380D01*
X122380952Y-158252380D01*
X122285714Y-158300000D01*
X122238095Y-158347619D01*
X122190476Y-158442857D01*
X122190476Y-158538095D01*
X122238095Y-158680952D01*
X122809523Y-159252380D01*
X122190476Y-159252380D01*
X120141904Y-43632380D02*
X120141904Y-42632380D01*
X120141904Y-43108571D02*
X119570476Y-43108571D01*
X119570476Y-43632380D02*
X119570476Y-42632380D01*
X118570476Y-43632380D02*
X119141904Y-43632380D01*
X118856190Y-43632380D02*
X118856190Y-42632380D01*
X118951428Y-42775238D01*
X119046666Y-42870476D01*
X119141904Y-42918095D01*
X150598095Y-67612380D02*
X150598095Y-66612380D01*
X150360000Y-66612380D01*
X150217142Y-66660000D01*
X150121904Y-66755238D01*
X150074285Y-66850476D01*
X150026666Y-67040952D01*
X150026666Y-67183809D01*
X150074285Y-67374285D01*
X150121904Y-67469523D01*
X150217142Y-67564761D01*
X150360000Y-67612380D01*
X150598095Y-67612380D01*
X149645714Y-66707619D02*
X149598095Y-66660000D01*
X149502857Y-66612380D01*
X149264761Y-66612380D01*
X149169523Y-66660000D01*
X149121904Y-66707619D01*
X149074285Y-66802857D01*
X149074285Y-66898095D01*
X149121904Y-67040952D01*
X149693333Y-67612380D01*
X149074285Y-67612380D01*
X150598095Y-48562380D02*
X150598095Y-47562380D01*
X150360000Y-47562380D01*
X150217142Y-47610000D01*
X150121904Y-47705238D01*
X150074285Y-47800476D01*
X150026666Y-47990952D01*
X150026666Y-48133809D01*
X150074285Y-48324285D01*
X150121904Y-48419523D01*
X150217142Y-48514761D01*
X150360000Y-48562380D01*
X150598095Y-48562380D01*
X149074285Y-48562380D02*
X149645714Y-48562380D01*
X149360000Y-48562380D02*
X149360000Y-47562380D01*
X149455238Y-47705238D01*
X149550476Y-47800476D01*
X149645714Y-47848095D01*
X142954285Y-156376666D02*
X142478095Y-156376666D01*
X143049523Y-156662380D02*
X142716190Y-155662380D01*
X142382857Y-156662380D01*
X141525714Y-156662380D02*
X142097142Y-156662380D01*
X141811428Y-156662380D02*
X141811428Y-155662380D01*
X141906666Y-155805238D01*
X142001904Y-155900476D01*
X142097142Y-155948095D01*
M02*
