M48
; DRILL file {KiCad (5.1.5)-3} date 18/08/2020 12:44:08
; FORMAT={-:-/ absolute / inch / decimal}
; #@! TF.CreationDate,2020-08-18T12:44:08+01:00
; #@! TF.GenerationSoftware,Kicad,Pcbnew,(5.1.5)-3
; #@! TF.FileFunction,Plated,1,2,PTH
FMAT,2
INCH
T1C0.0276
T2C0.0354
T3C0.0394
T4C0.0472
T5C0.0959
%
G90
G05
T1
X5.75Y-1.9
X5.75Y-2.2
X5.75Y-2.65
X5.75Y-2.95
T2
X5.85Y-2.8
X5.95Y-2.8
X5.85Y-2.05
X5.95Y-2.05
X4.75Y-4.3138
X4.75Y-4.4319
X4.75Y-4.55
T3
X5.3031Y-3.85
X5.4016Y-3.85
X5.5Y-3.85
X4.7531Y-3.1
X4.8516Y-3.1
X4.95Y-3.1
X4.7531Y-3.85
X4.8516Y-3.85
X4.95Y-3.85
X5.3031Y-2.35
X5.4016Y-2.35
X5.5Y-2.35
X4.65Y-5.0
X4.65Y-5.1
X4.65Y-5.2
X4.65Y-5.3
X5.2Y-6.3
X5.3Y-6.3
X5.4Y-6.3
X5.5Y-6.3
X5.6Y-6.3
X5.7Y-6.3
X5.8Y-6.3
X5.9Y-6.3
X5.2Y-4.65
X5.2Y-4.75
X5.2Y-4.85
X5.2Y-4.95
X5.2Y-5.05
X5.2Y-5.15
X5.2Y-5.25
X5.2Y-5.35
X5.2Y-5.45
X5.2Y-5.55
X5.2Y-5.65
X5.2Y-5.75
X5.2Y-5.85
X5.2Y-5.95
X5.2Y-6.05
X5.2Y-6.4
X5.3Y-6.4
X5.4Y-6.4
X5.5Y-6.4
X5.6Y-6.4
X5.7Y-6.4
X5.8Y-6.4
X5.9Y-6.4
X6.0Y-4.65
X6.0Y-4.75
X6.0Y-4.85
X6.0Y-4.95
X6.0Y-5.05
X6.0Y-5.15
X6.0Y-5.25
X6.0Y-5.35
X6.0Y-5.45
X6.0Y-5.55
X6.0Y-5.65
X6.0Y-5.75
X6.0Y-5.85
X6.0Y-5.95
X6.0Y-6.05
X5.85Y-4.25
X4.9Y-4.8
X4.7531Y-2.35
X4.8516Y-2.35
X4.95Y-2.35
X4.65Y-5.6
X4.65Y-5.7
X4.65Y-5.8
X4.65Y-5.9
X5.3031Y-3.1
X5.4016Y-3.1
X5.5Y-3.1
X5.3Y-4.65
X5.3Y-4.75
X5.3Y-4.85
X5.3Y-4.95
X5.3Y-5.05
X5.3Y-5.15
X5.3Y-5.25
X5.3Y-5.35
X5.3Y-5.45
X5.3Y-5.55
X5.3Y-5.65
X5.3Y-5.75
X5.3Y-5.85
X5.3Y-5.95
X5.3Y-6.05
X5.9Y-4.65
X5.9Y-4.75
X5.9Y-4.85
X5.9Y-4.95
X5.9Y-5.05
X5.9Y-5.15
X5.9Y-5.25
X5.9Y-5.35
X5.9Y-5.45
X5.9Y-5.55
X5.9Y-5.65
X5.9Y-5.75
X5.9Y-5.85
X5.9Y-5.95
X5.9Y-6.05
T4
X5.2Y-4.25
X5.2Y-4.4469
X5.6921Y-4.25
X5.6921Y-4.4469
T5
X4.75Y-4.1858
X4.75Y-4.678
T0
M30
